<?xml version="1.0" encoding="UTF-8"?>
<svg id="Layer_2" data-name="Layer 2" xmlns="http://www.w3.org/2000/svg" viewBox="0 0 511.81 56.87">
  <g id="Layer_1-2" data-name="Layer 1">
    <g>
      <g>
        <path d="M8.12,44.96v-2.03c0-1.12-.91-2.03-2.03-2.03h-2.03V10.43c0-1.12-.91-2.03-2.03-2.03H0v-4.06h2.03c1.12,0,2.03-.91,2.03-2.03V.28h4.06v18.28c0,1.12.91,2.03,2.03,2.03s2.03-.91,2.03-2.03v-2.03h8.12v2.03c0,1.12.91,2.03,2.03,2.03h2.03v2.03c0,1.12.91,2.03,2.03,2.03h2.03v12.19h-2.03c-1.12,0-2.03.91-2.03,2.03v2.03h-2.03c-1.12,0-2.03.91-2.03,2.03v2.03h-12.19ZM10.15,24.65c-1.12,0-2.03.91-2.03,2.03v12.19c0,1.12.91,2.03,2.03,2.03h8.13c1.12,0,2.03-.91,2.03-2.03v-2.03h2.03c1.12,0,2.03-.91,2.03-2.03v-8.13c0-1.12-.91-2.03-2.03-2.03h-2.03v-2.03c0-1.12-.91-2.03-2.03-2.03h-4.06c-1.12,0-2.03.91-2.03,2.03v2.03h-2.03Z"/>
        <path d="M47.21,44.96v-2.03c0-1.12-.91-2.03-2.03-2.03s-2.03.91-2.03,2.03v2.03h-12.19v-12.19h2.03c1.12,0,2.03-.91,2.03-2.03v-2.03h6.09c1.12,0,2.03-.91,2.03-2.03v-2.03h2.03c1.12,0,2.03-.91,2.03-2.03s-.91-2.03-2.03-2.03h-8.13c-1.12,0-2.03.91-2.03,2.03v2.03h-4.06v-4.06h2.03c1.12,0,2.03-.91,2.03-2.03v-2.03h12.19v2.03c0,1.12.91,2.03,2.03,2.03h2.03v18.28c0,1.12.91,2.03,2.03,2.03h2.03v4.06h-8.12ZM37.05,32.77c-1.12,0-2.03.91-2.03,2.03v4.06c0,1.12.91,2.03,2.03,2.03h4.06c1.12,0,2.03-.91,2.03-2.03v-2.03h2.03c1.12,0,2.03-.91,2.03-2.03v-4.06c0-1.12-.91-2.03-2.03-2.03s-2.03.91-2.03,2.03v2.03h-6.09Z"/>
        <path d="M57.85,44.96v-8.12h4.06v2.03c0,1.12.91,2.03,2.03,2.03h4.06c1.12,0,2.03-.91,2.03-2.03v-4.06c0-1.12-.91-2.03-2.03-2.03h-6.09v-2.03c0-1.12-.91-2.03-2.03-2.03h-2.03v-8.12h2.03c1.12,0,2.03-.91,2.03-2.03v-2.03h12.19v8.12h-4.06v-2.03c0-1.12-.91-2.03-2.03-2.03h-4.06c-1.12,0-2.03.91-2.03,2.03v4.06c0,1.12.91,2.03,2.03,2.03h6.09v2.03c0,1.12.91,2.03,2.03,2.03h2.03v8.12h-2.03c-1.12,0-2.03.91-2.03,2.03v2.03h-12.19Z"/>
        <path d="M80.69,44.96v-2.03c0-1.12-.91-2.03-2.03-2.03h-2.03v-20.31h2.03c1.12,0,2.03-.91,2.03-2.03v-2.03h12.19v2.03c0,1.12.91,2.03,2.03,2.03h2.03v8.12h-14.22c-1.12,0-2.03.91-2.03,2.03v8.13c0,1.12.91,2.03,2.03,2.03h8.13c1.12,0,2.03-.91,2.03-2.03v-2.03h4.06v4.06h-2.03c-1.12,0-2.03.91-2.03,2.03v2.03h-12.19ZM82.72,20.59c-1.12,0-2.03.91-2.03,2.03h0c0,1.12.91,2.03,2.03,2.03h8.13c1.12,0,2.03-.91,2.03-2.03s-.91-2.03-2.03-2.03h-8.13Z"/>
        <path d="M119.77,44.96v-2.03c0-1.12-.91-2.03-2.03-2.03h0c-1.12,0-2.03.91-2.03,2.03v2.03h-8.12v-2.03c0-1.12-.91-2.03-2.03-2.03h-2.03v-2.03c0-1.12-.91-2.03-2.03-2.03h-2.03v-12.19h2.03c1.12,0,2.03-.91,2.03-2.03v-2.03h2.03c1.12,0,2.03-.91,2.03-2.03v-2.03h8.12v2.03c0,1.12.91,2.03,2.03,2.03h0c1.12,0,2.03-.91,2.03-2.03v-8.13c0-1.12-.91-2.03-2.03-2.03h-2.03v-4.06h2.03c1.12,0,2.03-.91,2.03-2.03V.28h4.06v34.53c0,1.12.91,2.03,2.03,2.03h2.03v4.06h-2.03c-1.12,0-2.03.91-2.03,2.03v2.03h-4.06ZM105.55,24.65c-1.12,0-2.03.91-2.03,2.03v8.13c0,1.12.91,2.03,2.03,2.03h2.03v2.03c0,1.12.91,2.03,2.03,2.03h4.06c1.12,0,2.03-.91,2.03-2.03v-2.03h2.03c1.12,0,2.03-.91,2.03-2.03v-8.13c0-1.12-.91-2.03-2.03-2.03h-2.03v-2.03c0-1.12-.91-2.03-2.03-2.03h-4.06c-1.12,0-2.03.91-2.03,2.03v2.03h-2.03Z"/>
      </g>
      <g>
        <path d="M148.97,44.96v-4.06h2.03c1.12,0,2.03-.91,2.03-2.03v-12.19c0-1.12-.91-2.03-2.03-2.03h-2.03v-4.06h2.03c1.12,0,2.03-.91,2.03-2.03v-2.03h4.06v22.34c0,1.12.91,2.03,2.03,2.03h2.03v4.06h-12.19ZM153.04,4.34V.28h4.06v4.06h-4.06Z"/>
        <path d="M179.93,44.96v-4.06h2.03c1.12,0,2.03-.91,2.03-2.03v-16.25c0-1.12-.91-2.03-2.03-2.03h-4.06c-1.12,0-2.03.91-2.03,2.03v2.03h-2.03c-1.12,0-2.03.91-2.03,2.03v12.19c0,1.12.91,2.03,2.03,2.03h2.03v4.06h-12.19v-4.06h2.03c1.12,0,2.03-.91,2.03-2.03v-12.19c0-1.12-.91-2.03-2.03-2.03h-2.03v-4.06h2.03c1.12,0,2.03-.91,2.03-2.03v-2.03h4.06v2.03c0,1.12.91,2.03,2.03,2.03h0c1.12,0,2.03-.91,2.03-2.03v-2.03h8.12v2.03c0,1.12.91,2.03,2.03,2.03h2.03v18.28c0,1.12.91,2.03,2.03,2.03h2.03v4.06h-12.19Z"/>
      </g>
      <g>
        <path d="M219.8,44.68v-2.03c0-1.12-.91-2.03-2.03-2.03s-2.03.91-2.03,2.03v2.03h-4.06v-12.19h4.06v2.03c0,1.12.91,2.03,2.03,2.03h2.03v2.03c0,1.12.91,2.03,2.03,2.03h8.13c1.12,0,2.03-.91,2.03-2.03v-2.03h2.03c1.12,0,2.03-.91,2.03-2.03v-4.06c0-1.12-.91-2.03-2.03-2.03h-2.03v-2.03c0-1.12-.91-2.03-2.03-2.03h-6.09v-2.03c0-1.12-.91-2.03-2.03-2.03h-6.09v-2.03c0-1.12-.91-2.03-2.03-2.03h-2.03v-8.12h2.03c1.12,0,2.03-.91,2.03-2.03v-2.03h2.03c1.12,0,2.03-.91,2.03-2.03V0h12.19v2.03c0,1.12.91,2.03,2.03,2.03h0c1.12,0,2.03-.91,2.03-2.03V0h4.06v12.19h-4.06v-2.03c0-1.12-.91-2.03-2.03-2.03h-2.03v-2.03c0-1.12-.91-2.03-2.03-2.03h-8.13c-1.12,0-2.03.91-2.03,2.03v2.03h-2.03c-1.12,0-2.03.91-2.03,2.03v4.06c0,1.12.91,2.03,2.03,2.03h6.09v2.03c0,1.12.91,2.03,2.03,2.03h6.09v2.03c0,1.12.91,2.03,2.03,2.03h2.03v2.03c0,1.12.91,2.03,2.03,2.03h2.03v8.12h-2.03c-1.12,0-2.03.91-2.03,2.03v2.03h-2.03c-1.12,0-2.03.91-2.03,2.03v2.03h-12.19Z"/>
        <path d="M258.88,44.68v-2.03c0-1.12-.91-2.03-2.03-2.03s-2.03.91-2.03,2.03v2.03h-12.19v-12.19h2.03c1.12,0,2.03-.91,2.03-2.03v-2.03h6.09c1.12,0,2.03-.91,2.03-2.03v-2.03h2.03c1.12,0,2.03-.91,2.03-2.03s-.91-2.03-2.03-2.03h-8.13c-1.12,0-2.03.91-2.03,2.03v2.03h-4.06v-4.06h2.03c1.12,0,2.03-.91,2.03-2.03v-2.03h12.19v2.03c0,1.12.91,2.03,2.03,2.03h2.03v18.28c0,1.12.91,2.03,2.03,2.03h2.03v4.06h-8.12ZM248.72,32.5c-1.12,0-2.03.91-2.03,2.03v4.06c0,1.12.91,2.03,2.03,2.03h4.06c1.12,0,2.03-.91,2.03-2.03v-2.03h2.03c1.12,0,2.03-.91,2.03-2.03v-4.06c0-1.12-.91-2.03-2.03-2.03s-2.03.91-2.03,2.03v2.03h-6.09Z"/>
        <path d="M285.77,44.68v-4.06h2.03c1.12,0,2.03-.91,2.03-2.03v-16.25c0-1.12-.91-2.03-2.03-2.03h-4.06c-1.12,0-2.03.91-2.03,2.03v2.03h-2.03c-1.12,0-2.03.91-2.03,2.03v12.19c0,1.12.91,2.03,2.03,2.03h2.03v4.06h-12.19v-4.06h2.03c1.12,0,2.03-.91,2.03-2.03v-12.19c0-1.12-.91-2.03-2.03-2.03h-2.03v-4.06h2.03c1.12,0,2.03-.91,2.03-2.03v-2.03h4.06v2.03c0,1.12.91,2.03,2.03,2.03h0c1.12,0,2.03-.91,2.03-2.03v-2.03h8.12v2.03c0,1.12.91,2.03,2.03,2.03h2.03v18.28c0,1.12.91,2.03,2.03,2.03h2.03v4.06h-12.19Z"/>
        <path d="M301.47,44.68v-22.34c0-1.12-.91-2.03-2.03-2.03h-2.03v-4.06h2.03c1.12,0,2.03-.91,2.03-2.03v-6.09h4.06v6.09c0,1.12.91,2.03,2.03,2.03h6.09v4.06h-6.09c-1.12,0-2.03.91-2.03,2.03v16.25c0,1.12.91,2.03,2.03,2.03s2.03-.91,2.03-2.03v-2.03h4.06v4.06h-2.03c-1.12,0-2.03.91-2.03,2.03v2.03h-8.12Z"/>
        <path d="M316.18,44.68v-4.06h2.03c1.12,0,2.03-.91,2.03-2.03v-12.19c0-1.12-.91-2.03-2.03-2.03h-2.03v-4.06h2.03c1.12,0,2.03-.91,2.03-2.03v-2.03h4.06v22.34c0,1.12.91,2.03,2.03,2.03h2.03v4.06h-12.19ZM320.24,4.06V0h4.06v4.06h-4.06Z"/>
        <path d="M347.13,44.68v-2.03c0-1.12-.91-2.03-2.03-2.03s-2.03.91-2.03,2.03v2.03h-12.19v-12.19h2.03c1.12,0,2.03-.91,2.03-2.03v-2.03h6.09c1.12,0,2.03-.91,2.03-2.03v-2.03h2.03c1.12,0,2.03-.91,2.03-2.03s-.91-2.03-2.03-2.03h-8.13c-1.12,0-2.03.91-2.03,2.03v2.03h-4.06v-4.06h2.03c1.12,0,2.03-.91,2.03-2.03v-2.03h12.19v2.03c0,1.12.91,2.03,2.03,2.03h2.03v18.28c0,1.12.91,2.03,2.03,2.03h2.03v4.06h-8.12ZM336.98,32.5c-1.12,0-2.03.91-2.03,2.03v4.06c0,1.12.91,2.03,2.03,2.03h4.06c1.12,0,2.03-.91,2.03-2.03v-2.03h2.03c1.12,0,2.03-.91,2.03-2.03v-4.06c0-1.12-.91-2.03-2.03-2.03s-2.03.91-2.03,2.03v2.03h-6.09Z"/>
        <path d="M359.32,56.87v-2.03c0-1.12-.91-2.03-2.03-2.03h-2.03v-8.12h2.03c1.12,0,2.03-.91,2.03-2.03v-6.09h2.03c1.12,0,2.03-.91,2.03-2.03s-.91-2.03-2.03-2.03h-2.03v-12.19h2.03c1.12,0,2.03-.91,2.03-2.03v-2.03h20.31v4.06h-2.03c-1.12,0-2.03.91-2.03,2.03v10.16h-2.03c-1.12,0-2.03.91-2.03,2.03v2.03h-10.16c-1.12,0-2.03.91-2.03,2.03s.91,2.03,2.03,2.03h14.22v2.03c0,1.12.91,2.03,2.03,2.03h2.03v8.12h-2.03c-1.12,0-2.03.91-2.03,2.03v2.03h-20.31ZM361.35,44.68c-1.12,0-2.03.91-2.03,2.03v4.06c0,1.12.91,2.03,2.03,2.03h16.25c1.12,0,2.03-.91,2.03-2.03v-4.06c0-1.12-.91-2.03-2.03-2.03h-16.25ZM365.41,20.31c-1.12,0-2.03.91-2.03,2.03v8.13c0,1.12.91,2.03,2.03,2.03h8.13c1.12,0,2.03-.91,2.03-2.03v-8.13c0-1.12-.91-2.03-2.03-2.03h-8.13Z"/>
        <path d="M391.26,44.68v-2.03c0-1.12-.91-2.03-2.03-2.03h-2.03v-2.03c0-1.12-.91-2.03-2.03-2.03h-2.03v-12.19h2.03c1.12,0,2.03-.91,2.03-2.03v-2.03h2.03c1.12,0,2.03-.91,2.03-2.03v-2.03h8.12v2.03c0,1.12.91,2.03,2.03,2.03h2.03v2.03c0,1.12.91,2.03,2.03,2.03h2.03v12.19h-2.03c-1.12,0-2.03.91-2.03,2.03v2.03h-2.03c-1.12,0-2.03.91-2.03,2.03v2.03h-8.12ZM389.23,24.37c-1.12,0-2.03.91-2.03,2.03v8.13c0,1.12.91,2.03,2.03,2.03h2.03v2.03c0,1.12.91,2.03,2.03,2.03h4.06c1.12,0,2.03-.91,2.03-2.03v-2.03h2.03c1.12,0,2.03-.91,2.03-2.03v-8.13c0-1.12-.91-2.03-2.03-2.03h-2.03v-2.03c0-1.12-.91-2.03-2.03-2.03h-4.06c-1.12,0-2.03.91-2.03,2.03v2.03h-2.03Z"/>
        <path d="M411.57,52.81v-4.06h2.03c1.12,0,2.03-.91,2.03-2.03s-.91-2.03-2.03-2.03h-2.03v-4.06h8.12v8.12h-2.03c-1.12,0-2.03.91-2.03,2.03v2.03h-4.06Z"/>
      </g>
      <g>
        <path d="M448.36,44.68v-2.03c0-1.12-.91-2.03-2.03-2.03h-2.03v-2.03c0-1.12-.91-2.03-2.03-2.03h-2.03v-2.03c0-1.12-.91-2.03-2.03-2.03h-2.03V12.19h2.03c1.12,0,2.03-.91,2.03-2.03v-2.03h2.03c1.12,0,2.03-.91,2.03-2.03v-2.03h2.03c1.12,0,2.03-.91,2.03-2.03V0h16.25v2.03c0,1.12.91,2.03,2.03,2.03h0c1.12,0,2.03-.91,2.03-2.03V0h4.06v16.25h-4.06v-6.09c0-1.12-.91-2.03-2.03-2.03h-2.03v-2.03c0-1.12-.91-2.03-2.03-2.03h-12.19c-1.12,0-2.03.91-2.03,2.03v2.03h-2.03c-1.12,0-2.03.91-2.03,2.03v2.03h-2.03c-1.12,0-2.03.91-2.03,2.03v16.25c0,1.12.91,2.03,2.03,2.03h2.03v2.03c0,1.12.91,2.03,2.03,2.03h2.03v2.03c0,1.12.91,2.03,2.03,2.03h12.19c1.12,0,2.03-.91,2.03-2.03v-2.03h2.03c1.12,0,2.03-.91,2.03-2.03v-2.03h4.06v4.06h-2.03c-1.12,0-2.03.91-2.03,2.03v2.03h-2.03c-1.12,0-2.03.91-2.03,2.03v2.03h-16.25Z"/>
        <path d="M475.26,44.68v-4.06h6.09c1.12,0,2.03-.91,2.03-2.03V6.09c0-1.12-.91-2.03-2.03-2.03h-6.09V0h20.31v4.06h-6.09c-1.12,0-2.03.91-2.03,2.03v32.5c0,1.12.91,2.03,2.03,2.03h12.19c1.12,0,2.03-.91,2.03-2.03v-2.03h2.03c1.12,0,2.03-.91,2.03-2.03v-2.03h4.06v4.06h-2.03c-1.12,0-2.03.91-2.03,2.03v6.09h-32.5Z"/>
      </g>
    </g>
  </g>
</svg>