<?xml version="1.0" encoding="UTF-8"?>
<svg id="Layer_2" data-name="Layer 2" xmlns="http://www.w3.org/2000/svg" viewBox="0 0 137.49 138.57">
  <g id="Layer_1-2" data-name="Layer 1">
    <g>
      <path d="M14.48,23.47c0-1.56.68-3.05,2.03-4.48.88-.92,1.8-1.56,2.76-1.91.96-.35,1.91-.41,2.85-.18.94.23,1.81.72,2.62,1.49l.29.27-2,2.1-.32-.3c-.59-.57-1.29-.84-2.08-.81-.79.02-1.54.4-2.24,1.13-.73.76-1.08,1.59-1.05,2.47.03.88.44,1.7,1.23,2.45l2.74,2.61c.79.75,1.62,1.12,2.5,1.11s1.69-.4,2.42-1.16c.7-.73,1.04-1.5,1.03-2.29-.01-.79-.32-1.47-.91-2.04l-.45-.42,2-2.1.41.39c.81.77,1.35,1.62,1.62,2.54.27.93.25,1.88-.05,2.86-.3.98-.9,1.93-1.78,2.85-1.36,1.42-2.81,2.17-4.37,2.24-1.56.07-3.04-.56-4.46-1.91l-2.68-2.55c-1.41-1.35-2.12-2.8-2.12-4.36Z"/>
      <path d="M27.6,18.29c-.09-1,.09-1.94.54-2.82.45-.88,1.11-1.62,2.01-2.24.89-.62,1.83-.98,2.81-1.08.98-.11,1.92.06,2.83.49s1.69,1.13,2.35,2.08c.66.95,1.03,1.93,1.12,2.93s-.09,1.94-.54,2.82c-.45.88-1.11,1.63-2.01,2.24-.89.62-1.83.98-2.81,1.08-.98.11-1.92-.06-2.83-.49-.91-.43-1.69-1.13-2.35-2.08-.66-.95-1.03-1.93-1.12-2.93ZM33.06,21.21c.78.18,1.54.02,2.26-.48.72-.5,1.14-1.15,1.25-1.95.11-.8-.13-1.62-.72-2.48-.59-.86-1.28-1.38-2.06-1.56-.78-.18-1.54-.02-2.26.48s-1.14,1.15-1.25,1.95c-.11.8.13,1.62.72,2.48.59.86,1.28,1.38,2.06,1.56Z"/>
      <path d="M40.33,9.53l.2-.09c.05-1.33.85-2.33,2.38-2.98.77-.33,1.53-.44,2.27-.34.75.1,1.42.4,2.01.9.6.5,1.07,1.15,1.42,1.98l2.56,5.99-2.55,1.09-2.51-5.86c-.32-.75-.75-1.24-1.27-1.46-.53-.22-1.14-.18-1.84.12-.78.33-1.28.85-1.49,1.56-.21.7-.11,1.52.28,2.45l2.22,5.18-2.55,1.09-4.3-10.03,2.51-1.07.64,1.5Z"/>
      <path d="M50.87,3.94l-.79-3.29,2.69-.65.79,3.29,2.91-.7.53,2.18-2.91.7,1.35,5.6c.1.43.35.59.75.5l2.05-.49.52,2.18-2.99.72c-.71.17-1.34.09-1.87-.24-.53-.33-.89-.86-1.06-1.59l-1.45-6.03-2.65.64-.52-2.18,2.65-.64Z"/>
      <path d="M60.19,2.64c.75-.63,1.8-1,3.13-1.09,1.45-.11,2.61.17,3.49.83.88.66,1.37,1.67,1.47,3.01l.52,7-2.63.2-.1-1.27-.31.02c-.13.39-.42.77-.85,1.14s-1.09.59-1.97.66c-1.16.09-2.13-.15-2.93-.72-.8-.56-1.24-1.39-1.32-2.47s.24-1.95.96-2.6c.72-.65,1.72-1.02,2.99-1.12l2.98-.22-.05-.61c-.04-.54-.24-.96-.6-1.27-.36-.3-.88-.43-1.55-.38-.66.05-1.16.24-1.5.59-.34.34-.54.78-.61,1.31l-2.61-.67c.22-.93.71-1.71,1.47-2.34ZM62,10.59c.33.22.78.3,1.35.26.77-.06,1.39-.33,1.85-.81.46-.48.66-1.08.6-1.8v-.17s-2.8.21-2.8.21c-.51.04-.91.19-1.18.44-.27.26-.4.57-.37.96.03.39.21.7.54.92Z"/>
      <path d="M70.65,4.02c.59-.82,1.34-1.43,2.26-1.82.91-.39,1.9-.53,2.95-.42,1.46.16,2.61.67,3.45,1.54.84.87,1.32,1.95,1.43,3.24l-2.73.28c-.01-.71-.21-1.31-.6-1.79-.39-.49-.98-.77-1.77-.86-.86-.09-1.6.13-2.21.67-.61.54-.97,1.32-1.09,2.34-.11,1.02.07,1.86.55,2.52.48.66,1.15,1.03,2.01,1.13.79.09,1.43-.06,1.92-.43.49-.37.84-.93,1.06-1.66l2.6.93c-.46,1.22-1.19,2.16-2.19,2.81s-2.23.91-3.69.75c-1.05-.11-1.98-.46-2.78-1.05-.81-.58-1.41-1.34-1.81-2.27-.4-.93-.54-1.94-.42-3.03.12-1.09.48-2.05,1.07-2.87Z"/>
      <path d="M84.68,3.67l.91-3.26,2.67.75-.91,3.26,2.88.81-.61,2.16-2.88-.81-1.56,5.55c-.12.42.02.69.42.8l2.03.57-.61,2.16-2.97-.83c-.71-.2-1.21-.57-1.51-1.12-.3-.55-.35-1.18-.15-1.91l1.67-5.97-2.63-.74.61-2.16,2.63.74Z"/>
      <path d="M99.65,10.78l.18.12c.45-.27.95-.39,1.5-.37.54.02,1.13.23,1.74.63,1.21.78,1.73,1.8,1.58,3.07l.18.12c.55-.28,1.1-.41,1.67-.41.57,0,1.2.22,1.88.67.9.58,1.45,1.34,1.65,2.28s-.04,1.93-.72,2.99l-3.9,6.02-2.33-1.51,3.83-5.91c.32-.49.43-.95.34-1.38s-.37-.79-.84-1.09c-.53-.34-1.05-.44-1.56-.29-.51.15-.97.54-1.37,1.17l-3.54,5.46-2.33-1.51,3.83-5.91c.32-.49.43-.95.34-1.38-.09-.43-.37-.79-.84-1.09-.53-.34-1.05-.44-1.56-.29-.51.15-.97.54-1.37,1.17l-3.54,5.46-2.33-1.51,5.94-9.16,2.29,1.48-.74,1.14Z"/>
      <path d="M111.86,20.81c.95-.27,1.88-.26,2.8,0,.92.27,1.74.8,2.48,1.57.73.77,1.2,1.6,1.41,2.5.21.9.16,1.81-.16,2.72-.32.91-.88,1.74-1.67,2.5l-.69.65-5.47-5.76c-.52.54-.78,1.16-.77,1.87,0,.71.28,1.35.81,1.91.48.51.97.8,1.46.87.49.07.99.01,1.51-.17l.7,2.46c-2.08.58-3.9.05-5.45-1.59-.74-.78-1.22-1.63-1.45-2.57-.23-.93-.19-1.87.12-2.81.31-.94.88-1.81,1.71-2.59.83-.79,1.72-1.31,2.67-1.58ZM116.16,25.67c-.02-.6-.27-1.15-.76-1.66-.5-.52-1.05-.81-1.65-.88-.61-.06-1.17.09-1.69.46l3.52,3.7c.41-.49.6-1.03.58-1.63Z"/>
      <path d="M123.19,33.13c.57,0,1.1.13,1.59.4.49.27.88.65,1.17,1.15.29.49.44,1.02.43,1.58,0,.56-.14,1.09-.41,1.58-.27.49-.65.88-1.15,1.17-.51.3-1.04.44-1.61.44s-1.09-.15-1.58-.43c-.49-.28-.87-.66-1.15-1.12-.28-.48-.42-1-.42-1.56,0-.56.14-1.09.41-1.6.27-.5.65-.89,1.13-1.18.48-.28,1-.43,1.57-.43Z"/>
      <path d="M134.25,44.37c1.35.78,2.31,2.11,2.87,3.99.36,1.22.45,2.34.28,3.35-.18,1.01-.6,1.86-1.26,2.56-.66.7-1.53,1.21-2.6,1.53l-.38.11-.82-2.79.42-.12c.79-.23,1.37-.7,1.74-1.4.37-.7.42-1.53.13-2.5-.3-1.01-.84-1.72-1.62-2.14-.78-.41-1.69-.46-2.73-.16l-3.63,1.07c-1.04.31-1.78.85-2.21,1.62s-.5,1.66-.2,2.67c.29.97.78,1.65,1.47,2.03.69.38,1.44.46,2.22.23l.59-.17.82,2.79-.55.16c-1.07.32-2.07.36-3.01.13-.94-.23-1.76-.72-2.45-1.47s-1.23-1.74-1.59-2.96c-.56-1.88-.48-3.52.23-4.91s2.01-2.36,3.88-2.91l3.54-1.05c1.87-.55,3.48-.44,4.84.33Z"/>
      <path d="M132.19,58.34c.91.43,1.63,1.05,2.17,1.88s.85,1.78.94,2.86-.07,2.07-.46,2.97c-.4.9-1.01,1.63-1.84,2.2-.83.57-1.82.9-2.98.99s-2.19-.07-3.1-.5c-.91-.43-1.63-1.05-2.17-1.88-.54-.82-.85-1.78-.94-2.86s.07-2.07.46-2.97c.4-.9,1.01-1.63,1.84-2.2s1.82-.9,2.98-.99,2.19.07,3.1.5ZM126.94,61.61c-.55.59-.79,1.32-.72,2.2.07.88.42,1.56,1.06,2.06.64.49,1.47.7,2.51.61,1.04-.08,1.83-.42,2.38-1.01.55-.59.79-1.32.72-2.2s-.42-1.56-1.06-2.05c-.64-.49-1.47-.7-2.51-.61-1.04.08-1.83.42-2.38,1.01Z"/>
      <path d="M133.44,73.75l-.03.22c1.13.71,1.6,1.89,1.4,3.55-.1.83-.38,1.54-.84,2.14s-1.05,1.03-1.78,1.3c-.73.27-1.53.35-2.42.25l-6.47-.75.32-2.75,6.34.74c.82.09,1.45-.03,1.9-.38.45-.35.73-.9.81-1.66.1-.84-.11-1.53-.61-2.06-.51-.53-1.26-.86-2.27-.97l-5.59-.65.32-2.75,10.84,1.27-.32,2.71-1.62-.19Z"/>
      <path d="M133.04,85.68l3.25.95-.78,2.66-3.25-.95-.84,2.87-2.15-.63.84-2.87-5.53-1.62c-.42-.12-.69.01-.81.41l-.59,2.03-2.15-.63.86-2.96c.21-.7.58-1.2,1.14-1.5.55-.3,1.19-.34,1.91-.13l5.95,1.74.77-2.62,2.15.63-.77,2.62Z"/>
      <path d="M129.54,94.39c.17.97-.03,2.05-.61,3.26-.63,1.31-1.45,2.18-2.46,2.62-1.01.43-2.13.36-3.34-.22l-6.33-3.03,1.14-2.38,1.15.55.13-.28c-.27-.31-.46-.75-.57-1.31-.1-.56.03-1.24.41-2.03.5-1.04,1.19-1.77,2.08-2.19.89-.41,1.82-.38,2.8.08.98.47,1.57,1.18,1.77,2.13.2.95.03,2-.52,3.15l-1.29,2.7.56.27c.49.23.96.27,1.4.11s.81-.55,1.1-1.16c.28-.6.36-1.13.24-1.59-.13-.47-.4-.86-.84-1.18l1.88-1.93c.69.66,1.13,1.47,1.3,2.44ZM121.74,92c-.35.18-.66.53-.9,1.04-.34.7-.41,1.37-.22,2.01.19.64.61,1.11,1.26,1.42l.16.08,1.21-2.52c.22-.46.29-.88.21-1.24-.08-.37-.3-.63-.64-.8-.36-.17-.71-.17-1.07.01Z"/>
      <path d="M123.11,102.8c.41.92.56,1.88.45,2.87-.12.99-.49,1.91-1.11,2.76-.87,1.18-1.89,1.92-3.06,2.22-1.17.29-2.35.17-3.52-.39l1.13-2.5c.62.35,1.24.47,1.85.38.61-.09,1.16-.46,1.62-1.1.51-.7.69-1.45.53-2.25-.16-.8-.65-1.5-1.48-2.11-.83-.61-1.65-.87-2.46-.78s-1.47.48-1.98,1.18c-.47.64-.66,1.26-.58,1.88.08.61.38,1.19.91,1.74l-2.1,1.79c-.83-1.01-1.27-2.11-1.34-3.3s.33-2.39,1.2-3.57c.62-.85,1.39-1.48,2.3-1.89.91-.41,1.86-.55,2.87-.43,1,.12,1.95.5,2.84,1.15.89.65,1.54,1.44,1.95,2.36Z"/>
      <path d="M116.43,115.11l2.37,2.42-1.98,1.94-2.37-2.42-2.14,2.1-1.57-1.6,2.14-2.09-4.04-4.12c-.31-.31-.61-.33-.9-.04l-1.51,1.48-1.57-1.6,2.2-2.16c.52-.51,1.1-.77,1.73-.75s1.2.28,1.73.82l4.34,4.43,1.95-1.91,1.57,1.6-1.95,1.91Z"/>
      <path d="M102.82,124.55l-.2.1c0,.52-.14,1.02-.43,1.48-.29.46-.76.86-1.41,1.2-1.28.66-2.43.61-3.45-.16l-.2.1c-.03.61-.19,1.16-.47,1.65s-.79.93-1.52,1.3c-.95.49-1.89.59-2.8.3-.92-.29-1.66-.99-2.24-2.11l-3.28-6.38,2.46-1.27,3.22,6.26c.27.52.61.85,1.02.98.42.13.87.07,1.37-.18.56-.29.9-.69,1.02-1.21s.01-1.11-.33-1.77l-2.98-5.79,2.46-1.27,3.22,6.26c.27.52.61.85,1.03.98.41.13.87.07,1.37-.18.56-.29.9-.69,1.02-1.21.12-.52.01-1.11-.33-1.77l-2.98-5.79,2.46-1.27,5,9.7-2.42,1.25-.62-1.21Z"/>
      <path d="M88.04,130.16c-.24.96-.71,1.76-1.41,2.42-.69.66-1.56,1.11-2.6,1.36-1.03.25-1.98.24-2.87-.03-.89-.27-1.65-.77-2.27-1.5s-1.07-1.63-1.33-2.7l-.22-.92,7.72-1.87c-.2-.72-.62-1.25-1.24-1.6s-1.31-.43-2.06-.25c-.68.17-1.18.44-1.48.83-.3.39-.51.85-.6,1.39l-2.48-.62c.54-2.09,1.9-3.4,4.1-3.93,1.04-.25,2.02-.24,2.95.02.92.27,1.72.77,2.38,1.51.66.74,1.13,1.66,1.4,2.77.27,1.11.28,2.15.04,3.1ZM81.68,131.46c.53.28,1.13.34,1.82.17.7-.17,1.23-.5,1.58-.99.36-.49.5-1.06.44-1.69l-4.96,1.2c.22.6.59,1.03,1.12,1.31Z"/>
      <path d="M71.74,133.81c-.28.5-.66.89-1.14,1.18-.48.29-1,.45-1.58.45-.57,0-1.1-.12-1.59-.4-.49-.28-.88-.66-1.17-1.14-.29-.48-.45-1-.45-1.58,0-.59.13-1.12.41-1.61.29-.49.67-.88,1.16-1.16.49-.29,1-.43,1.54-.44.56,0,1.08.13,1.57.4.49.28.88.66,1.18,1.15.3.49.46,1.01.47,1.57,0,.56-.13,1.08-.4,1.58Z"/>
      <path d="M56.46,137.82c-1.35.79-2.98.96-4.89.5-1.24-.29-2.26-.77-3.04-1.42-.79-.65-1.32-1.44-1.6-2.37-.28-.93-.29-1.93-.03-3.01l.09-.39,2.83.67-.1.43c-.19.8-.07,1.54.35,2.21.42.67,1.12,1.12,2.11,1.36,1.03.24,1.91.13,2.66-.34.75-.47,1.24-1.24,1.49-2.29l.87-3.68c.25-1.06.15-1.96-.31-2.72s-1.19-1.25-2.22-1.5c-.98-.23-1.82-.14-2.49.27-.68.41-1.11,1.02-1.3,1.82l-.14.6-2.83-.67.13-.56c.26-1.08.72-1.98,1.38-2.68.66-.7,1.49-1.17,2.49-1.4,1-.23,2.12-.2,3.36.09,1.91.45,3.29,1.33,4.14,2.64.85,1.31,1.05,2.91.6,4.81l-.85,3.6c-.45,1.9-1.35,3.24-2.7,4.03Z"/>
      <path d="M45.37,129.09c-.82.58-1.73.89-2.71.95-.98.06-1.97-.15-2.95-.61-.98-.46-1.76-1.09-2.35-1.88-.58-.79-.91-1.69-.99-2.69s.13-2.03.62-3.08c.49-1.05,1.15-1.86,1.97-2.44s1.73-.89,2.71-.95c.98-.06,1.97.15,2.95.61.98.46,1.76,1.09,2.35,1.88.58.79.92,1.69.99,2.69.08,1-.13,2.03-.62,3.08-.49,1.05-1.15,1.86-1.97,2.44ZM45.14,122.9c-.24-.77-.76-1.34-1.55-1.71-.8-.38-1.57-.41-2.31-.1-.74.31-1.34.93-1.78,1.87-.44.94-.55,1.8-.31,2.57.24.77.75,1.34,1.55,1.71.8.38,1.57.41,2.31.1.74-.31,1.34-.93,1.78-1.87.44-.94.55-1.8.31-2.57Z"/>
      <path d="M31.37,122.48l-.18-.13c-1.18.62-2.44.44-3.78-.56-.67-.5-1.15-1.1-1.43-1.79s-.36-1.43-.24-2.19c.13-.76.46-1.5.99-2.22l3.89-5.22,2.22,1.65-3.81,5.12c-.49.66-.7,1.27-.63,1.84.07.57.42,1.08,1.03,1.53.68.51,1.38.67,2.09.5.71-.17,1.37-.67,1.98-1.48l3.36-4.52,2.22,1.65-6.51,8.76-2.19-1.63.97-1.31Z"/>
      <path d="M21.24,116.18l-2.44,2.35-1.92-2,2.45-2.34-2.07-2.16,1.62-1.55,2.07,2.16,4.16-3.99c.32-.3.33-.6.05-.9l-1.46-1.52,1.62-1.55,2.13,2.22c.51.53.75,1.11.73,1.74-.02.63-.3,1.2-.84,1.72l-4.48,4.29,1.89,1.97-1.62,1.55-1.89-1.97Z"/>
      <path d="M15.43,108.81c-.92-.33-1.77-1.05-2.52-2.15-.83-1.19-1.17-2.34-1.05-3.43.13-1.09.75-2.03,1.86-2.79l5.78-3.99,1.5,2.17-1.05.72.18.25c.41-.08.88-.03,1.42.16.54.19,1.06.65,1.56,1.37.66.95.95,1.92.86,2.89-.08.98-.57,1.77-1.47,2.39-.89.62-1.8.78-2.73.48s-1.75-.97-2.48-2.02l-1.7-2.46-.51.35c-.45.31-.71.7-.79,1.16-.08.47.07.98.46,1.53.38.54.8.88,1.26,1,.47.12.95.08,1.44-.14l.74,2.59c-.92.28-1.83.25-2.76-.09ZM21.38,103.23c.02-.4-.13-.83-.46-1.3-.44-.64-.99-1.03-1.63-1.18-.65-.15-1.27-.02-1.86.39l-.15.1,1.59,2.3c.29.42.62.69.98.8s.7.05,1.01-.16c.33-.22.5-.54.52-.93Z"/>
      <path d="M11.33,99.06c-1.01-.1-1.91-.44-2.71-1.04-.8-.59-1.41-1.37-1.84-2.33-.59-1.34-.73-2.59-.4-3.76.33-1.16,1.02-2.12,2.09-2.86l1.61,2.22c-.61.37-1.02.84-1.25,1.42-.22.58-.17,1.23.15,1.96.35.79.91,1.32,1.69,1.57.77.26,1.63.18,2.57-.24s1.57-1,1.9-1.75c.33-.75.31-1.51-.04-2.31-.32-.72-.77-1.2-1.34-1.44s-1.22-.26-1.96-.08l-.51-2.71c1.28-.22,2.46-.06,3.53.48,1.07.54,1.91,1.47,2.5,2.81.43.96.59,1.94.5,2.93-.1.99-.45,1.89-1.05,2.71-.6.81-1.41,1.44-2.41,1.89-1.01.45-2.01.62-3.02.52Z"/>
      <path d="M3.97,87.12l-3.28.85-.69-2.68,3.28-.85-.75-2.9,2.17-.56.75,2.9,5.58-1.44c.43-.11.59-.36.48-.76l-.53-2.04,2.17-.56.77,2.98c.18.71.11,1.33-.21,1.87s-.85.9-1.57,1.09l-6.01,1.55.68,2.64-2.17.56-.68-2.64Z"/>
      <path d="M2.59,70.63v-.22c-.45-.26-.81-.62-1.06-1.11s-.37-1.09-.33-1.82c.07-1.44.68-2.41,1.85-2.91v-.22c-.5-.33-.9-.74-1.19-1.23s-.41-1.15-.37-1.97c.05-1.07.43-1.93,1.13-2.58.71-.65,1.69-.95,2.95-.89l7.16.33-.13,2.77-7.03-.32c-.59-.03-1.04.11-1.36.4-.32.29-.5.72-.52,1.28-.03.63.15,1.13.54,1.49.39.36.95.56,1.7.6l6.5.3-.13,2.77-7.03-.32c-.59-.03-1.04.11-1.36.4-.32.29-.5.72-.52,1.28-.03.63.15,1.13.54,1.49.39.36.95.56,1.7.6l6.5.3-.13,2.77-10.9-.5.12-2.72,1.36.06Z"/>
      <path d="M5.08,55.02c-.71-.69-1.18-1.5-1.4-2.42-.23-.93-.19-1.91.11-2.94.29-1.01.78-1.84,1.45-2.48s1.48-1.05,2.43-1.23c.95-.18,1.95-.12,3,.19l.91.26-2.22,7.63c.73.18,1.39.09,2-.28.61-.37,1.02-.92,1.24-1.67.2-.68.2-1.24.01-1.7-.19-.46-.49-.86-.91-1.21l1.77-1.84c1.55,1.5,2.01,3.34,1.38,5.51-.3,1.03-.79,1.88-1.48,2.55-.69.67-1.52,1.11-2.49,1.32s-2,.15-3.1-.17c-1.1-.32-2-.82-2.71-1.51ZM7.12,48.85c-.51.32-.86.82-1.05,1.49-.2.69-.18,1.31.08,1.87.25.55.67.96,1.25,1.22l1.42-4.9c-.63-.11-1.19,0-1.7.32Z"/>
      <path d="M10.03,39.03c-.29-.49-.44-1.02-.45-1.58-.01-.56.12-1.09.4-1.59.28-.5.66-.89,1.15-1.17.49-.28,1.01-.43,1.57-.44.56-.01,1.09.12,1.59.4.51.29.91.68,1.18,1.17.28.49.42,1.02.42,1.59,0,.56-.13,1.08-.4,1.56-.27.49-.65.87-1.14,1.15-.49.28-1.02.43-1.59.45-.57.02-1.1-.11-1.59-.39-.49-.27-.87-.65-1.16-1.14Z"/>
    </g>
  </g>
</svg>