<?xml version="1.0" encoding="UTF-8"?>
<svg id="Layer_2" data-name="Layer 2" xmlns="http://www.w3.org/2000/svg" viewBox="0 0 221.54 316.48">
  <g id="Layer_1-2" data-name="Layer 1">
    <g>
      <path d="M221.54,189.89v31.65h-15.82c-8.74,0-15.83,7.08-15.83,15.82v15.83h-15.82c-8.74,0-15.82,7.08-15.82,15.82v15.83h-15.42c-.13,0-.27,0-.41,0-.13,0-.27,0-.4,0-8.56.21-15.42,7.21-15.42,15.82v15.82h-31.65v-15.41c.01-.13.01-.27.01-.41,0-.13,0-.27-.01-.4-.21-8.42-6.99-15.21-15.41-15.42-.13,0-.27,0-.41,0-.13,0-.27,0-.4,0h-15.43v-15.83c0-8.74-7.08-15.82-15.82-15.82h-15.83v-15.83c0-8.73-7.08-15.82-15.82-15.82H0v-31.65h31.65v15.83c0,8.74,7.08,15.82,15.82,15.82h15.83v15.82c0,4.37,1.78,8.34,4.65,11.19.89.9,1.89,1.69,2.98,2.35.43.27.88.51,1.34.73,2.08,1,4.41,1.56,6.87,1.56,8.6,0,15.6-6.87,15.81-15.42.01-.13.01-.27.01-.41,0-.13,0-.27-.01-.4V0h31.65v237.36c0,8.74,7.08,15.82,15.82,15.83h.01c4.37,0,8.32-1.77,11.18-4.64.18-.17.36-.36.53-.55.51-.56.98-1.16,1.41-1.79,1.7-2.53,2.7-5.57,2.7-8.85v-15.82h15.82c8.74,0,15.82-7.09,15.82-15.82v-15.83h31.65Z"/>
      <path d="M94.95,236.96c.01.13.01.27.01.4,0,.14,0,.28-.01.41v-.81Z"/>
      <path d="M142.83,284.84h-.81c.13,0,.27,0,.4,0,.14,0,.28,0,.41,0Z"/>
      <path d="M79.54,284.84h-.81c.13,0,.27,0,.4,0,.14,0,.28,0,.41,0Z"/>
      <path d="M94.96,300.66c0,.14,0,.28-.01.41v-.81c.01.13.01.27.01.4Z"/>
    </g>
  </g>
</svg>