<?xml version="1.0" encoding="UTF-8"?>
<svg id="Layer_2" xmlns="http://www.w3.org/2000/svg" version="1.1" viewBox="0 0 108.7 91.2">
  <!-- Generator: Adobe Illustrator 29.4.0, SVG Export Plug-In . SVG Version: 2.1.0 Build 152)  -->
  <defs>
    <style>
      .st0 {
        fill: #fff;
      }
    </style>
  </defs>
  <g id="Layer_1-2">
    <path class="st0" d="M10.8,79.6l-4.3-4.1,1-1.1c.6-.6.5-1.5,0-2.1h0c-.6-.6-1.5-.5-2.1,0l-1,1.1L.2,69.3l1-1.1c.6-.6.5-1.5,0-2.1l-1.1-1,1-1.1c.6-.6.5-1.5,0-2.1L0,60.9l10.3-10.6,1.1,1c.6.6,1.5.5,2.1,0,.6-.6.5-1.5,0-2.1l-1.1-1,1-1.1c.6-.6.5-1.5,0-2.1l-1.1-1,4.1-4.3,1.1,1c.6.6,1.5.5,2.1,0l1-1.1,1.1,1c.6.6,1.5.5,2.1,0l1-1.1,3.2,3.1c.6.6,1.5.5,2.1,0l1-1.1,1.1,1c.6.6,1.5.5,2.1,0,.6-.6.5-1.5,0-2.1l-3.2-3.1,1-1.1c.6-.6.5-1.5,0-2.1l-14.9-14.4c-.6-.6-1.5-.5-2.1,0l-1,1.1L5.5,12.7l1-1.1c.6-.6.5-1.5,0-2.1l-3.2-3.1L9.4.1l1.1,1c.6.6,1.5.5,2.1,0L13.6,0l5.3,5.1c.6.6,1.5.6,2.1,0l1-1.1,11.7,11.3c.6.6,1.5.6,2.1,0l1-1.1,13.8,13.4c.6.6,1.5.5,2.1,0l1-1.1,9.6,9.2c.6.6,1.5.5,2.1,0l1-1.1,7.5,7.2c.6.6,1.5.5,2.1,0l1-1.1,7.4,7.2c.6.6,1.5.5,2.1,0l1-1.1,3.2,3.1c.6.6,1.5.5,2.1,0l1-1.1,7.4,7.2c.6.6,1.5.5,2.1,0l1-1.1,4.3,4.1-2,2.1-1.1-1c-.6-.6-1.5-.5-2.1,0l-1,1.1-9.6-9.2c-.6-.6-1.5-.5-2.1,0l-1,1.1-3.2-3.1c-.6-.6-1.5-.5-2.1,0l-1,1.1-7.5-7.2c-.6-.6-1.5-.5-2.1,0l-1,1.1-7.5-7.2c-.6-.6-1.5-.5-2.1,0l-1,1.1-9.6-9.2c-.6-.6-1.5-.5-2.1,0l-1,1.1-13.8-13.4c-.6-.6-1.5-.5-2.1,0l-1,1.1-11.7-11.3c-.6-.6-1.5-.6-2.1,0l-1,1.1-3.2-3.1c-.6-.6-1.5-.6-2.1,0l-1,1.1-1.1-1c-.6-.6-1.5-.6-2.1,0-.6.6-.5,1.5,0,2.1l6.4,6.2c.6.6,1.5.6,2.1,0l1-1.1,3.2,3.1c.6.6,1.5.6,2.1,0l1-1.1,4.3,4.1-1,1.1c-.6.6-.5,1.5,0,2.1l6.4,6.2c.6.6,1.5.5,2.1,0l1-1.1,2.1,2-1,1.1c-.6.6-.5,1.5,0,2.1l1.1,1-1,1.1c-.6.6-.5,1.5,0,2.1l3.2,3.1-1,1.1c-.6.6-.5,1.5,0,2.1l2.1,2c.6.6,1.5.5,2.1,0l1-1.1,1.1,1c.6.6,1.5.5,2.1,0l3.1-3.2,1.1,1c.6.6,1.5.5,2.1,0l1-1.1,1.1,1c.6.6,1.5.5,2.1,0l1-1.1,2.1,2-4.1,4.3-1.1-1c-.6-.6-1.5-.5-2.1,0l-1,1.1-1.1-1c-.6-.6-1.5-.5-2.1,0l-1,1.1-1.1-1c-.6-.6-1.5-.5-2.1,0l-1,1.1-1.1-1c-.6-.6-1.5-.5-2.1,0l-3.1,3.2-3.2-3.1c-.6-.6-1.5-.5-2.1,0l-1,1.1-1.1-1c-.6-.6-1.5-.5-2.1,0l-3.1,3.2-2.1-2,1-1.1c.6-.6.5-1.5,0-2.1-.6-.6-1.5-.5-2.1,0l-1,1.1-3.2-3.1c-.6-.6-1.5-.5-2.1,0-.6.6-.5,1.5,0,2.1l1.1,1-1,1.1c-.6.6-.5,1.5,0,2.1l6.4,6.2c.6.6,1.5.5,2.1,0l1-1.1,1.1,1c.6.6,1.5.5,2.1,0l1-1.1,1.1,1c.6.6,1.5.5,2.1,0l1-1.1,1.1,1c.6.6,1.5.5,2.1,0l1-1.1,3.2,3.1c.6.6,1.5.5,2.1,0l1-1.1,7.5,7.2c.6.6,1.5.5,2.1,0l1-1.1,5.3,5.1c.6.6,1.5.5,2.1,0l3.1-3.2,2.1,2-4.1,4.3-1.1-1c-.6-.6-1.5-.5-2.1,0l-1,1.1-3.2-3.1c-.6-.6-1.5-.5-2.1,0l-1,1.1-3.2-3.1c-.6-.6-1.5-.5-2.1,0s-.5,1.5,0,2.1l5.3,5.1-1,1.1c-.6.6-.5,1.5,0,2.1l8.5,8.2c.6.6,1.5.5,2.1,0l1-1.1,5.3,5.1c.6.6,1.5.5,2.1,0l3.1-3.2,4.3,4.1-2,2.1-1.1-1c-.6-.6-1.5-.5-2.1,0l-1,1.1-1.1-1c-.6-.6-1.5-.5-2.1,0l-1,1.1-3.2-3.1c-.6-.6-1.5-.5-2.1,0l-3.1,3.2-3.2-3.1c-.6-.6-1.5-.5-2.1,0l-1,1.1-7.5-7.2c-.6-.6-1.5-.5-2.1,0l-1,1.1-3.2-3.1c-.6-.6-1.5-.5-2.1,0l-1,1.1-1.1-1c-.6-.6-1.5-.5-2.1,0l-9.2,9.6-6.4-6.2,1-1.1c.6-.6.5-1.5,0-2.1l-1.1-1,9.2-9.6c.6-.6.5-1.5,0-2.1s-1.5-.5-2.1,0l-3.1,3.2-1.1-1c-.6-.6-1.5-.5-2.1,0l-9.2,9.6h0ZM19,62.7l-1.1-1c-.6-.6-1.5-.5-2.1,0l-6.2,6.4c-.6.6-.5,1.5,0,2.1l1.1,1-1,1.1c-.6.6-.5,1.5,0,2.1s1.5.5,2.1,0l7.2-7.4,1.1,1c.6.6,1.5.5,2.1,0l3.1-3.2,1.1,1c.6.6,1.5.5,2.1,0l2.1-2.1c.6-.6.5-1.5,0-2.1l-2.1-2c-.6-.6-1.5-.5-2.1,0l-1,1.1-1.1-1c-.6-.6-1.5-.5-2.1,0l-3.1,3.2h0ZM14.6,54.4l-1.1-1c-.6-.6-1.5-.5-2.1,0l-6.2,6.4c-.6.6-.5,1.5,0,2.1l1.1,1-3.1,3.2c-.6.6-.5,1.5,0,2.1s1.5.5,2.1,0l9.2-9.6,1.1,1c.6.6,1.5.5,2.1,0l2.1-2.1c.6-.6.5-1.5,0-2.1l-2.1-2c-.6-.6-1.5-.5-2.1,0l-1,1.1h0ZM31.7,75l-1.1-1c-.6-.6-1.5-.5-2.1,0l-6.2,6.4c-.6.6-.5,1.5,0,2.1l2.1,2.1c.6.6,1.5.5,2.1,0l9.2-9.6,1.1,1c.6.6,1.5.5,2.1,0,.6-.6.5-1.5,0-2.1l-2.1-2.1c-.6-.6-1.5-.5-2.1,0l-3.1,3.2h0ZM43.1,69.6c-.6-.6-1.5-.5-2.1,0s-.5,1.5,0,2.1l1.1,1-1,1.1c-.6.6-.5,1.5,0,2.1l4.3,4.1c.6.6,1.5.5,2.1,0l1-1.1,7.5,7.2c.6.6,1.5.5,2.1,0s.5-1.5,0-2.1c0,0-14.9-14.4-14.9-14.4Z"/>
  </g>
</svg>