<?xml version="1.0" encoding="UTF-8"?>
<svg id="Layer_2" data-name="Layer 2" xmlns="http://www.w3.org/2000/svg" viewBox="0 0 108.74 91.19">
  <g id="Layer_1-2" data-name="Layer 1">
    <path d="M97.95,79.54l-9.24-9.58c-.57-.59-1.5-.6-2.09-.04l-1.06,1.03-3.08-3.19c-.57-.59-1.5-.6-2.09-.04s-.6,1.5-.04,2.09l9.24,9.58-1.06,1.03c-.59.57-.6,1.5-.04,2.09l1.03,1.06-6.39,6.16-9.24-9.58c-.57-.59-1.5-.6-2.09-.04l-1.06,1.03-1.03-1.06c-.57-.59-1.5-.6-2.09-.04l-3.19,3.08-1.03-1.06c-.57-.59-1.5-.6-2.09-.04l-7.45,7.19-1.03-1.06c-.57-.59-1.5-.6-2.09-.04l-3.19,3.08-3.08-3.19c-.57-.59-1.5-.6-2.09-.04l-3.19,3.08-1.03-1.06c-.57-.59-1.5-.6-2.09-.04l-1.06,1.03-1.03-1.06c-.57-.59-1.5-.6-2.09-.04l-1.06,1.03-2.05-2.13,4.26-4.11,3.08,3.19c.57.59,1.5.6,2.09.04l5.32-5.13,1.03,1.06c.57.59,1.5.6,2.09.04l8.51-8.22c.59-.57.6-1.5.04-2.09l-1.03-1.06,5.32-5.13c.59-.57.6-1.5.04-2.09s-1.5-.6-2.09-.04l-3.19,3.08-1.03-1.06c-.57-.59-1.5-.6-2.09-.04l-3.19,3.08-1.03-1.06c-.57-.59-1.5-.6-2.09-.04l-1.06,1.03-4.11-4.26,2.13-2.05,3.08,3.19c.57.59,1.5.6,2.09.04l5.32-5.13,1.03,1.06c.57.59,1.5.6,2.09.04l7.45-7.19,1.03,1.06c.57.59,1.5.6,2.09.04l3.19-3.08,1.03,1.06c.57.59,1.5.6,2.09.04l1.06-1.03,1.03,1.06c.57.59,1.5.6,2.09.04l1.06-1.03,1.03,1.06c.57.59,1.5.6,2.09.04l1.06-1.03,1.03,1.06c.57.59,1.5.6,2.09.04l6.39-6.16c.59-.57.6-1.5.04-2.09l-1.03-1.06,1.06-1.03c.59-.57.6-1.5.04-2.09-.57-.59-1.5-.6-2.09-.04l-3.19,3.08-1.03-1.06c-.57-.59-1.5-.6-2.09-.04-.59.57-.6,1.5-.04,2.09l1.03,1.07-2.13,2.05-3.08-3.19c-.57-.59-1.5-.6-2.09-.04l-1.06,1.03-1.03-1.06c-.57-.59-1.5-.6-2.09-.04l-3.19,3.08-3.08-3.19c-.57-.59-1.5-.6-2.09-.04l-1.06,1.03-1.03-1.06c-.57-.59-1.5-.6-2.09-.04l-1.06,1.03-1.03-1.06c-.57-.59-1.5-.6-2.09-.04l-1.06,1.03-1.03-1.06c-.57-.59-1.5-.6-2.09-.04l-1.06,1.03-4.11-4.26,2.13-2.05,1.03,1.06c.57.59,1.5.6,2.09.04l1.06-1.03,1.03,1.06c.57.59,1.5.6,2.09.04l1.06-1.03,3.08,3.19c.57.59,1.5.6,2.09.04l1.06-1.03,1.03,1.06c.57.59,1.5.6,2.09.04l2.13-2.05c.59-.57.6-1.5.04-2.09l-1.03-1.06,3.19-3.08c.59-.57.6-1.5.04-2.09l-1.03-1.06,1.06-1.03c.59-.57.6-1.5.04-2.09l-1.03-1.06,2.13-2.05,1.03,1.06c.57.59,1.5.6,2.09.04l6.39-6.16c.59-.57.6-1.5.04-2.09l-1.03-1.06,4.26-4.11,1.03,1.06c.57.59,1.5.6,2.09.04l3.19-3.08,1.03,1.06c.57.59,1.5.6,2.09.04l6.39-6.16c.59-.57.6-1.5.04-2.09-.57-.59-1.5-.6-2.09-.04l-1.07,1.03-1.03-1.06c-.57-.59-1.5-.6-2.09-.04l-3.19,3.08-1.03-1.06c-.57-.59-1.5-.6-2.09-.04l-11.71,11.3-1.03-1.06c-.57-.59-1.5-.6-2.09-.04l-13.84,13.35-1.03-1.06c-.57-.59-1.5-.6-2.09-.04l-9.58,9.24-1.03-1.06c-.57-.59-1.5-.6-2.09-.04l-7.45,7.19-1.03-1.06c-.57-.59-1.5-.6-2.09-.04l-7.45,7.19-1.03-1.06c-.57-.59-1.5-.6-2.09-.04l-3.19,3.08-1.03-1.06c-.57-.59-1.5-.6-2.09-.04l-9.58,9.24-1.03-1.06c-.57-.59-1.5-.6-2.09-.04l-1.06,1.03-2.05-2.13,4.26-4.11,1.03,1.06c.57.59,1.5.6,2.09.04l7.45-7.19,1.03,1.06c.57.59,1.5.6,2.09.04l3.19-3.08,1.03,1.06c.57.59,1.5.6,2.09.04l7.45-7.19,1.03,1.06c.57.59,1.5.6,2.09.04l7.45-7.19,1.03,1.06c.57.59,1.5.6,2.09.04l9.58-9.24,1.03,1.06c.57.59,1.5.6,2.09.04l13.84-13.35,1.03,1.06c.57.59,1.5.6,2.09.04l11.71-11.3,1.03,1.06c.57.59,1.5.6,2.09.04l5.32-5.14,1.03,1.06c.57.59,1.5.6,2.09.04l1.06-1.03,6.16,6.39-3.19,3.08c-.59.57-.6,1.5-.04,2.09l1.03,1.06-8.51,8.22-1.03-1.06c-.57-.59-1.5-.6-2.09-.04l-14.9,14.38c-.59.57-.6,1.5-.04,2.09l1.03,1.06-3.19,3.08c-.59.57-.6,1.5-.04,2.09.57.59,1.5.6,2.09.04l1.07-1.03,1.03,1.06c.57.59,1.5.6,2.09.04l3.19-3.08,1.03,1.06c.57.59,1.5.6,2.09.04l1.06-1.03,1.03,1.06c.57.59,1.5.6,2.09.04l1.06-1.03,4.11,4.26-1.06,1.03c-.59.57-.6,1.5-.04,2.09l1.03,1.06-1.06,1.03c-.59.57-.6,1.5-.04,2.09.57.59,1.5.6,2.09.04l1.07-1.03,10.27,10.64-1.06,1.03c-.59.57-.6,1.5-.04,2.09l1.03,1.06-1.06,1.03c-.59.57-.6,1.5-.04,2.09l1.03,1.06-4.26,4.11-1.03-1.06c-.57-.59-1.5-.6-2.09-.04h0c-.59.57-.6,1.5-.04,2.09l1.03,1.07-4.26,4.11ZM89.88,62.66l-3.08-3.19c-.57-.59-1.5-.6-2.09-.04l-1.06,1.03-1.03-1.06c-.57-.59-1.5-.6-2.09-.04l-2.13,2.05c-.59.57-.6,1.5-.04,2.09l2.05,2.13c.57.59,1.5.6,2.09.04l1.06-1.03,3.08,3.19c.57.59,1.5.6,2.09.04l1.06-1.03,7.19,7.45c.57.59,1.5.6,2.09.04s.6-1.5.04-2.09l-1.03-1.06,1.06-1.03c.59-.57.6-1.5.04-2.09l-6.16-6.39c-.57-.59-1.5-.6-2.09-.04l-1.06,1.03ZM94.22,54.37l-1.03-1.06c-.57-.59-1.5-.6-2.09-.04l-2.13,2.05c-.59.57-.6,1.5-.04,2.09l2.05,2.13c.57.59,1.5.6,2.09.04l1.06-1.03,9.24,9.58c.57.59,1.5.6,2.09.04s.6-1.5.04-2.09l-3.08-3.19,1.06-1.03c.59-.57.6-1.5.04-2.09l-6.16-6.39c-.57-.59-1.5-.6-2.09-.04l-1.06,1.03ZM77.11,74.98l-3.08-3.19c-.57-.59-1.5-.6-2.09-.04l-2.13,2.05c-.59.57-.6,1.5-.04,2.09.57.59,1.5.6,2.09.04l1.07-1.03,9.24,9.58c.57.59,1.5.6,2.09.04l2.13-2.05c.59-.57.6-1.5.04-2.09l-6.16-6.39c-.57-.59-1.5-.6-2.09-.04l-1.06,1.03ZM50.81,83.93c-.59.57-.6,1.5-.04,2.09s1.5.6,2.09.04l7.45-7.19,1.03,1.06c.57.59,1.5.6,2.09.04l4.26-4.11c.59-.57.6-1.5.04-2.09l-1.03-1.06,1.06-1.03c.59-.57.6-1.5.04-2.09s-1.5-.6-2.09-.04l-14.9,14.38Z"/>
  </g>
</svg>