<?xml version="1.0" encoding="UTF-8"?>
<svg id="Layer_1" xmlns="http://www.w3.org/2000/svg" version="1.1" viewBox="0 0 24 24">
  <!-- Generator: Adobe Illustrator 29.4.0, SVG Export Plug-In . SVG Version: 2.1.0 Build 152)  -->
  <defs>
    <style>
      .st0 {
        fill: #fff;
      }
    </style>
  </defs>
  <path class="st0" d="M16.8,0H7.2C3.2,0,0,3.2,0,7.1v9.7c0,3.9,3.2,7.1,7.1,7.2h9.7c3.9,0,7.1-3.2,7.1-7.2V7.1C24,3.2,20.8,0,16.8,0ZM21.6,16.8c0,2.6-2.1,4.7-4.7,4.7H7.2c-2.6,0-4.7-2.1-4.7-4.7h0V7.1c0-2.6,2.1-4.7,4.7-4.7h9.7c2.6,0,4.7,2.1,4.7,4.7v9.7Z"/>
  <path class="st0" d="M12,5.8c-3.4,0-6.2,2.8-6.2,6.2s2.8,6.2,6.2,6.2,6.2-2.8,6.2-6.2-2.8-6.2-6.2-6.2ZM12,15.8c-2.1,0-3.8-1.7-3.8-3.8,0-2.1,1.7-3.8,3.8-3.8,2.1,0,3.8,1.7,3.8,3.8,0,2.1-1.7,3.8-3.8,3.8ZM18.2,4.4c.8,0,1.5.7,1.5,1.5,0,.8-.7,1.5-1.5,1.5-.8,0-1.5-.7-1.5-1.5,0-.8.6-1.5,1.5-1.5Z"/>
</svg>