<?xml version="1.0" encoding="UTF-8"?>
<svg id="Layer_2" data-name="Layer 2" xmlns="http://www.w3.org/2000/svg" viewBox="0 0 215.59 44.46">
  <g id="Layer_1-2" data-name="Layer 1">
    <g>
      <path d="M81.59,12.19v-4.06h2.03c1.12,0,2.03-.91,2.03-2.03s-.91-2.03-2.03-2.03h-2.03V0h8.12v8.12h-2.03c-1.12,0-2.03.91-2.03,2.03v2.03h-4.06Z"/>
      <path d="M207.51,44.46v-2.02c0-1.11-.9-2.02-2.02-2.02h-2.02v-6.07c0-1.11-.9-2.02-2.02-2.02h-4.05c-1.11,0-2.02.9-2.02,2.02v4.05c0,1.11.9,2.02,2.02,2.02h2.02v4.04h-12.13v-4.04h2.02c1.11,0,2.02-.9,2.02-2.02V10.1c0-1.11-.9-2.02-2.02-2.02h-2.02v-4.04h2.02c1.11,0,2.02-.9,2.02-2.02V0h4.04v26.28c0,1.11.9,2.02,2.02,2.02s2.02-.9,2.02-2.02v-2.02h2.02c1.11,0,2.02-.9,2.02-2.02v-6.07h12.13v4.04h-6.07c-1.11,0-2.02.9-2.02,2.02v2.02h-2.02c-1.11,0-2.02.9-2.02,2.02v4.05c0,1.11.9,2.02,2.02,2.02h2.02v6.07c0,1.11.9,2.02,2.02,2.02h6.07v4.04h-8.08Z"/>
      <path d="M173.13,44.46v-4.04h2.02c1.11,0,2.02-.9,2.02-2.02V10.1c0-1.11-.9-2.02-2.02-2.02h-2.02v-4.04h2.02c1.11,0,2.02-.9,2.02-2.02V0h4.04v38.4c0,1.11.9,2.02,2.02,2.02h2.02v4.04h-12.13Z"/>
      <path d="M169.06,40.42c-1.12,0-2.02-.9-2.02-2.02v-18.19h-2.02c-1.12,0-2.02-.9-2.02-2.02v-2.02h-12.13v2.02c0,1.12-.9,2.02-2.02,2.02h-2.02v4.04h4.04v-2.02c0-1.12.91-2.02,2.02-2.02h8.09c1.12,0,2.02.91,2.02,2.03s-.9,2.01-2.02,2.01h-2.02v2.03c0,1.11-.91,2.02-2.02,2.02h-6.07v2.02c0,1.11-.9,2.02-2.02,2.02h-2.02v12.12h12.13v-2.02c0-1.11.91-2.02,2.02-2.02s2.02.91,2.02,2.02v2.02h8.08v-4.04h-2.02ZM163,34.36c0,1.12-.9,2.02-2.02,2.02h-2.02v2.02c0,1.12-.91,2.02-2.02,2.02h-4.05c-1.11,0-2.02-.9-2.02-2.02v-4.05c0-1.11.91-2.01,2.02-2.01h6.07v-2.03c0-1.11.91-2.01,2.02-2.01s2.02.9,2.02,2.01v4.05Z"/>
      <path d="M132.66,44.46v-22.24c0-1.11-.9-2.02-2.02-2.02h-2.02v-4.04h2.02c1.11,0,2.02-.9,2.02-2.02v-6.07h4.04v6.07c0,1.11.9,2.02,2.02,2.02h6.07v4.04h-6.07c-1.11,0-2.02.9-2.02,2.02v16.18c0,1.11.9,2.02,2.02,2.02s2.02-.9,2.02-2.02v-2.02h4.04v4.04h-2.02c-1.11,0-2.02.9-2.02,2.02v2.02h-8.08Z"/>
      <path d="M89.24,44.46v-8.08h4.04v2.02c0,1.11.9,2.02,2.02,2.02h4.05c1.11,0,2.02-.9,2.02-2.02v-4.05c0-1.11-.9-2.02-2.02-2.02h-6.07v-2.02c0-1.11-.9-2.02-2.02-2.02h-2.02v-8.08h2.02c1.11,0,2.02-.9,2.02-2.02v-2.02h12.13v8.08h-4.04v-2.02c0-1.11-.9-2.02-2.02-2.02h-4.05c-1.11,0-2.02.9-2.02,2.02v4.05c0,1.11.9,2.02,2.02,2.02h6.07v2.02c0,1.11.9,2.02,2.02,2.02h2.02v8.08h-2.02c-1.11,0-2.02.9-2.02,2.02v2.02h-12.13Z"/>
      <path d="M66.11,44.46v-22.24c0-1.11-.9-2.02-2.02-2.02h-2.02v-4.04h2.02c1.11,0,2.02-.9,2.02-2.02v-6.07h4.04v6.07c0,1.11.9,2.02,2.02,2.02h6.07v4.04h-6.07c-1.11,0-2.02.9-2.02,2.02v16.18c0,1.11.9,2.02,2.02,2.02s2.02-.9,2.02-2.02v-2.02h4.04v4.04h-2.02c-1.11,0-2.02.9-2.02,2.02v2.02h-8.08Z"/>
      <path d="M44.88,28.3h14.15v-8.09h-2.02c-1.12,0-2.02-.9-2.02-2.02v-2.02h-12.13v2.02c0,1.12-.9,2.02-2.02,2.02h-2.02v20.21h2.02c1.12,0,2.02.91,2.02,2.02v2.02h12.13v-2.02c0-1.11.9-2.02,2.02-2.02h2.02v-4.04h-4.04v2.02c0,1.12-.91,2.02-2.02,2.02h-8.09c-1.12,0-2.02-.9-2.02-2.02v-8.09c0-1.11.9-2.01,2.02-2.01ZM42.86,22.23c0-1.12.9-2.02,2.02-2.02h8.09c1.11,0,2.02.91,2.02,2.03s-.91,2.01-2.02,2.01h-8.09c-1.12,0-2.02-.9-2.02-2.01h0Z"/>
      <path d="M0,44.46v-4.04h6.07c1.11,0,2.02-.9,2.02-2.02V6.06c0-1.11-.9-2.02-2.02-2.02H0V0h20.21v4.04h-6.07c-1.11,0-2.02.9-2.02,2.02v32.34c0,1.11.9,2.02,2.02,2.02h12.13c1.11,0,2.02-.9,2.02-2.02v-2.02h2.03c1.11,0,2.02-.9,2.02-2.02v-2.02h4.04v4.04h-2.02c-1.11,0-2.02.9-2.02,2.02v6.07H0Z"/>
    </g>
  </g>
</svg>