<?xml version="1.0" encoding="UTF-8"?>
<svg id="Layer_2" data-name="Layer 2" xmlns="http://www.w3.org/2000/svg" viewBox="0 0 600.44 56.87">
  <g id="Layer_1-2" data-name="Layer 1">
    <g>
      <g>
        <g>
          <path d="M114.6,44.68v-4.06h2.03c1.12,0,2.03-.91,2.03-2.03v-12.19c0-1.12-.91-2.03-2.03-2.03h-2.03v-4.06h2.03c1.12,0,2.03-.91,2.03-2.03v-2.03h4.06v22.34c0,1.12.91,2.03,2.03,2.03h2.03v4.06h-12.19ZM118.66,4.06V0h4.06v4.06h-4.06Z"/>
          <path d="M114.6,44.68v-4.06h2.03c1.12,0,2.03-.91,2.03-2.03v-12.19c0-1.12-.91-2.03-2.03-2.03h-2.03v-4.06h2.03c1.12,0,2.03-.91,2.03-2.03v-2.03h4.06v22.34c0,1.12.91,2.03,2.03,2.03h2.03v4.06h-12.19ZM118.66,4.06V0h4.06v4.06h-4.06Z"/>
        </g>
        <path d="M36.56,44.68v-4.06h6.09c.54,0,1.06-.21,1.44-.59.38-.38.59-.9.59-1.44V14.22c0-1.12-.91-2.03-2.03-2.03s-2.03.91-2.03,2.03v10.16h-2.03c-1.12,0-2.03.91-2.03,2.03v6.09h-2.03c-1.12,0-2.03.91-2.03,2.03v10.16h-4.06v-6.09c0-1.12-.91-2.03-2.03-2.03h-2.03v-2.03c0-1.12-.91-2.03-2.03-2.03h-2.03v-10.16c0-1.12-.91-2.03-2.03-2.03h-2.03v-6.09c0-1.12-.91-2.03-2.03-2.03s-2.03.91-2.03,2.03v24.37c0,1.12.91,2.03,2.03,2.03h6.09v4.06H0v-4.06h6.09c1.12,0,2.03-.91,2.03-2.03V6.09c0-1.12-.91-2.03-2.03-2.03H0V0h12.19v2.03c0,1.12.91,2.03,2.03,2.03h2.03v6.09c0,1.12.91,2.03,2.03,2.03h2.03v6.09c0,1.12.91,2.03,2.03,2.03h2.03v10.16c0,1.12.91,2.03,2.03,2.03h4.06c1.12,0,2.03-.91,2.03-2.03v-6.09h2.03c1.12,0,2.03-.91,2.03-2.03v-10.16h2.03c1.12,0,2.03-.91,2.03-2.03v-6.09h2.03c1.12,0,2.03-.91,2.03-2.03V0h12.19v4.06h-6.09c-1.12,0-2.03.91-2.03,2.03v32.5c0,1.12.91,2.03,2.03,2.03h6.09v4.06h-20.31Z"/>
        <path d="M75.09,44.68v-2.03c0-1.12-.91-2.03-2.03-2.03s-2.03.91-2.03,2.03v2.03h-8.12v-2.03c0-1.12-.91-2.03-2.03-2.03h-2.03v-18.28c0-1.12-.91-2.03-2.03-2.03h-2.03v-4.06h8.12v22.34c0,1.12.91,2.03,2.03,2.03h4.06c1.12,0,2.03-.91,2.03-2.03v-2.03h2.03c1.12,0,2.03-.91,2.03-2.03v-12.19c0-1.12-.91-2.03-2.03-2.03h-2.03v-4.06h8.12v18.28c0,1.12.91,2.03,2.03,2.03h2.03v4.06h-2.03c-1.12,0-2.03.91-2.03,2.03v2.03h-4.06Z"/>
        <path d="M84.19,44.68v-4.06h2.03c1.12,0,2.03-.91,2.03-2.03V10.15c0-1.12-.91-2.03-2.03-2.03h-2.03v-4.06h2.03c1.12,0,2.03-.91,2.03-2.03V0h4.06v38.59c0,1.12.91,2.03,2.03,2.03h2.03v4.06h-12.19Z"/>
        <path d="M99.89,44.68v-22.34c0-1.12-.91-2.03-2.03-2.03h-2.03v-4.06h2.03c1.12,0,2.03-.91,2.03-2.03v-6.09h4.06v6.09c0,1.12.91,2.03,2.03,2.03h6.09v4.06h-6.09c-1.12,0-2.03.91-2.03,2.03v16.25c0,1.12.91,2.03,2.03,2.03s2.03-.91,2.03-2.03v-2.03h4.06v4.06h-2.03c-1.12,0-2.03.91-2.03,2.03v2.03h-8.12Z"/>
        <path d="M148.08,44.68v-2.03c0-1.12-.91-2.03-2.03-2.03s-2.03.91-2.03,2.03v2.03h-8.12v-2.03c0-1.12-.91-2.03-2.03-2.03h-2.03v-2.03c0-1.12-.91-2.03-2.03-2.03h-2.03v-12.19h2.03c1.12,0,2.03-.91,2.03-2.03v-2.03h2.03c1.12,0,2.03-.91,2.03-2.03v-2.03h8.12v2.03c0,1.12.91,2.03,2.03,2.03s2.03-.91,2.03-2.03v-8.13c0-1.12-.91-2.03-2.03-2.03h-2.03v-4.06h2.03c1.12,0,2.03-.91,2.03-2.03V0h4.06v34.53c0,1.12.91,2.03,2.03,2.03h2.03v4.06h-2.03c-1.12,0-2.03.91-2.03,2.03v2.03h-4.06ZM133.86,24.37c-1.12,0-2.03.91-2.03,2.03v8.13c0,1.12.91,2.03,2.03,2.03h2.03v2.03c0,1.12.91,2.03,2.03,2.03h4.06c1.12,0,2.03-.91,2.03-2.03v-2.03h2.03c1.12,0,2.03-.91,2.03-2.03v-8.13c0-1.12-.91-2.03-2.03-2.03h-2.03v-2.03c0-1.12-.91-2.03-2.03-2.03h-4.06c-1.12,0-2.03.91-2.03,2.03v2.03h-2.03Z"/>
        <path d="M158.72,44.68v-4.06h2.03c1.12,0,2.03-.91,2.03-2.03v-12.19c0-1.12-.91-2.03-2.03-2.03h-2.03v-4.06h2.03c1.12,0,2.03-.91,2.03-2.03v-2.03h4.06v22.34c0,1.12.91,2.03,2.03,2.03h2.03v4.06h-12.19ZM162.79,4.06V0h4.06v4.06h-4.06Z"/>
        <path d="M173.43,44.68v-8.12h4.06v2.03c0,1.12.91,2.03,2.03,2.03h4.06c1.12,0,2.03-.91,2.03-2.03v-4.06c0-1.12-.91-2.03-2.03-2.03h-6.09v-2.03c0-1.12-.91-2.03-2.03-2.03h-2.03v-8.12h2.03c1.12,0,2.03-.91,2.03-2.03v-2.03h12.19v8.12h-4.06v-2.03c0-1.12-.91-2.03-2.03-2.03h-4.06c-1.12,0-2.03.91-2.03,2.03v4.06c0,1.12.91,2.03,2.03,2.03h6.09v2.03c0,1.12.91,2.03,2.03,2.03h2.03v8.12h-2.03c-1.12,0-2.03.91-2.03,2.03v2.03h-12.19Z"/>
        <path d="M196.27,44.68v-2.03c0-1.12-.91-2.03-2.03-2.03h-2.03v-20.31h2.03c1.12,0,2.03-.91,2.03-2.03v-2.03h12.19v2.03c0,1.12.91,2.03,2.03,2.03h2.03v4.06h-4.06v-2.03c0-1.12-.91-2.03-2.03-2.03h-8.13c-1.12,0-2.03.91-2.03,2.03v16.25c0,1.12.91,2.03,2.03,2.03h8.13c1.12,0,2.03-.91,2.03-2.03v-2.03h4.06v4.06h-2.03c-1.12,0-2.03.91-2.03,2.03v2.03h-12.19Z"/>
        <path d="M216.58,44.68v-4.06h2.03c1.12,0,2.03-.91,2.03-2.03v-12.19c0-1.12-.91-2.03-2.03-2.03h-2.03v-4.06h2.03c1.12,0,2.03-.91,2.03-2.03v-2.03h4.06v22.34c0,1.12.91,2.03,2.03,2.03h2.03v4.06h-12.19ZM220.64,4.06V0h4.06v4.06h-4.06Z"/>
        <path d="M228.21,56.87v-4.06h2.03c1.12,0,2.03-.91,2.03-2.03v-24.37c0-1.12-.91-2.03-2.03-2.03h-2.03v-4.06h2.03c1.12,0,2.03-.91,2.03-2.03v-2.03h4.06v2.03c0,1.12.91,2.03,2.03,2.03s2.03-.91,2.03-2.03v-2.03h8.12v2.03c0,1.12.91,2.03,2.03,2.03h2.03v2.03c0,1.12.91,2.03,2.03,2.03h2.03v12.19h-2.03c-1.12,0-2.03.91-2.03,2.03v2.03h-2.03c-1.12,0-2.03.91-2.03,2.03v2.03h-8.12v-2.03c0-1.12-.91-2.03-2.03-2.03s-2.03.91-2.03,2.03v8.13c0,1.12.91,2.03,2.03,2.03h2.03v4.06h-12.19ZM238.36,24.37c-1.12,0-2.03.91-2.03,2.03v8.13c0,1.12.91,2.03,2.03,2.03h2.03v2.03c0,1.12.91,2.03,2.03,2.03h4.06c1.12,0,2.03-.91,2.03-2.03v-2.03h2.03c1.12,0,2.03-.91,2.03-2.03v-8.13c0-1.12-.91-2.03-2.03-2.03h-2.03v-2.03c0-1.12-.91-2.03-2.03-2.03h-4.06c-1.12,0-2.03.91-2.03,2.03v2.03h-2.03Z"/>
        <path d="M256.09,44.68v-4.06h2.03c1.12,0,2.03-.91,2.03-2.03V10.15c0-1.12-.91-2.03-2.03-2.03h-2.03v-4.06h2.03c1.12,0,2.03-.91,2.03-2.03V0h4.06v38.59c0,1.12.91,2.03,2.03,2.03h2.03v4.06h-12.19Z"/>
        <path d="M270.8,44.68v-4.06h2.03c1.12,0,2.03-.91,2.03-2.03v-12.19c0-1.12-.91-2.03-2.03-2.03h-2.03v-4.06h2.03c1.12,0,2.03-.91,2.03-2.03v-2.03h4.06v22.34c0,1.12.91,2.03,2.03,2.03h2.03v4.06h-12.19ZM274.86,4.06V0h4.06v4.06h-4.06Z"/>
        <path d="M301.76,44.68v-4.06h2.03c1.12,0,2.03-.91,2.03-2.03v-16.25c0-1.12-.91-2.03-2.03-2.03h-4.06c-1.12,0-2.03.91-2.03,2.03v2.03h-2.03c-1.12,0-2.03.91-2.03,2.03v12.19c0,1.12.91,2.03,2.03,2.03h2.03v4.06h-12.19v-4.06h2.03c1.12,0,2.03-.91,2.03-2.03v-12.19c0-1.12-.91-2.03-2.03-2.03h-2.03v-4.06h2.03c1.12,0,2.03-.91,2.03-2.03v-2.03h4.06v2.03c0,1.12.91,2.03,2.03,2.03s2.03-.91,2.03-2.03v-2.03h8.12v2.03c0,1.12.91,2.03,2.03,2.03h2.03v18.28c0,1.12.91,2.03,2.03,2.03h2.03v4.06h-12.19Z"/>
        <path d="M332.71,44.68v-2.03c0-1.12-.91-2.03-2.03-2.03h0c-1.12,0-2.03.91-2.03,2.03v2.03h-12.19v-12.19h2.03c1.12,0,2.03-.91,2.03-2.03v-2.03h6.09c1.12,0,2.03-.91,2.03-2.03v-2.03h2.03c1.12,0,2.03-.91,2.03-2.03s-.91-2.03-2.03-2.03h-8.13c-1.12,0-2.03.91-2.03,2.03v2.03h-4.06v-4.06h2.03c1.12,0,2.03-.91,2.03-2.03v-2.03h12.19v2.03c0,1.12.91,2.03,2.03,2.03h2.03v18.28c0,1.12.91,2.03,2.03,2.03h2.03v4.06h-8.12ZM322.56,32.5c-1.12,0-2.03.91-2.03,2.03v4.06c0,1.12.91,2.03,2.03,2.03h4.06c1.12,0,2.03-.91,2.03-2.03v-2.03h2.03c.54,0,1.06-.21,1.44-.59.38-.38.59-.9.59-1.44v-4.06c0-1.12-.91-2.03-2.03-2.03-1.12,0-2.03.91-2.03,2.03v2.03h-6.09Z"/>
        <path d="M343.36,44.68v-4.06h2.03c1.12,0,2.03-.91,2.03-2.03v-12.19c0-1.12-.91-2.03-2.03-2.03h-2.03v-4.06h2.03c1.12,0,2.03-.91,2.03-2.03v-2.03h4.06v2.03c0,1.12.91,2.03,2.03,2.03h0c1.12,0,2.03-.91,2.03-2.03v-2.03h8.12v4.06h-6.09c-1.12,0-2.03.91-2.03,2.03v2.03h-2.03c-1.12,0-2.03.91-2.03,2.03v12.19c0,1.12.91,2.03,2.03,2.03h2.03v4.06h-12.19Z"/>
        <path d="M366.19,56.87v-4.06h6.09c1.12,0,2.03-.91,2.03-2.03v-2.03h2.03c1.12,0,2.03-.91,2.03-2.03v-8.13c0-1.12-.91-2.03-2.03-2.03h-2.03v-6.09c0-1.12-.91-2.03-2.03-2.03h-2.03v-6.09c0-1.12-.91-2.03-2.03-2.03h-2.03v-4.06h12.19v4.06h-2.03c-1.12,0-2.03.91-2.03,2.03v4.06c0,1.12.91,2.03,2.03,2.03h2.03v6.09c0,1.12.91,2.03,2.03,2.03s2.03-.91,2.03-2.03v-6.09h2.03c1.12,0,2.03-.91,2.03-2.03v-4.06c0-1.12-.91-2.03-2.03-2.03h-2.03v-4.06h12.19v4.06h-2.03c-1.12,0-2.03.91-2.03,2.03v6.09h-2.03c-1.12,0-2.03.91-2.03,2.03v10.16h-2.03c-1.12,0-2.03.91-2.03,2.03v6.09h-2.03c-1.12,0-2.03.91-2.03,2.03v2.03h-2.03c-1.12,0-2.03.91-2.03,2.03v2.03h-8.12Z"/>
      </g>
      <g>
        <path d="M433.74,44.68v-2.03c0-1.12-.91-2.03-2.03-2.03s-2.03.91-2.03,2.03v2.03h-8.12v-2.03c0-1.12-.91-2.03-2.03-2.03h-2.03v-2.03c0-1.12-.91-2.03-2.03-2.03h-2.03v-12.19h2.03c1.12,0,2.03-.91,2.03-2.03v-2.03h2.03c1.12,0,2.03-.91,2.03-2.03v-2.03h8.12v2.03c0,1.12.91,2.03,2.03,2.03s2.03-.91,2.03-2.03v-8.13c0-1.12-.91-2.03-2.03-2.03h-2.03v-4.06h2.03c1.12,0,2.03-.91,2.03-2.03V0h4.06v34.53c0,1.12.91,2.03,2.03,2.03h2.03v4.06h-2.03c-1.12,0-2.03.91-2.03,2.03v2.03h-4.06ZM419.52,24.37c-1.12,0-2.03.91-2.03,2.03v8.13c0,1.12.91,2.03,2.03,2.03h2.03v2.03c0,1.12.91,2.03,2.03,2.03h4.06c1.12,0,2.03-.91,2.03-2.03v-2.03h2.03c1.12,0,2.03-.91,2.03-2.03v-8.13c0-1.12-.91-2.03-2.03-2.03h-2.03v-2.03c0-1.12-.91-2.03-2.03-2.03h-4.06c-1.12,0-2.03.91-2.03,2.03v2.03h-2.03Z"/>
        <path d="M448.45,44.68v-2.03c0-1.12-.91-2.03-2.03-2.03h-2.03v-20.31h2.03c1.12,0,2.03-.91,2.03-2.03v-2.03h12.19v2.03c0,1.12.91,2.03,2.03,2.03h2.03v8.12h-14.22c-1.12,0-2.03.91-2.03,2.03v8.13c0,1.12.91,2.03,2.03,2.03h8.13c1.12,0,2.03-.91,2.03-2.03v-2.03h4.06v4.06h-2.03c-1.12,0-2.03.91-2.03,2.03v2.03h-12.19ZM450.48,20.31c-1.12,0-2.03.91-2.03,2.03h0c0,1.12.91,2.03,2.03,2.03h8.13c1.12,0,2.03-.91,2.03-2.03s-.91-2.03-2.03-2.03h-8.13Z"/>
        <path d="M467.22,44.68v-8.12h4.06v2.03c0,1.12.91,2.03,2.03,2.03h4.06c1.12,0,2.03-.91,2.03-2.03v-4.06c0-1.12-.91-2.03-2.03-2.03h-6.09v-2.03c0-1.12-.91-2.03-2.03-2.03h-2.03v-8.12h2.03c1.12,0,2.03-.91,2.03-2.03v-2.03h12.19v8.12h-4.06v-2.03c0-1.12-.91-2.03-2.03-2.03h-4.06c-1.12,0-2.03.91-2.03,2.03v4.06c0,1.12.91,2.03,2.03,2.03h6.09v2.03c0,1.12.91,2.03,2.03,2.03h2.03v8.12h-2.03c-1.12,0-2.03.91-2.03,2.03v2.03h-12.19Z"/>
        <path d="M485.99,44.68v-4.06h2.03c1.12,0,2.03-.91,2.03-2.03v-12.19c0-1.12-.91-2.03-2.03-2.03h-2.03v-4.06h2.03c1.12,0,2.03-.91,2.03-2.03v-2.03h4.06v22.34c0,1.12.91,2.03,2.03,2.03h2.03v4.06h-12.19ZM490.06,4.06V0h4.06v4.06h-4.06Z"/>
        <path d="M502.24,56.87v-2.03c0-1.12-.91-2.03-2.03-2.03h-2.03v-8.12h2.03c1.12,0,2.03-.91,2.03-2.03v-6.09h2.03c1.12,0,2.03-.91,2.03-2.03s-.91-2.03-2.03-2.03h-2.03v-12.19h2.03c1.12,0,2.03-.91,2.03-2.03v-2.03h20.31v4.06h-2.03c-1.12,0-2.03.91-2.03,2.03v10.16h-2.03c-1.12,0-2.03.91-2.03,2.03v2.03h-10.16c-1.12,0-2.03.91-2.03,2.03s.91,2.03,2.03,2.03h14.22v2.03c0,1.12.91,2.03,2.03,2.03h2.03v8.12h-2.03c-1.12,0-2.03.91-2.03,2.03v2.03h-20.31ZM504.27,44.68c-1.12,0-2.03.91-2.03,2.03v4.06c0,1.12.91,2.03,2.03,2.03h16.25c1.12,0,2.03-.91,2.03-2.03v-4.06c0-1.12-.91-2.03-2.03-2.03h-16.25ZM508.33,20.31c-1.12,0-2.03.91-2.03,2.03v8.13c0,1.12.91,2.03,2.03,2.03h8.13c1.12,0,2.03-.91,2.03-2.03v-8.13c0-1.12-.91-2.03-2.03-2.03h-8.13Z"/>
        <path d="M543.85,44.68v-4.06h2.03c1.12,0,2.03-.91,2.03-2.03v-16.25c0-1.12-.91-2.03-2.03-2.03h-4.06c-1.12,0-2.03.91-2.03,2.03v2.03h-2.03c-1.12,0-2.03.91-2.03,2.03v12.19c0,1.12.91,2.03,2.03,2.03h2.03v4.06h-12.19v-4.06h2.03c1.12,0,2.03-.91,2.03-2.03v-12.19c0-1.12-.91-2.03-2.03-2.03h-2.03v-4.06h2.03c1.12,0,2.03-.91,2.03-2.03v-2.03h4.06v2.03c0,1.12.91,2.03,2.03,2.03h0c1.12,0,2.03-.91,2.03-2.03v-2.03h8.12v2.03c0,1.12.91,2.03,2.03,2.03h2.03v18.28c0,1.12.91,2.03,2.03,2.03h2.03v4.06h-12.19Z"/>
        <path d="M561.36,44.68v-2.03c0-1.12-.91-2.03-2.03-2.03h-2.03v-20.31h2.03c1.12,0,2.03-.91,2.03-2.03v-2.03h12.19v2.03c0,1.12.91,2.03,2.03,2.03h2.03v8.12h-14.22c-1.12,0-2.03.91-2.03,2.03v8.13c0,1.12.91,2.03,2.03,2.03h8.13c1.12,0,2.03-.91,2.03-2.03v-2.03h4.06v4.06h-2.03c-1.12,0-2.03.91-2.03,2.03v2.03h-12.19ZM563.39,20.31c-1.12,0-2.03.91-2.03,2.03h0c0,1.12.91,2.03,2.03,2.03h8.13c1.12,0,2.03-.91,2.03-2.03s-.91-2.03-2.03-2.03h-8.13Z"/>
        <path d="M580.13,44.68v-4.06h2.03c1.12,0,2.03-.91,2.03-2.03v-12.19c0-1.12-.91-2.03-2.03-2.03h-2.03v-4.06h2.03c1.12,0,2.03-.91,2.03-2.03v-2.03h4.06v2.03c0,1.12.91,2.03,2.03,2.03s2.03-.91,2.03-2.03v-2.03h8.12v4.06h-6.09c-1.12,0-2.03.91-2.03,2.03v2.03h-2.03c-1.12,0-2.03.91-2.03,2.03v12.19c0,1.12.91,2.03,2.03,2.03h2.03v4.06h-12.19Z"/>
      </g>
    </g>
  </g>
</svg>