<?xml version="1.0" encoding="UTF-8"?>
<svg id="Layer_2" data-name="Layer 2" xmlns="http://www.w3.org/2000/svg" viewBox="0 0 428.69 402.6">
  <g id="Layer_1-2" data-name="Layer 1">
    <path d="M100.65,402.6v-1.86c0-1.03-.83-1.86-1.86-1.86h-1.86s0-72.69,0-72.69c0-1.03-.83-1.86-1.86-1.86h-5.59s0-1.86,0-1.86c0-1.03-.83-1.86-1.86-1.86h-5.59s0-1.86,0-1.86c0-1.03-.83-1.86-1.86-1.86h-5.59s0-1.86,0-1.86c0-1.03-.83-1.86-1.86-1.86h-5.59s0-1.86,0-1.86c0-1.03-.83-1.86-1.86-1.86h-5.59s0-1.86,0-1.86c0-1.03-.83-1.86-1.86-1.86h-5.59s0-1.86,0-1.86c0-1.03-.83-1.86-1.86-1.86h-5.59s0-1.86,0-1.86c0-1.03-.83-1.86-1.86-1.86h-5.59s0-1.86,0-1.86c0-1.03-.83-1.86-1.86-1.86h-5.59s0-1.86,0-1.86c0-1.03-.83-1.86-1.86-1.86h-5.59s0-1.86,0-1.86c0-1.03-.83-1.86-1.86-1.86s-1.86.83-1.86,1.86v68.96s-11.18,0-11.18,0v-1.86c0-1.03-.83-1.86-1.86-1.86h-1.86s0-1.86,0-1.86c0-1.03-.83-1.86-1.86-1.86H0s0-201.3,0-201.3h1.86c1.03,0,1.86-.83,1.86-1.86v-1.86s7.46,0,7.46,0v1.86c0,1.03.83,1.86,1.86,1.86h5.59s0,1.86,0,1.86c0,1.03.83,1.86,1.86,1.86h5.59s0,1.86,0,1.86c0,1.03.83,1.86,1.86,1.86h3.73c1.03,0,1.86-.83,1.86-1.86v-1.86s1.86,0,1.86,0c1.03,0,1.86-.83,1.86-1.86v-1.86s5.59,0,5.59,0c1.03,0,1.86-.83,1.86-1.86s-.83-1.86-1.86-1.86h-1.86s0-1.86,0-1.86c0-1.03-.83-1.86-1.86-1.86h-1.86s0-1.86,0-1.86c0-1.03-.83-1.86-1.86-1.86h-1.86s0-1.86,0-1.86c0-1.03-.83-1.86-1.86-1.86h-1.86s0-5.59,0-5.59c0-1.03-.83-1.86-1.86-1.86h-1.86s0-5.59,0-5.59c0-1.03-.83-1.86-1.86-1.86h-1.86s0-33.55,0-33.55h1.86c1.03,0,1.86-.83,1.86-1.86v-9.32s1.86,0,1.86,0c1.03,0,1.86-.83,1.86-1.86v-5.59s1.86,0,1.86,0c1.03,0,1.86-.83,1.86-1.86v-1.86s1.86,0,1.86,0c1.03,0,1.86-.83,1.86-1.86v-1.86s1.86,0,1.86,0c1.03,0,1.86-.83,1.86-1.86v-1.86s5.59,0,5.59,0c1.03,0,1.86-.83,1.86-1.86v-1.86s5.59,0,5.59,0c1.03,0,1.86-.83,1.86-1.86v-1.86s9.32,0,9.32,0c1.03,0,1.86-.83,1.86-1.86v-1.86s44.73,0,44.73,0v1.86c0,1.03.83,1.86,1.86,1.86h9.32s0,1.86,0,1.86c0,1.03.83,1.86,1.86,1.86h1.86s0,1.86,0,1.86c0,1.03.83,1.86,1.86,1.86h5.59s0,1.86,0,1.86c0,1.03.83,1.86,1.86,1.86h5.59s0,1.86,0,1.86c0,1.03.83,1.86,1.86,1.86h1.86s0,1.86,0,1.86c0,1.03.83,1.86,1.86,1.86h1.86s0,1.86,0,1.86c0,1.03.83,1.86,1.86,1.86h1.86s0,1.86,0,1.86c0,1.03.83,1.86,1.86,1.86h1.86s0,1.86,0,1.86c0,1.03.83,1.86,1.86,1.86h1.86s0,5.59,0,5.59c0,1.03.83,1.86,1.86,1.86h1.86s0,5.59,0,5.59c0,1.03.83,1.86,1.86,1.86h1.86s0,37.28,0,37.28h-1.86c-1.03,0-1.86.83-1.86,1.86v5.59s-1.86,0-1.86,0c-1.03,0-1.86.83-1.86,1.86,0,1.03.83,1.86,1.86,1.86h1.86s0,1.86,0,1.86c0,1.03.83,1.86,1.86,1.86h5.59s0,1.86,0,1.86c0,1.03.83,1.86,1.86,1.86h5.59s0,1.86,0,1.86c0,1.03.83,1.86,1.86,1.86h5.59s0,1.86,0,1.86c0,1.03.83,1.86,1.86,1.86h5.59s0,1.86,0,1.86c0,1.03.83,1.86,1.86,1.86h5.59s0,1.86,0,1.86c0,1.03.83,1.86,1.86,1.86h5.59s0,1.86,0,1.86c0,1.03.83,1.86,1.86,1.86h5.59s0,1.86,0,1.86c0,1.03.83,1.86,1.86,1.86h5.59s0,1.86,0,1.86c0,1.03.83,1.86,1.86,1.86h5.59s0,1.86,0,1.86c0,1.03.83,1.86,1.86,1.86h1.86s0,11.18,0,11.18h-1.86c-1.03,0-1.86.83-1.86,1.86v1.86s-5.59,0-5.59,0c-1.03,0-1.86.83-1.86,1.86v1.86s-5.59,0-5.59,0c-1.03,0-1.86.83-1.86,1.86v1.86s-5.59,0-5.59,0c-1.03,0-1.86.83-1.86,1.86s.83,1.86,1.86,1.86h1.86s0,1.86,0,1.86c0,1.03.83,1.86,1.86,1.86h11.18c1.03,0,1.86-.83,1.86-1.86v-1.86s1.86,0,1.86,0c1.03,0,1.86-.83,1.86-1.86v-1.86s1.86,0,1.86,0c1.03,0,1.86-.83,1.86-1.86v-1.86s1.86,0,1.86,0c1.03,0,1.86-.83,1.86-1.86v-1.86s9.32,0,9.32,0c1.03,0,1.86-.83,1.86-1.86v-1.86s11.18,0,11.18,0v1.86c0,1.03.83,1.86,1.86,1.86h5.59s0,1.86,0,1.86c0,1.03.83,1.86,1.86,1.86h5.59s0,1.86,0,1.86c0,1.03.83,1.86,1.86,1.86h1.86s0,14.91,0,14.91h-1.86c-1.03,0-1.86.83-1.86,1.86v9.32s-5.59,0-5.59,0c-1.03,0-1.86.83-1.86,1.86v1.86s-16.78,0-16.78,0c-1.03,0-1.86.83-1.86,1.86v1.86s-5.59,0-5.59,0c-1.03,0-1.86.83-1.86,1.86v1.86s-5.59,0-5.59,0c-1.03,0-1.86.83-1.86,1.86v3.73c0,1.03.83,1.86,1.86,1.86h5.59s0,1.86,0,1.86c0,1.03.83,1.86,1.86,1.86h5.59s0,1.86,0,1.86c0,1.03.83,1.86,1.86,1.86h5.59s0,1.86,0,1.86c0,1.03.83,1.86,1.86,1.86h1.86s0,98.79,0,98.79c0,1.03.83,1.86,1.86,1.86h3.73c1.03,0,1.86-.83,1.86-1.86v-1.86s5.59,0,5.59,0c1.03,0,1.86-.83,1.86-1.86v-1.86s5.59,0,5.59,0c1.03,0,1.86-.83,1.86-1.86v-1.86s5.59,0,5.59,0c1.03,0,1.86-.83,1.86-1.86v-1.86s5.59,0,5.59,0c1.03,0,1.86-.83,1.86-1.86v-1.86s5.59,0,5.59,0c1.03,0,1.86-.83,1.86-1.86v-1.86s5.59,0,5.59,0c1.03,0,1.86-.83,1.86-1.86v-1.86s5.59,0,5.59,0c1.03,0,1.86-.83,1.86-1.86v-1.86s5.59,0,5.59,0c1.03,0,1.86-.83,1.86-1.86v-1.86s5.59,0,5.59,0c1.03,0,1.86-.83,1.86-1.86v-1.86s5.59,0,5.59,0c1.03,0,1.86-.83,1.86-1.86v-1.86s5.59,0,5.59,0c1.03,0,1.86-.83,1.86-1.86v-1.86s5.59,0,5.59,0c1.03,0,1.86-.83,1.86-1.86v-1.86s5.59,0,5.59,0c1.03,0,1.86-.83,1.86-1.86v-1.86s5.59,0,5.59,0c1.03,0,1.86-.83,1.86-1.86v-1.86s5.59,0,5.59,0c1.03,0,1.86-.83,1.86-1.86v-1.86s5.59,0,5.59,0c1.03,0,1.86-.83,1.86-1.86v-1.86s5.59,0,5.59,0c1.03,0,1.86-.83,1.86-1.86v-1.86s5.59,0,5.59,0c1.03,0,1.86-.83,1.86-1.86v-1.86s5.59,0,5.59,0c1.03,0,1.86-.83,1.86-1.86v-1.86s5.59,0,5.59,0c1.03,0,1.86-.83,1.86-1.86v-1.86s5.59,0,5.59,0c1.03,0,1.86-.83,1.86-1.86v-104.38c0-1.03-.83-1.86-1.86-1.86h-5.59s0-1.86,0-1.86c0-1.03-.83-1.86-1.86-1.86h-5.59s0-1.86,0-1.86c0-1.03-.83-1.86-1.86-1.86h-5.59s0-1.86,0-1.86c0-1.03-.83-1.86-1.86-1.86h-5.59s0-1.86,0-1.86c0-1.03-.83-1.86-1.86-1.86h-5.59s0-1.86,0-1.86c0-1.03-.83-1.86-1.86-1.86h-5.59s0-1.86,0-1.86c0-1.03-.83-1.86-1.86-1.86h-5.59s0-1.86,0-1.86c0-1.03-.83-1.86-1.86-1.86h-11.18c-1.03,0-1.86.83-1.86,1.86v1.86s-5.59,0-5.59,0c-1.03,0-1.86.83-1.86,1.86v1.86s-5.59,0-5.59,0c-1.03,0-1.86.83-1.86,1.86v1.86s-5.59,0-5.59,0c-1.03,0-1.86.83-1.86,1.86v1.86s-5.59,0-5.59,0c-1.03,0-1.86.83-1.86,1.86v1.86s-5.59,0-5.59,0c-1.03,0-1.86.83-1.86,1.86v1.86s-5.59,0-5.59,0c-1.03,0-1.86.83-1.86,1.86v1.86s-5.59,0-5.59,0c-1.03,0-1.86.83-1.86,1.86v1.86s-5.59,0-5.59,0c-1.03,0-1.86.83-1.86,1.86v1.86s-5.59,0-5.59,0c-1.03,0-1.86.83-1.86,1.86v1.86s-5.59,0-5.59,0c-1.03,0-1.86.83-1.86,1.86v1.86s-14.91,0-14.91,0v-1.86c0-1.03-.83-1.86-1.86-1.86h-5.59s0-1.86,0-1.86c0-1.03-.83-1.86-1.86-1.86h-9.32s0-1.86,0-1.86c0-1.03-.83-1.86-1.86-1.86h-5.59s0-1.86,0-1.86c0-1.03-.83-1.86-1.86-1.86h-5.59s0-1.86,0-1.86c0-1.03-.83-1.86-1.86-1.86h-5.59s0-1.86,0-1.86c0-1.03-.83-1.86-1.86-1.86h-5.59s0-1.86,0-1.86c0-1.03-.83-1.86-1.86-1.86h-5.59s0-1.86,0-1.86c0-1.03-.83-1.86-1.86-1.86h-5.59s0-1.86,0-1.86c0-1.03-.83-1.86-1.86-1.86h-5.59s0-1.86,0-1.86c0-1.03-.83-1.86-1.86-1.86h-5.59s0-1.86,0-1.86c0-1.03-.83-1.86-1.86-1.86h-5.59s0-1.86,0-1.86c0-1.03-.83-1.86-1.86-1.86h-5.59s0-1.86,0-1.86c0-1.03-.83-1.86-1.86-1.86h-5.59s0-3.73,0-3.73h1.86c1.03,0,1.86-.83,1.86-1.86v-1.86s5.59,0,5.59,0c1.03,0,1.86-.83,1.86-1.86v-1.86s5.59,0,5.59,0c1.03,0,1.86-.83,1.86-1.86s-.83-1.86-1.86-1.86h-5.59s0-1.86,0-1.86c0-1.03-.83-1.86-1.86-1.86h-5.59s0-104.38,0-104.38h5.59c1.03,0,1.86-.83,1.86-1.86v-1.86s5.59,0,5.59,0c1.03,0,1.86-.83,1.86-1.86v-1.86s5.59,0,5.59,0c1.03,0,1.86-.83,1.86-1.86v-1.86s5.59,0,5.59,0c1.03,0,1.86-.83,1.86-1.86V0s18.64,0,18.64,0v1.86c0,1.03.83,1.86,1.86,1.86h16.78s0,1.86,0,1.86c0,1.03.83,1.86,1.86,1.86h39.14s0,1.86,0,1.86c0,1.03.83,1.86,1.86,1.86h5.59s0,1.86,0,1.86c0,1.03.83,1.86,1.86,1.86h5.59s0,1.86,0,1.86c0,1.03.83,1.86,1.86,1.86h5.59s0,1.86,0,1.86c0,1.03.83,1.86,1.86,1.86h5.59s0,1.86,0,1.86c0,1.03.83,1.86,1.86,1.86h5.59s0,1.86,0,1.86c0,1.03.83,1.86,1.86,1.86h5.59s0,1.86,0,1.86c0,1.03.83,1.86,1.86,1.86h5.59s0,1.86,0,1.86c0,1.03.83,1.86,1.86,1.86h5.59s0,1.86,0,1.86c0,1.03.83,1.86,1.86,1.86h5.59s0,1.86,0,1.86c0,1.03.83,1.86,1.86,1.86h5.59s0,1.86,0,1.86c0,1.03.83,1.86,1.86,1.86h5.59s0,1.86,0,1.86c0,1.03.83,1.86,1.86,1.86h5.59s0,87.6,0,87.6c0,1.03.83,1.86,1.86,1.86h1.86s0,1.86,0,1.86c0,1.03.83,1.86,1.86,1.86h5.59s0,1.86,0,1.86c0,1.03.83,1.86,1.86,1.86h5.59s0,1.86,0,1.86c0,1.03.83,1.86,1.86,1.86h5.59s0,1.86,0,1.86c0,1.03.83,1.86,1.86,1.86h5.59s0,1.86,0,1.86c0,1.03.83,1.86,1.86,1.86h5.59s0,1.86,0,1.86c0,1.03.83,1.86,1.86,1.86h5.59s0,1.86,0,1.86c0,1.03.83,1.86,1.86,1.86h5.59s0,1.86,0,1.86c0,1.03.83,1.86,1.86,1.86h1.86s0,108.1,0,108.1h-1.86c-1.03,0-1.86.83-1.86,1.86v1.86s-5.59,0-5.59,0c-1.03,0-1.86.83-1.86,1.86v1.86s-5.59,0-5.59,0c-1.03,0-1.86.83-1.86,1.86v1.86s-5.59,0-5.59,0c-1.03,0-1.86.83-1.86,1.86v1.86s-5.59,0-5.59,0c-1.03,0-1.86.83-1.86,1.86v1.86s-5.59,0-5.59,0c-1.03,0-1.86.83-1.86,1.86v1.86s-5.59,0-5.59,0c-1.03,0-1.86.83-1.86,1.86v1.86s-5.59,0-5.59,0c-1.03,0-1.86.83-1.86,1.86v1.86s-5.59,0-5.59,0c-1.03,0-1.86.83-1.86,1.86v1.86s-5.59,0-5.59,0c-1.03,0-1.86.83-1.86,1.86v1.86s-5.59,0-5.59,0c-1.03,0-1.86.83-1.86,1.86v1.86s-5.59,0-5.59,0c-1.03,0-1.86.83-1.86,1.86v1.86s-5.59,0-5.59,0c-1.03,0-1.86.83-1.86,1.86v1.86s-5.59,0-5.59,0c-1.03,0-1.86.83-1.86,1.86v1.86s-5.59,0-5.59,0c-1.03,0-1.86.83-1.86,1.86v1.86s-5.59,0-5.59,0c-1.03,0-1.86.83-1.86,1.86v1.86s-5.59,0-5.59,0c-1.03,0-1.86.83-1.86,1.86v1.86s-5.59,0-5.59,0c-1.03,0-1.86.83-1.86,1.86v1.86s-5.59,0-5.59,0c-1.03,0-1.86.83-1.86,1.86v1.86s-5.59,0-5.59,0c-1.03,0-1.86.83-1.86,1.86v1.86s-5.59,0-5.59,0c-1.03,0-1.86.83-1.86,1.86v1.86s-5.59,0-5.59,0c-1.03,0-1.86.83-1.86,1.86v1.86s-11.18,0-11.18,0v-1.86c0-1.03-.83-1.86-1.86-1.86h-1.86s0-65.24,0-65.24c0-1.03-.83-1.86-1.86-1.86h-1.86s0-20.5,0-20.5c0-1.03-.83-1.86-1.86-1.86h-1.86s0-1.86,0-1.86c0-1.03-.83-1.86-1.86-1.86h-1.86s0-1.86,0-1.86c0-1.03-.83-1.86-1.86-1.86h-5.59s0-1.86,0-1.86c0-1.03-.83-1.86-1.86-1.86h-3.73c-1.03,0-1.86.83-1.86,1.86v52.19c0,1.03.83,1.86,1.86,1.86h9.32s0,1.86,0,1.86c0,1.03.83,1.86,1.86,1.86h1.86s0,1.86,0,1.86c0,1.03.83,1.86,1.86,1.86h1.86s0,7.46,0,7.46h-1.86c-1.03,0-1.86.83-1.86,1.86v5.59s-1.86,0-1.86,0c-1.03,0-1.86.83-1.86,1.86v1.86s-1.86,0-1.86,0c-1.03,0-1.86.83-1.86,1.86v1.86s-1.86,0-1.86,0c-1.03,0-1.86.83-1.86,1.86v1.86s-5.59,0-5.59,0c-1.03,0-1.86.83-1.86,1.86v1.86s-27.96,0-27.96,0c-1.03,0-1.86.83-1.86,1.86v9.32s-5.59,0-5.59,0c-1.03,0-1.86.83-1.86,1.86v1.86s-7.46,0-7.46,0v-1.86c0-1.03-.83-1.86-1.86-1.86h-1.86s0-61.51,0-61.51c0-1.03-.83-1.86-1.86-1.86h-3.73c-1.03,0-1.86.83-1.86,1.86v1.86s-5.59,0-5.59,0c-1.03,0-1.86.83-1.86,1.86v1.86s-5.59,0-5.59,0c-1.03,0-1.86.83-1.86,1.86v1.86s-5.59,0-5.59,0c-1.03,0-1.86.83-1.86,1.86v1.86s-5.59,0-5.59,0c-1.03,0-1.86.83-1.86,1.86v1.86s-5.59,0-5.59,0c-1.03,0-1.86.83-1.86,1.86v1.86s-5.59,0-5.59,0c-1.03,0-1.86.83-1.86,1.86v1.86s-1.86,0-1.86,0c-1.03,0-1.86.83-1.86,1.86v72.69s-5.59,0-5.59,0c-1.03,0-1.86.83-1.86,1.86v1.86s-11.18,0-11.18,0ZM5.59,149.11c-1.03,0-1.86.83-1.86,1.86s.83,1.86,1.86,1.86h1.86s0,1.86,0,1.86c0,1.03.83,1.86,1.86,1.86h5.59s0,1.86,0,1.86c0,1.03.83,1.86,1.86,1.86h5.59s0,1.86,0,1.86c0,1.03.83,1.86,1.86,1.86h5.59s0,1.86,0,1.86c0,1.03.83,1.86,1.86,1.86h5.59s0,1.86,0,1.86c0,1.03.83,1.86,1.86,1.86h5.59s0,1.86,0,1.86c0,1.03.83,1.86,1.86,1.86h5.59s0,1.86,0,1.86c0,1.03.83,1.86,1.86,1.86h5.59s0,1.86,0,1.86c0,1.03.83,1.86,1.86,1.86h5.59s0,1.86,0,1.86c0,1.03.83,1.86,1.86,1.86h5.59s0,1.86,0,1.86c0,1.03.83,1.86,1.86,1.86h5.59s0,1.86,0,1.86c0,1.03.83,1.86,1.86,1.86h5.59s0,1.86,0,1.86c0,1.03.83,1.86,1.86,1.86h5.59s0,1.86,0,1.86c0,1.03.83,1.86,1.86,1.86h5.59s0,195.71,0,195.71c0,1.03.83,1.86,1.86,1.86h3.73c1.03,0,1.86-.83,1.86-1.86v-1.86s1.86,0,1.86,0c1.03,0,1.86-.83,1.86-1.86v-72.69s5.59,0,5.59,0c1.03,0,1.86-.83,1.86-1.86v-1.86s5.59,0,5.59,0c1.03,0,1.86-.83,1.86-1.86v-1.86s5.59,0,5.59,0c1.03,0,1.86-.83,1.86-1.86v-1.86s5.59,0,5.59,0c1.03,0,1.86-.83,1.86-1.86v-1.86s5.59,0,5.59,0c1.03,0,1.86-.83,1.86-1.86v-1.86s5.59,0,5.59,0c1.03,0,1.86-.83,1.86-1.86v-1.86s5.59,0,5.59,0c1.03,0,1.86-.83,1.86-1.86v-1.86s5.59,0,5.59,0c1.03,0,1.86-.83,1.86-1.86v-1.86s7.46,0,7.46,0v68.96c0,1.03.83,1.86,1.86,1.86s1.86-.83,1.86-1.86v-1.86s1.86,0,1.86,0c.49,0,.97-.2,1.32-.55.35-.35.55-.82.55-1.32v-82.01c0-1.03-.83-1.86-1.86-1.86s-1.86.83-1.86,1.86v1.86s-5.59,0-5.59,0c-1.03,0-1.86.83-1.86,1.86v1.86s-5.59,0-5.59,0c-1.03,0-1.86.83-1.86,1.86v1.86s-5.59,0-5.59,0c-1.03,0-1.86.83-1.86,1.86v1.86s-5.59,0-5.59,0c-1.03,0-1.86.83-1.86,1.86v1.86s-5.59,0-5.59,0c-1.03,0-1.86.83-1.86,1.86v1.86s-5.59,0-5.59,0c-1.03,0-1.86.83-1.86,1.86v1.86s-5.59,0-5.59,0c-1.03,0-1.86.83-1.86,1.86v1.86s-5.59,0-5.59,0c-1.03,0-1.86.83-1.86,1.86v1.86s-5.59,0-5.59,0c-1.03,0-1.86.83-1.86,1.86v1.86s-7.46,0-7.46,0v-106.24c0-1.03-.83-1.86-1.86-1.86h-1.86s0-1.86,0-1.86c0-1.03-.83-1.86-1.86-1.86h-5.59s0-1.86,0-1.86c0-1.03-.83-1.86-1.86-1.86h-5.59s0-1.86,0-1.86c0-1.03-.83-1.86-1.86-1.86h-5.59s0-1.86,0-1.86c0-1.03-.83-1.86-1.86-1.86h-5.59s0-1.86,0-1.86c0-1.03-.83-1.86-1.86-1.86h-5.59s0-1.86,0-1.86c0-1.03-.83-1.86-1.86-1.86h-5.59s0-1.86,0-1.86c0-1.03-.83-1.86-1.86-1.86h-5.59s0-1.86,0-1.86c0-1.03-.83-1.86-1.86-1.86h-5.59s0-1.86,0-1.86c0-1.03-.83-1.86-1.86-1.86h-5.59s0-1.86,0-1.86c0-1.03-.83-1.86-1.86-1.86h-5.59s0-1.86,0-1.86c0-1.03-.83-1.86-1.86-1.86h-5.59s0-1.86,0-1.86c0-1.03-.83-1.86-1.86-1.86h-5.59s0-1.86,0-1.86c0-1.03-.83-1.86-1.86-1.86h-5.59s0-1.86,0-1.86c0-.49-.2-.97-.55-1.32-.35-.35-.82-.55-1.32-.55h-3.73ZM195.71,309.4c-1.03,0-1.86.83-1.86,1.86v33.55c0,1.03.83,1.86,1.86,1.86h26.09c1.03,0,1.86-.83,1.86-1.86v-1.86s5.59,0,5.59,0c1.03,0,1.86-.83,1.86-1.86v-1.86s1.86,0,1.86,0c1.03,0,1.86-.83,1.86-1.86v-1.86s1.86,0,1.86,0c1.03,0,1.86-.83,1.86-1.86v-5.59s1.86,0,1.86,0c1.03,0,1.86-.83,1.86-1.86v-3.73c0-1.03-.83-1.86-1.86-1.86h-1.86s0-1.86,0-1.86c0-1.03-.83-1.86-1.86-1.86h-7.46c-1.03,0-1.86.83-1.86,1.86v1.86s-3.73,0-3.73,0v-76.42c0-1.03-.83-1.86-1.86-1.86s-1.86.83-1.86,1.86v1.86s-14.91,0-14.91,0v-1.86c0-1.03-.83-1.86-1.86-1.86h-9.32s0-1.86,0-1.86c0-1.03-.83-1.86-1.86-1.86h-5.59s0-1.86,0-1.86c0-1.03-.83-1.86-1.86-1.86h-5.59s0-1.86,0-1.86c0-1.03-.83-1.86-1.86-1.86h-7.46c-1.03,0-1.86.83-1.86,1.86v1.86s-5.59,0-5.59,0c-1.03,0-1.86.83-1.86,1.86v1.86s-14.91,0-14.91,0v-9.32c0-1.03-.83-1.86-1.86-1.86h-1.86s0-9.32,0-9.32c0-1.03-.83-1.86-1.86-1.86h-1.86s0-16.78,0-16.78c0-1.03-.83-1.86-1.86-1.86h-1.86s0-3.73,0-3.73h3.73s0,1.86,0,1.86c0,1.03.83,1.86,1.86,1.86h1.86s0,1.86,0,1.86c0,1.03.83,1.86,1.86,1.86h1.86s0,1.86,0,1.86c0,1.03.83,1.86,1.86,1.86h1.86s0,1.86,0,1.86c0,1.03.83,1.86,1.86,1.86h1.86s0,1.86,0,1.86c0,1.03.83,1.86,1.86,1.86h1.86s0,1.86,0,1.86c0,1.03.83,1.86,1.86,1.86h1.86s0,1.86,0,1.86c0,1.03.83,1.86,1.86,1.86h1.86s0,1.86,0,1.86c0,1.03.83,1.86,1.86,1.86h5.59s0,1.86,0,1.86c0,1.03.83,1.86,1.86,1.86h5.59s0,1.86,0,1.86c0,1.03.83,1.86,1.86,1.86h5.59s0,1.86,0,1.86c0,1.03.83,1.86,1.86,1.86h5.59s0,1.86,0,1.86c0,1.03.83,1.86,1.86,1.86h9.32s0,1.86,0,1.86c0,1.03.83,1.86,1.86,1.86h11.18c1.03,0,1.86-.83,1.86-1.86v-1.86s5.59,0,5.59,0c1.03,0,1.86-.83,1.86-1.86v-1.86s5.59,0,5.59,0c1.03,0,1.86-.83,1.86-1.86v-1.86s5.59,0,5.59,0c1.03,0,1.86-.83,1.86-1.86v-1.86s5.59,0,5.59,0c1.03,0,1.86-.83,1.86-1.86v-1.86s5.59,0,5.59,0c1.03,0,1.86-.83,1.86-1.86v-1.86s13.05,0,13.05,0c1.03,0,1.86-.83,1.86-1.86v-1.86s1.86,0,1.86,0c1.03,0,1.86-.83,1.86-1.86v-11.18c0-1.03-.83-1.86-1.86-1.86h-5.59s0-1.86,0-1.86c0-1.03-.83-1.86-1.86-1.86h-5.59s0-1.86,0-1.86c0-1.03-.83-1.86-1.86-1.86h-7.46c-1.03,0-1.86.83-1.86,1.86v1.86s-9.32,0-9.32,0c-1.03,0-1.86.83-1.86,1.86v1.86s-1.86,0-1.86,0c-1.03,0-1.86.83-1.86,1.86v1.86s-1.86,0-1.86,0c-1.03,0-1.86.83-1.86,1.86v1.86s-1.86,0-1.86,0c-1.03,0-1.86.83-1.86,1.86v1.86s-14.91,0-14.91,0v-1.86c0-1.03-.83-1.86-1.86-1.86h-5.59s0-1.86,0-1.86c0-1.03-.83-1.86-1.86-1.86h-5.59s0-1.86,0-1.86c0-1.03-.83-1.86-1.86-1.86h-5.59s0-1.86,0-1.86c0-1.03-.83-1.86-1.86-1.86h-1.86s0-1.86,0-1.86c0-1.03-.83-1.86-1.86-1.86h-1.86s0-1.86,0-1.86c0-1.03-.83-1.86-1.86-1.86h-1.86s0-1.86,0-1.86c0-1.03-.83-1.86-1.86-1.86h-1.86s0-1.86,0-1.86c0-1.03-.83-1.86-1.86-1.86h-1.86s0-1.86,0-1.86c0-1.03-.83-1.86-1.86-1.86h-5.59s0-1.86,0-1.86c0-1.03-.83-1.86-1.86-1.86h-5.59s0-1.86,0-1.86c0-1.03-.83-1.86-1.86-1.86h-5.59s0-1.86,0-1.86c0-1.03-.83-1.86-1.86-1.86h-14.91c-1.03,0-1.86.83-1.86,1.86v1.86s-27.96,0-27.96,0c-1.03,0-1.86.83-1.86,1.86v1.86s-27.96,0-27.96,0c-1.03,0-1.86.83-1.86,1.86s.83,1.86,1.86,1.86h5.59s0,1.86,0,1.86c0,1.03.83,1.86,1.86,1.86h5.59s0,1.86,0,1.86c0,1.03.83,1.86,1.86,1.86h5.59s0,1.86,0,1.86c0,1.03.83,1.86,1.86,1.86h5.59s0,1.86,0,1.86c0,1.03.83,1.86,1.86,1.86h5.59s0,1.86,0,1.86c0,1.03.83,1.86,1.86,1.86h1.86s0,1.86,0,1.86c0,1.03.83,1.86,1.86,1.86h1.86s0,80.15,0,80.15c0,1.03.83,1.86,1.86,1.86h1.86s0,5.59,0,5.59c0,1.03.83,1.86,1.86,1.86h1.86s0,1.86,0,1.86c0,1.03.83,1.86,1.86,1.86h1.86s0,1.86,0,1.86c0,1.03.83,1.86,1.86,1.86h3.73c1.03,0,1.86-.83,1.86-1.86v-1.86s5.59,0,5.59,0c1.03,0,1.86-.83,1.86-1.86v-1.86s5.59,0,5.59,0c1.03,0,1.86-.83,1.86-1.86v-1.86s5.59,0,5.59,0c1.03,0,1.86-.83,1.86-1.86v-1.86s5.59,0,5.59,0c1.03,0,1.86-.83,1.86-1.86v-1.86s5.59,0,5.59,0c1.03,0,1.86-.83,1.86-1.86v-1.86s5.59,0,5.59,0c1.03,0,1.86-.83,1.86-1.86v-1.86s5.59,0,5.59,0c1.03,0,1.86-.83,1.86-1.86v-1.86s7.46,0,7.46,0v1.86c0,1.03.83,1.86,1.86,1.86h1.86s0,37.28,0,37.28h-1.86ZM150.97,156.56c-1.03,0-1.86.83-1.86,1.86v1.86s-1.86,0-1.86,0c-1.03,0-1.86.83-1.86,1.86s.83,1.86,1.86,1.86h1.86s0,1.86,0,1.86c0,1.03.83,1.86,1.86,1.86h5.59s0,1.86,0,1.86c0,1.03.83,1.86,1.86,1.86h5.59s0,1.86,0,1.86c0,1.03.83,1.86,1.86,1.86h5.59s0,1.86,0,1.86c0,1.03.83,1.86,1.86,1.86h1.86s0,1.86,0,1.86c0,1.03.83,1.86,1.86,1.86h1.86s0,1.86,0,1.86c0,1.03.83,1.86,1.86,1.86h1.86s0,1.86,0,1.86c0,1.03.83,1.86,1.86,1.86h1.86s0,1.86,0,1.86c0,1.03.83,1.86,1.86,1.86h1.86s0,1.86,0,1.86c0,1.03.83,1.86,1.86,1.86h11.18c1.03,0,1.86-.83,1.86-1.86v-1.86s5.59,0,5.59,0c1.03,0,1.86-.83,1.86-1.86v-1.86s5.59,0,5.59,0c1.03,0,1.86-.83,1.86-1.86v-1.86s5.59,0,5.59,0c1.03,0,1.86-.83,1.86-1.86v-1.86s1.86,0,1.86,0c1.03,0,1.86-.83,1.86-1.86s-.83-1.86-1.86-1.86h-5.59s0-1.86,0-1.86c0-1.03-.83-1.86-1.86-1.86h-5.59s0-1.86,0-1.86c0-1.03-.83-1.86-1.86-1.86h-5.59s0-1.86,0-1.86c0-1.03-.83-1.86-1.86-1.86h-5.59s0-1.86,0-1.86c0-1.03-.83-1.86-1.86-1.86h-5.59s0-1.86,0-1.86c0-1.03-.83-1.86-1.86-1.86h-5.59s0-1.86,0-1.86c0-1.03-.83-1.86-1.86-1.86h-5.59s0-1.86,0-1.86c0-1.03-.83-1.86-1.86-1.86h-5.59s0-1.86,0-1.86c0-1.03-.83-1.86-1.86-1.86h-5.59s0-1.86,0-1.86c0-.49-.2-.97-.55-1.32s-.82-.55-1.32-.55h-3.73c-1.03,0-1.86.83-1.86,1.86s.83,1.86,1.86,1.86h1.86s0,1.86,0,1.86c0,1.03.83,1.86,1.86,1.86h5.59s0,1.86,0,1.86c0,1.03.83,1.86,1.86,1.86h5.59s0,1.86,0,1.86c0,1.03.83,1.86,1.86,1.86h5.59s0,1.86,0,1.86c0,1.03.83,1.86,1.86,1.86h5.59s0,1.86,0,1.86c0,1.03.83,1.86,1.86,1.86h5.59s0,1.86,0,1.86c0,1.03.83,1.86,1.86,1.86h5.59s0,1.86,0,1.86c0,1.03.83,1.86,1.86,1.86h5.59s0,1.86,0,1.86c0,1.03.83,1.86,1.86,1.86h1.86s0,3.73,0,3.73h-3.73s0-1.86,0-1.86c0-1.03-.83-1.86-1.86-1.86h-5.59s0-1.86,0-1.86c0-1.03-.83-1.86-1.86-1.86h-5.59s0-1.86,0-1.86c0-1.03-.83-1.86-1.86-1.86h-5.59s0-1.86,0-1.86c0-1.03-.83-1.86-1.86-1.86h-5.59s0-1.86,0-1.86c0-1.03-.83-1.86-1.86-1.86h-5.59s0-1.86,0-1.86c0-1.03-.83-1.86-1.86-1.86h-5.59s0-1.86,0-1.86c0-1.03-.83-1.86-1.86-1.86h-5.59s0-1.86,0-1.86c0-1.03-.83-1.86-1.86-1.86h-3.73c-1.03,0-1.86.83-1.86,1.86v1.86s-1.86,0-1.86,0ZM292.63,63.37c-1.03,0-1.86.83-1.86,1.86v104.38c0,1.03.83,1.86,1.86,1.86h0c1.03,0,1.86-.83,1.86-1.86v-1.86s5.59,0,5.59,0c1.03,0,1.86-.83,1.86-1.86v-1.86s1.86,0,1.86,0c.49,0,.97-.2,1.32-.55.35-.35.55-.82.55-1.32V57.78c0-1.03-.83-1.86-1.86-1.86s-1.86.83-1.86,1.86v1.86s-5.59,0-5.59,0c-1.03,0-1.86.83-1.86,1.86v1.86s-1.86,0-1.86,0ZM177.07,18.64c-1.03,0-1.86.83-1.86,1.86v93.19c0,1.03.83,1.86,1.86,1.86h1.86s0,1.86,0,1.86c0,1.03.83,1.86,1.86,1.86h5.59s0,1.86,0,1.86c0,1.03.83,1.86,1.86,1.86h5.59s0,1.86,0,1.86c0,1.03.83,1.86,1.86,1.86h5.59s0,1.86,0,1.86c0,1.03.83,1.86,1.86,1.86h5.59s0,1.86,0,1.86c0,1.03.83,1.86,1.86,1.86h5.59s0,1.86,0,1.86c0,1.03.83,1.86,1.86,1.86h5.59s0,1.86,0,1.86c0,1.03.83,1.86,1.86,1.86h5.59s0,1.86,0,1.86c0,1.03.83,1.86,1.86,1.86h5.59s0,1.86,0,1.86c0,1.03.83,1.86,1.86,1.86h5.59s0,1.86,0,1.86c0,1.03.83,1.86,1.86,1.86h5.59s0,1.86,0,1.86c0,1.03.83,1.86,1.86,1.86h5.59s0,1.86,0,1.86c0,1.03.83,1.86,1.86,1.86h5.59s0,1.86,0,1.86c0,1.03.83,1.86,1.86,1.86h5.59s0,1.86,0,1.86c0,1.03.83,1.86,1.86,1.86h5.59s0,1.86,0,1.86c0,1.03.83,1.86,1.86,1.86s1.86-.83,1.86-1.86v-100.65c0-.49-.2-.97-.55-1.32-.35-.35-.82-.55-1.32-.55h-1.86s0-1.86,0-1.86c0-1.03-.83-1.86-1.86-1.86h-5.59s0-1.86,0-1.86c0-1.03-.83-1.86-1.86-1.86h-5.59s0-1.86,0-1.86c0-1.03-.83-1.86-1.86-1.86h-5.59s0-1.86,0-1.86c0-1.03-.83-1.86-1.86-1.86h-5.59s0-1.86,0-1.86c0-1.03-.83-1.86-1.86-1.86h-5.59s0-1.86,0-1.86c0-1.03-.83-1.86-1.86-1.86h-5.59s0-1.86,0-1.86c0-1.03-.83-1.86-1.86-1.86h-5.59s0-1.86,0-1.86c0-1.03-.83-1.86-1.86-1.86h-5.59s0-1.86,0-1.86c0-1.03-.83-1.86-1.86-1.86h-5.59s0-1.86,0-1.86c0-1.03-.83-1.86-1.86-1.86h-5.59s0-1.86,0-1.86c0-1.03-.83-1.86-1.86-1.86h-5.59s0-1.86,0-1.86c0-1.03-.83-1.86-1.86-1.86h-5.59s0-1.86,0-1.86c0-1.03-.83-1.86-1.86-1.86h-5.59s0-1.86,0-1.86c0-1.03-.83-1.86-1.86-1.86h-3.73c-1.03,0-1.86.83-1.86,1.86v1.86s-1.86,0-1.86,0ZM191.98,134.2c-1.03,0-1.86.83-1.86,1.86v3.73c0,1.03.83,1.86,1.86,1.86h5.59s0,1.86,0,1.86c0,1.03.83,1.86,1.86,1.86h5.59s0,1.86,0,1.86c0,1.03.83,1.86,1.86,1.86h5.59s0,1.86,0,1.86c0,1.03.83,1.86,1.86,1.86h5.59s0,1.86,0,1.86c0,1.03.83,1.86,1.86,1.86h5.59s0,1.86,0,1.86c0,1.03.83,1.86,1.86,1.86h5.59s0,1.86,0,1.86c0,1.03.83,1.86,1.86,1.86h5.59s0,1.86,0,1.86c0,1.03.83,1.86,1.86,1.86h5.59s0,1.86,0,1.86c0,1.03.83,1.86,1.86,1.86h3.73c1.03,0,1.86-.83,1.86-1.86v-1.86s5.59,0,5.59,0c1.03,0,1.86-.83,1.86-1.86,0-1.03-.83-1.86-1.86-1.86h-1.86s0-1.86,0-1.86c0-1.03-.83-1.86-1.86-1.86h-5.59s0-1.86,0-1.86c0-1.03-.83-1.86-1.86-1.86h-5.59s0-1.86,0-1.86c0-1.03-.83-1.86-1.86-1.86h-5.59s0-1.86,0-1.86c0-1.03-.83-1.86-1.86-1.86h-5.59s0-1.86,0-1.86c0-1.03-.83-1.86-1.86-1.86h-5.59s0-1.86,0-1.86c0-1.03-.83-1.86-1.86-1.86h-5.59s0-1.86,0-1.86c0-1.03-.83-1.86-1.86-1.86h-5.59s0-1.86,0-1.86c0-1.03-.83-1.86-1.86-1.86h-5.59s0-1.86,0-1.86c0-1.03-.83-1.86-1.86-1.86h-3.73c-1.03,0-1.86.83-1.86,1.86v1.86s-1.86,0-1.86,0ZM42.87,82.01c-1.03,0-1.86.83-1.86,1.86v26.09c0,1.03.83,1.86,1.86,1.86h1.86s0,9.32,0,9.32c0,1.03.83,1.86,1.86,1.86h1.86s0,5.59,0,5.59c0,1.03.83,1.86,1.86,1.86h1.86s0,5.59,0,5.59c0,1.03.83,1.86,1.86,1.86h1.86s0,1.86,0,1.86c0,1.03.83,1.86,1.86,1.86h1.86s0,1.86,0,1.86c0,1.03.83,1.86,1.86,1.86h1.86s0,1.86,0,1.86c0,1.03.83,1.86,1.86,1.86h1.86s0,1.86,0,1.86c0,1.03.83,1.86,1.86,1.86h5.59s0,1.86,0,1.86c0,1.03.83,1.86,1.86,1.86h9.32s0,1.86,0,1.86c0,1.03.83,1.86,1.86,1.86h9.32s0,1.86,0,1.86c0,1.03.83,1.86,1.86,1.86h33.55c1.03,0,1.86-.83,1.86-1.86v-1.86s9.32,0,9.32,0c1.03,0,1.86-.83,1.86-1.86v-1.86s1.86,0,1.86,0c1.03,0,1.86-.83,1.86-1.86v-1.86s1.86,0,1.86,0c1.03,0,1.86-.83,1.86-1.86v-5.59s1.86,0,1.86,0c1.03,0,1.86-.83,1.86-1.86v-5.59s1.86,0,1.86,0c1.03,0,1.86-.83,1.86-1.86v-5.59s1.86,0,1.86,0c1.03,0,1.86-.83,1.86-1.86v-33.55c0-1.03-.83-1.86-1.86-1.86h-1.86s0-5.59,0-5.59c0-1.03-.83-1.86-1.86-1.86h-1.86s0-5.59,0-5.59c0-1.03-.83-1.86-1.86-1.86h-1.86s0-1.86,0-1.86c0-1.03-.83-1.86-1.86-1.86h-1.86s0-1.86,0-1.86c0-1.03-.83-1.86-1.86-1.86h-1.86s0-1.86,0-1.86c0-1.03-.83-1.86-1.86-1.86h-1.86s0-1.86,0-1.86c0-1.03-.83-1.86-1.86-1.86h-5.59s0-1.86,0-1.86c0-1.03-.83-1.86-1.86-1.86h-5.59s0-1.86,0-1.86c0-1.03-.83-1.86-1.86-1.86h-1.86s0-1.86,0-1.86c0-1.03-.83-1.86-1.86-1.86h-9.32s0-1.86,0-1.86c0-1.03-.83-1.86-1.86-1.86h-41.01c-1.03,0-1.86.83-1.86,1.86v1.86s-5.59,0-5.59,0c-1.03,0-1.86.83-1.86,1.86v1.86s-1.86,0-1.86,0c-1.03,0-1.86.83-1.86,1.86v1.86s-1.86,0-1.86,0c-1.03,0-1.86.83-1.86,1.86v1.86s-1.86,0-1.86,0c-1.03,0-1.86.83-1.86,1.86v5.59s-1.86,0-1.86,0c-1.03,0-1.86.83-1.86,1.86v9.32s-1.86,0-1.86,0ZM311.27,55.92c-1.03,0-1.86.83-1.86,1.86v100.65c0,1.03.83,1.86,1.86,1.86h3.73c1.03,0,1.86-.83,1.86-1.86v-1.86s5.59,0,5.59,0c1.03,0,1.86-.83,1.86-1.86v-1.86s5.59,0,5.59,0c1.03,0,1.86-.83,1.86-1.86v-1.86s5.59,0,5.59,0c1.03,0,1.86-.83,1.86-1.86v-1.86s5.59,0,5.59,0c1.03,0,1.86-.83,1.86-1.86v-1.86s5.59,0,5.59,0c1.03,0,1.86-.83,1.86-1.86v-1.86s5.59,0,5.59,0c1.03,0,1.86-.83,1.86-1.86v-1.86s1.86,0,1.86,0c1.03,0,1.86-.83,1.86-1.86V57.78c0-1.03-.83-1.86-1.86-1.86h-52.19ZM195.71,7.46c-1.03,0-1.86.83-1.86,1.86v1.86s-5.59,0-5.59,0c-1.03,0-1.86.83-1.86,1.86,0,1.03.83,1.86,1.86,1.86h5.59s0,1.86,0,1.86c0,1.03.83,1.86,1.86,1.86h5.59s0,1.86,0,1.86c0,1.03.83,1.86,1.86,1.86h5.59s0,1.86,0,1.86c0,1.03.83,1.86,1.86,1.86h5.59s0,1.86,0,1.86c0,1.03.83,1.86,1.86,1.86h5.59s0,1.86,0,1.86c0,1.03.83,1.86,1.86,1.86h5.59s0,1.86,0,1.86c0,1.03.83,1.86,1.86,1.86h5.59s0,1.86,0,1.86c0,1.03.83,1.86,1.86,1.86h5.59s0,1.86,0,1.86c0,1.03.83,1.86,1.86,1.86h5.59s0,1.86,0,1.86c0,1.03.83,1.86,1.86,1.86h5.59s0,1.86,0,1.86c0,1.03.83,1.86,1.86,1.86h5.59s0,1.86,0,1.86c0,1.03.83,1.86,1.86,1.86h5.59s0,1.86,0,1.86c0,1.03.83,1.86,1.86,1.86h5.59s0,1.86,0,1.86c0,1.03.83,1.86,1.86,1.86h0c1.03,0,1.86-.83,1.86-1.86v-1.86s5.59,0,5.59,0c1.03,0,1.86-.83,1.86-1.86v-1.86s5.59,0,5.59,0c1.03,0,1.86-.83,1.86-1.86s-.83-1.86-1.86-1.86h-1.86s0-1.86,0-1.86c0-1.03-.83-1.86-1.86-1.86h-5.59s0-1.86,0-1.86c0-1.03-.83-1.86-1.86-1.86h-5.59s0-1.86,0-1.86c0-1.03-.83-1.86-1.86-1.86h-5.59s0-1.86,0-1.86c0-1.03-.83-1.86-1.86-1.86h-5.59s0-1.86,0-1.86c0-1.03-.83-1.86-1.86-1.86h-5.59s0-1.86,0-1.86c0-1.03-.83-1.86-1.86-1.86h-5.59s0-1.86,0-1.86c0-1.03-.83-1.86-1.86-1.86h-5.59s0-1.86,0-1.86c0-1.03-.83-1.86-1.86-1.86h-5.59s0-1.86,0-1.86c0-1.03-.83-1.86-1.86-1.86h-5.59s0-1.86,0-1.86c0-1.03-.83-1.86-1.86-1.86h-5.59s0-1.86,0-1.86c0-1.03-.83-1.86-1.86-1.86h-5.59s0-1.86,0-1.86c0-1.03-.83-1.86-1.86-1.86h-5.59s0-1.86,0-1.86c0-1.03-.83-1.86-1.86-1.86h-3.73c-1.03,0-1.86.83-1.86,1.86v1.86s-5.59,0-5.59,0ZM259.08,11.18c-1.03,0-1.86.83-1.86,1.86s.83,1.86,1.86,1.86h1.86s0,1.86,0,1.86c0,1.03.83,1.86,1.86,1.86h5.59s0,1.86,0,1.86c0,1.03.83,1.86,1.86,1.86h5.59s0,1.86,0,1.86c0,1.03.83,1.86,1.86,1.86h5.59s0,1.86,0,1.86c0,1.03.83,1.86,1.86,1.86h5.59s0,1.86,0,1.86c0,1.03.83,1.86,1.86,1.86h5.59s0,1.86,0,1.86c0,1.03.83,1.86,1.86,1.86h5.59s0,1.86,0,1.86c0,1.03.83,1.86,1.86,1.86h5.59s0,1.86,0,1.86c0,1.03.83,1.86,1.86,1.86h5.59s0,1.86,0,1.86c0,1.03.83,1.86,1.86,1.86h5.59s0,1.86,0,1.86c0,.49.2.97.55,1.32.35.35.82.55,1.32.55h22.37c1.03,0,1.86-.83,1.86-1.86s-.83-1.86-1.86-1.86h-5.59s0-1.86,0-1.86c0-1.03-.83-1.86-1.86-1.86h-5.59s0-1.86,0-1.86c0-1.03-.83-1.86-1.86-1.86h-5.59s0-1.86,0-1.86c0-1.03-.83-1.86-1.86-1.86h-5.59s0-1.86,0-1.86c0-1.03-.83-1.86-1.86-1.86h-5.59s0-1.86,0-1.86c0-1.03-.83-1.86-1.86-1.86h-5.59s0-1.86,0-1.86c0-1.03-.83-1.86-1.86-1.86h-5.59s0-1.86,0-1.86c0-1.03-.83-1.86-1.86-1.86h-5.59s0-1.86,0-1.86c0-1.03-.83-1.86-1.86-1.86h-5.59s0-1.86,0-1.86c0-1.03-.83-1.86-1.86-1.86h-5.59s0-1.86,0-1.86c0-.49-.2-.97-.55-1.32-.35-.35-.82-.55-1.32-.55h-18.64ZM225.53,7.46c-1.03,0-1.86.83-1.86,1.86,0,1.03.83,1.86,1.86,1.86h5.59s0,1.86,0,1.86c0,1.03.83,1.86,1.86,1.86h5.59s0,1.86,0,1.86c0,1.03.83,1.86,1.86,1.86h5.59s0,1.86,0,1.86c0,1.03.83,1.86,1.86,1.86h5.59s0,1.86,0,1.86c0,1.03.83,1.86,1.86,1.86h5.59s0,1.86,0,1.86c0,1.03.83,1.86,1.86,1.86h5.59s0,1.86,0,1.86c0,1.03.83,1.86,1.86,1.86h5.59s0,1.86,0,1.86c0,1.03.83,1.86,1.86,1.86h5.59s0,1.86,0,1.86c0,1.03.83,1.86,1.86,1.86h5.59s0,1.86,0,1.86c0,1.03.83,1.86,1.86,1.86h5.59s0,1.86,0,1.86c0,1.03.83,1.86,1.86,1.86h5.59s0,1.86,0,1.86c0,.49.2.97.55,1.32.35.35.82.55,1.32.55h11.18c1.03,0,1.86-.83,1.86-1.86s-.83-1.86-1.86-1.86h-5.59s0-1.86,0-1.86c0-1.03-.83-1.86-1.86-1.86h-5.59s0-1.86,0-1.86c0-1.03-.83-1.86-1.86-1.86h-5.59s0-1.86,0-1.86c0-1.03-.83-1.86-1.86-1.86h-5.59s0-1.86,0-1.86c0-1.03-.83-1.86-1.86-1.86h-5.59s0-1.86,0-1.86c0-1.03-.83-1.86-1.86-1.86h-5.59s0-1.86,0-1.86c0-1.03-.83-1.86-1.86-1.86h-5.59s0-1.86,0-1.86c0-1.03-.83-1.86-1.86-1.86h-5.59s0-1.86,0-1.86c0-1.03-.83-1.86-1.86-1.86h-5.59s0-1.86,0-1.86c0-1.03-.83-1.86-1.86-1.86h-5.59s0-1.86,0-1.86c0-1.03-.83-1.86-1.86-1.86h-5.59s0-1.86,0-1.86c0-.49-.2-.97-.55-1.32-.35-.35-.82-.55-1.32-.55h-11.18ZM275.85,160.29v-1.86c0-1.03-.83-1.86-1.86-1.86h-1.86s0-3.73,0-3.73h7.46s0,7.46,0,7.46h-3.73ZM260.94,145.38v-1.86c0-1.03-.83-1.86-1.86-1.86h-5.59s0-1.86,0-1.86c0-1.03-.83-1.86-1.86-1.86h-5.59s0-1.86,0-1.86c0-1.03-.83-1.86-1.86-1.86h-5.59s0-1.86,0-1.86c0-1.03-.83-1.86-1.86-1.86h-5.59s0-1.86,0-1.86c0-1.03-.83-1.86-1.86-1.86h-5.59s0-1.86,0-1.86c0-1.03-.83-1.86-1.86-1.86h-5.59s0-1.86,0-1.86c0-1.03-.83-1.86-1.86-1.86h-5.59s0-1.86,0-1.86c0-1.03-.83-1.86-1.86-1.86h-5.59s0-1.86,0-1.86c0-1.03-.83-1.86-1.86-1.86h-5.59s0-1.86,0-1.86c0-1.03-.83-1.86-1.86-1.86h-5.59s0-67.1,0-67.1h7.46s0,1.86,0,1.86c0,1.03.83,1.86,1.86,1.86h5.59s0,1.86,0,1.86c0,1.03.83,1.86,1.86,1.86h5.59s0,1.86,0,1.86c0,1.03.83,1.86,1.86,1.86h5.59s0,1.86,0,1.86c0,1.03.83,1.86,1.86,1.86h5.59s0,1.86,0,1.86c0,1.03.83,1.86,1.86,1.86h5.59s0,1.86,0,1.86c0,1.03.83,1.86,1.86,1.86h5.59s0,1.86,0,1.86c0,1.03.83,1.86,1.86,1.86h5.59s0,1.86,0,1.86c0,1.03.83,1.86,1.86,1.86h5.59s0,1.86,0,1.86c0,1.03.83,1.86,1.86,1.86h5.59s0,1.86,0,1.86c0,1.03.83,1.86,1.86,1.86h5.59s0,67.1,0,67.1h-7.46ZM191.98,59.64c-1.03,0-1.86.83-1.86,1.86v29.82c0,1.03.83,1.86,1.86,1.86h1.86s0,5.59,0,5.59c0,1.03.83,1.86,1.86,1.86h1.86s0,1.86,0,1.86c0,1.03.83,1.86,1.86,1.86h5.59s0,1.86,0,1.86c0,1.03.83,1.86,1.86,1.86h5.59s0,1.86,0,1.86c0,1.03.83,1.86,1.86,1.86h5.59s0,1.86,0,1.86c0,1.03.83,1.86,1.86,1.86h5.59s0,1.86,0,1.86c0,1.03.83,1.86,1.86,1.86h5.59s0,1.86,0,1.86c0,1.03.83,1.86,1.86,1.86h5.59s0,1.86,0,1.86c0,1.03.83,1.86,1.86,1.86h5.59s0,1.86,0,1.86c0,1.03.83,1.86,1.86,1.86h5.59s0,1.86,0,1.86c0,1.03.83,1.86,1.86,1.86h3.73c1.03,0,1.86-.83,1.86-1.86v-48.46c0-1.03-.83-1.86-1.86-1.86h-1.86s0-1.86,0-1.86c0-1.03-.83-1.86-1.86-1.86h-5.59s0-1.86,0-1.86c0-1.03-.83-1.86-1.86-1.86h-5.59s0-1.86,0-1.86c0-1.03-.83-1.86-1.86-1.86h-5.59s0-1.86,0-1.86c0-1.03-.83-1.86-1.86-1.86h-5.59s0-1.86,0-1.86c0-1.03-.83-1.86-1.86-1.86h-5.59s0-1.86,0-1.86c0-1.03-.83-1.86-1.86-1.86h-5.59s0-1.86,0-1.86c0-1.03-.83-1.86-1.86-1.86h-5.59s0-1.86,0-1.86c0-1.03-.83-1.86-1.86-1.86h-5.59s0-1.86,0-1.86c0-1.03-.83-1.86-1.86-1.86s-1.86.83-1.86,1.86v1.86s-1.86,0-1.86,0c-1.03,0-1.86.83-1.86,1.86v5.59s-1.86,0-1.86,0Z"/>
  </g>
</svg>