<?xml version="1.0" encoding="UTF-8"?>
<svg id="Layer_2" data-name="Layer 2" xmlns="http://www.w3.org/2000/svg" viewBox="0 0 694.59 118.04">
  <g id="Layer_1-2" data-name="Layer 1">
    <g>
      <g>
        <g>
          <path d="M114.6,44.68v-4.06h2.03c1.12,0,2.03-.91,2.03-2.03v-12.19c0-1.12-.91-2.03-2.03-2.03h-2.03v-4.06h2.03c1.12,0,2.03-.91,2.03-2.03v-2.03h4.06v22.34c0,1.12.91,2.03,2.03,2.03h2.03v4.06h-12.19ZM118.66,4.06V0h4.06v4.06h-4.06Z"/>
          <path d="M114.6,44.68v-4.06h2.03c1.12,0,2.03-.91,2.03-2.03v-12.19c0-1.12-.91-2.03-2.03-2.03h-2.03v-4.06h2.03c1.12,0,2.03-.91,2.03-2.03v-2.03h4.06v22.34c0,1.12.91,2.03,2.03,2.03h2.03v4.06h-12.19ZM118.66,4.06V0h4.06v4.06h-4.06Z"/>
        </g>
        <path d="M36.56,44.68v-4.06h6.09c.54,0,1.06-.21,1.44-.59.38-.38.59-.9.59-1.44V14.22c0-1.12-.91-2.03-2.03-2.03s-2.03.91-2.03,2.03v10.16h-2.03c-1.12,0-2.03.91-2.03,2.03v6.09h-2.03c-1.12,0-2.03.91-2.03,2.03v10.16h-4.06v-6.09c0-1.12-.91-2.03-2.03-2.03h-2.03v-2.03c0-1.12-.91-2.03-2.03-2.03h-2.03v-10.16c0-1.12-.91-2.03-2.03-2.03h-2.03v-6.09c0-1.12-.91-2.03-2.03-2.03s-2.03.91-2.03,2.03v24.37c0,1.12.91,2.03,2.03,2.03h6.09v4.06H0v-4.06h6.09c1.12,0,2.03-.91,2.03-2.03V6.09c0-1.12-.91-2.03-2.03-2.03H0V0h12.19v2.03c0,1.12.91,2.03,2.03,2.03h2.03v6.09c0,1.12.91,2.03,2.03,2.03h2.03v6.09c0,1.12.91,2.03,2.03,2.03h2.03v10.16c0,1.12.91,2.03,2.03,2.03h4.06c1.12,0,2.03-.91,2.03-2.03v-6.09h2.03c1.12,0,2.03-.91,2.03-2.03v-10.16h2.03c1.12,0,2.03-.91,2.03-2.03v-6.09h2.03c1.12,0,2.03-.91,2.03-2.03V0h12.19v4.06h-6.09c-1.12,0-2.03.91-2.03,2.03v32.5c0,1.12.91,2.03,2.03,2.03h6.09v4.06h-20.31Z"/>
        <path d="M75.09,44.68v-2.03c0-1.12-.91-2.03-2.03-2.03s-2.03.91-2.03,2.03v2.03h-8.12v-2.03c0-1.12-.91-2.03-2.03-2.03h-2.03v-18.28c0-1.12-.91-2.03-2.03-2.03h-2.03v-4.06h8.12v22.34c0,1.12.91,2.03,2.03,2.03h4.06c1.12,0,2.03-.91,2.03-2.03v-2.03h2.03c1.12,0,2.03-.91,2.03-2.03v-12.19c0-1.12-.91-2.03-2.03-2.03h-2.03v-4.06h8.12v18.28c0,1.12.91,2.03,2.03,2.03h2.03v4.06h-2.03c-1.12,0-2.03.91-2.03,2.03v2.03h-4.06Z"/>
        <path d="M84.19,44.68v-4.06h2.03c1.12,0,2.03-.91,2.03-2.03V10.15c0-1.12-.91-2.03-2.03-2.03h-2.03v-4.06h2.03c1.12,0,2.03-.91,2.03-2.03V0h4.06v38.59c0,1.12.91,2.03,2.03,2.03h2.03v4.06h-12.19Z"/>
        <path d="M99.89,44.68v-22.34c0-1.12-.91-2.03-2.03-2.03h-2.03v-4.06h2.03c1.12,0,2.03-.91,2.03-2.03v-6.09h4.06v6.09c0,1.12.91,2.03,2.03,2.03h6.09v4.06h-6.09c-1.12,0-2.03.91-2.03,2.03v16.25c0,1.12.91,2.03,2.03,2.03s2.03-.91,2.03-2.03v-2.03h4.06v4.06h-2.03c-1.12,0-2.03.91-2.03,2.03v2.03h-8.12Z"/>
        <path d="M148.08,44.68v-2.03c0-1.12-.91-2.03-2.03-2.03s-2.03.91-2.03,2.03v2.03h-8.12v-2.03c0-1.12-.91-2.03-2.03-2.03h-2.03v-2.03c0-1.12-.91-2.03-2.03-2.03h-2.03v-12.19h2.03c1.12,0,2.03-.91,2.03-2.03v-2.03h2.03c1.12,0,2.03-.91,2.03-2.03v-2.03h8.12v2.03c0,1.12.91,2.03,2.03,2.03s2.03-.91,2.03-2.03v-8.13c0-1.12-.91-2.03-2.03-2.03h-2.03v-4.06h2.03c1.12,0,2.03-.91,2.03-2.03V0h4.06v34.53c0,1.12.91,2.03,2.03,2.03h2.03v4.06h-2.03c-1.12,0-2.03.91-2.03,2.03v2.03h-4.06ZM133.86,24.37c-1.12,0-2.03.91-2.03,2.03v8.13c0,1.12.91,2.03,2.03,2.03h2.03v2.03c0,1.12.91,2.03,2.03,2.03h4.06c1.12,0,2.03-.91,2.03-2.03v-2.03h2.03c1.12,0,2.03-.91,2.03-2.03v-8.13c0-1.12-.91-2.03-2.03-2.03h-2.03v-2.03c0-1.12-.91-2.03-2.03-2.03h-4.06c-1.12,0-2.03.91-2.03,2.03v2.03h-2.03Z"/>
        <path d="M158.72,44.68v-4.06h2.03c1.12,0,2.03-.91,2.03-2.03v-12.19c0-1.12-.91-2.03-2.03-2.03h-2.03v-4.06h2.03c1.12,0,2.03-.91,2.03-2.03v-2.03h4.06v22.34c0,1.12.91,2.03,2.03,2.03h2.03v4.06h-12.19ZM162.79,4.06V0h4.06v4.06h-4.06Z"/>
        <path d="M173.43,44.68v-8.12h4.06v2.03c0,1.12.91,2.03,2.03,2.03h4.06c1.12,0,2.03-.91,2.03-2.03v-4.06c0-1.12-.91-2.03-2.03-2.03h-6.09v-2.03c0-1.12-.91-2.03-2.03-2.03h-2.03v-8.12h2.03c1.12,0,2.03-.91,2.03-2.03v-2.03h12.19v8.12h-4.06v-2.03c0-1.12-.91-2.03-2.03-2.03h-4.06c-1.12,0-2.03.91-2.03,2.03v4.06c0,1.12.91,2.03,2.03,2.03h6.09v2.03c0,1.12.91,2.03,2.03,2.03h2.03v8.12h-2.03c-1.12,0-2.03.91-2.03,2.03v2.03h-12.19Z"/>
        <path d="M196.27,44.68v-2.03c0-1.12-.91-2.03-2.03-2.03h-2.03v-20.31h2.03c1.12,0,2.03-.91,2.03-2.03v-2.03h12.19v2.03c0,1.12.91,2.03,2.03,2.03h2.03v4.06h-4.06v-2.03c0-1.12-.91-2.03-2.03-2.03h-8.13c-1.12,0-2.03.91-2.03,2.03v16.25c0,1.12.91,2.03,2.03,2.03h8.13c1.12,0,2.03-.91,2.03-2.03v-2.03h4.06v4.06h-2.03c-1.12,0-2.03.91-2.03,2.03v2.03h-12.19Z"/>
        <path d="M216.58,44.68v-4.06h2.03c1.12,0,2.03-.91,2.03-2.03v-12.19c0-1.12-.91-2.03-2.03-2.03h-2.03v-4.06h2.03c1.12,0,2.03-.91,2.03-2.03v-2.03h4.06v22.34c0,1.12.91,2.03,2.03,2.03h2.03v4.06h-12.19ZM220.64,4.06V0h4.06v4.06h-4.06Z"/>
        <path d="M228.21,56.87v-4.06h2.03c1.12,0,2.03-.91,2.03-2.03v-24.37c0-1.12-.91-2.03-2.03-2.03h-2.03v-4.06h2.03c1.12,0,2.03-.91,2.03-2.03v-2.03h4.06v2.03c0,1.12.91,2.03,2.03,2.03s2.03-.91,2.03-2.03v-2.03h8.12v2.03c0,1.12.91,2.03,2.03,2.03h2.03v2.03c0,1.12.91,2.03,2.03,2.03h2.03v12.19h-2.03c-1.12,0-2.03.91-2.03,2.03v2.03h-2.03c-1.12,0-2.03.91-2.03,2.03v2.03h-8.12v-2.03c0-1.12-.91-2.03-2.03-2.03s-2.03.91-2.03,2.03v8.13c0,1.12.91,2.03,2.03,2.03h2.03v4.06h-12.19ZM238.36,24.37c-1.12,0-2.03.91-2.03,2.03v8.13c0,1.12.91,2.03,2.03,2.03h2.03v2.03c0,1.12.91,2.03,2.03,2.03h4.06c1.12,0,2.03-.91,2.03-2.03v-2.03h2.03c1.12,0,2.03-.91,2.03-2.03v-8.13c0-1.12-.91-2.03-2.03-2.03h-2.03v-2.03c0-1.12-.91-2.03-2.03-2.03h-4.06c-1.12,0-2.03.91-2.03,2.03v2.03h-2.03Z"/>
        <path d="M256.09,44.68v-4.06h2.03c1.12,0,2.03-.91,2.03-2.03V10.15c0-1.12-.91-2.03-2.03-2.03h-2.03v-4.06h2.03c1.12,0,2.03-.91,2.03-2.03V0h4.06v38.59c0,1.12.91,2.03,2.03,2.03h2.03v4.06h-12.19Z"/>
        <path d="M270.8,44.68v-4.06h2.03c1.12,0,2.03-.91,2.03-2.03v-12.19c0-1.12-.91-2.03-2.03-2.03h-2.03v-4.06h2.03c1.12,0,2.03-.91,2.03-2.03v-2.03h4.06v22.34c0,1.12.91,2.03,2.03,2.03h2.03v4.06h-12.19ZM274.86,4.06V0h4.06v4.06h-4.06Z"/>
        <path d="M301.76,44.68v-4.06h2.03c1.12,0,2.03-.91,2.03-2.03v-16.25c0-1.12-.91-2.03-2.03-2.03h-4.06c-1.12,0-2.03.91-2.03,2.03v2.03h-2.03c-1.12,0-2.03.91-2.03,2.03v12.19c0,1.12.91,2.03,2.03,2.03h2.03v4.06h-12.19v-4.06h2.03c1.12,0,2.03-.91,2.03-2.03v-12.19c0-1.12-.91-2.03-2.03-2.03h-2.03v-4.06h2.03c1.12,0,2.03-.91,2.03-2.03v-2.03h4.06v2.03c0,1.12.91,2.03,2.03,2.03s2.03-.91,2.03-2.03v-2.03h8.12v2.03c0,1.12.91,2.03,2.03,2.03h2.03v18.28c0,1.12.91,2.03,2.03,2.03h2.03v4.06h-12.19Z"/>
        <path d="M332.71,44.68v-2.03c0-1.12-.91-2.03-2.03-2.03h0c-1.12,0-2.03.91-2.03,2.03v2.03h-12.19v-12.19h2.03c1.12,0,2.03-.91,2.03-2.03v-2.03h6.09c1.12,0,2.03-.91,2.03-2.03v-2.03h2.03c1.12,0,2.03-.91,2.03-2.03s-.91-2.03-2.03-2.03h-8.13c-1.12,0-2.03.91-2.03,2.03v2.03h-4.06v-4.06h2.03c1.12,0,2.03-.91,2.03-2.03v-2.03h12.19v2.03c0,1.12.91,2.03,2.03,2.03h2.03v18.28c0,1.12.91,2.03,2.03,2.03h2.03v4.06h-8.12ZM322.56,32.5c-1.12,0-2.03.91-2.03,2.03v4.06c0,1.12.91,2.03,2.03,2.03h4.06c1.12,0,2.03-.91,2.03-2.03v-2.03h2.03c.54,0,1.06-.21,1.44-.59.38-.38.59-.9.59-1.44v-4.06c0-1.12-.91-2.03-2.03-2.03-1.12,0-2.03.91-2.03,2.03v2.03h-6.09Z"/>
        <path d="M343.36,44.68v-4.06h2.03c1.12,0,2.03-.91,2.03-2.03v-12.19c0-1.12-.91-2.03-2.03-2.03h-2.03v-4.06h2.03c1.12,0,2.03-.91,2.03-2.03v-2.03h4.06v2.03c0,1.12.91,2.03,2.03,2.03h0c1.12,0,2.03-.91,2.03-2.03v-2.03h8.12v4.06h-6.09c-1.12,0-2.03.91-2.03,2.03v2.03h-2.03c-1.12,0-2.03.91-2.03,2.03v12.19c0,1.12.91,2.03,2.03,2.03h2.03v4.06h-12.19Z"/>
        <path d="M366.19,56.87v-4.06h6.09c1.12,0,2.03-.91,2.03-2.03v-2.03h2.03c1.12,0,2.03-.91,2.03-2.03v-8.13c0-1.12-.91-2.03-2.03-2.03h-2.03v-6.09c0-1.12-.91-2.03-2.03-2.03h-2.03v-6.09c0-1.12-.91-2.03-2.03-2.03h-2.03v-4.06h12.19v4.06h-2.03c-1.12,0-2.03.91-2.03,2.03v4.06c0,1.12.91,2.03,2.03,2.03h2.03v6.09c0,1.12.91,2.03,2.03,2.03s2.03-.91,2.03-2.03v-6.09h2.03c1.12,0,2.03-.91,2.03-2.03v-4.06c0-1.12-.91-2.03-2.03-2.03h-2.03v-4.06h12.19v4.06h-2.03c-1.12,0-2.03.91-2.03,2.03v6.09h-2.03c-1.12,0-2.03.91-2.03,2.03v10.16h-2.03c-1.12,0-2.03.91-2.03,2.03v6.09h-2.03c-1.12,0-2.03.91-2.03,2.03v2.03h-2.03c-1.12,0-2.03.91-2.03,2.03v2.03h-8.12Z"/>
      </g>
      <g>
        <path d="M435.74,44.68v-2.03c0-1.12-.91-2.03-2.03-2.03s-2.03.91-2.03,2.03v2.03h-8.12v-2.03c0-1.12-.91-2.03-2.03-2.03h-2.03v-2.03c0-1.12-.91-2.03-2.03-2.03h-2.03v-12.19h2.03c1.12,0,2.03-.91,2.03-2.03v-2.03h2.03c1.12,0,2.03-.91,2.03-2.03v-2.03h8.12v2.03c0,1.12.91,2.03,2.03,2.03s2.03-.91,2.03-2.03v-8.13c0-1.12-.91-2.03-2.03-2.03h-2.03v-4.06h2.03c1.12,0,2.03-.91,2.03-2.03V0h4.06v34.53c0,1.12.91,2.03,2.03,2.03h2.03v4.06h-2.03c-1.12,0-2.03.91-2.03,2.03v2.03h-4.06ZM421.52,24.37c-1.12,0-2.03.91-2.03,2.03v8.13c0,1.12.91,2.03,2.03,2.03h2.03v2.03c0,1.12.91,2.03,2.03,2.03h4.06c1.12,0,2.03-.91,2.03-2.03v-2.03h2.03c1.12,0,2.03-.91,2.03-2.03v-8.13c0-1.12-.91-2.03-2.03-2.03h-2.03v-2.03c0-1.12-.91-2.03-2.03-2.03h-4.06c-1.12,0-2.03.91-2.03,2.03v2.03h-2.03Z"/>
        <path d="M450.45,44.68v-2.03c0-1.12-.91-2.03-2.03-2.03h-2.03v-20.31h2.03c1.12,0,2.03-.91,2.03-2.03v-2.03h12.19v2.03c0,1.12.91,2.03,2.03,2.03h2.03v8.12h-14.22c-1.12,0-2.03.91-2.03,2.03v8.13c0,1.12.91,2.03,2.03,2.03h8.13c1.12,0,2.03-.91,2.03-2.03v-2.03h4.06v4.06h-2.03c-1.12,0-2.03.91-2.03,2.03v2.03h-12.19ZM452.48,20.31c-1.12,0-2.03.91-2.03,2.03h0c0,1.12.91,2.03,2.03,2.03h8.13c1.12,0,2.03-.91,2.03-2.03s-.91-2.03-2.03-2.03h-8.13Z"/>
        <path d="M469.22,44.68v-8.12h4.06v2.03c0,1.12.91,2.03,2.03,2.03h4.06c1.12,0,2.03-.91,2.03-2.03v-4.06c0-1.12-.91-2.03-2.03-2.03h-6.09v-2.03c0-1.12-.91-2.03-2.03-2.03h-2.03v-8.12h2.03c1.12,0,2.03-.91,2.03-2.03v-2.03h12.19v8.12h-4.06v-2.03c0-1.12-.91-2.03-2.03-2.03h-4.06c-1.12,0-2.03.91-2.03,2.03v4.06c0,1.12.91,2.03,2.03,2.03h6.09v2.03c0,1.12.91,2.03,2.03,2.03h2.03v8.12h-2.03c-1.12,0-2.03.91-2.03,2.03v2.03h-12.19Z"/>
        <path d="M487.99,44.68v-4.06h2.03c1.12,0,2.03-.91,2.03-2.03v-12.19c0-1.12-.91-2.03-2.03-2.03h-2.03v-4.06h2.03c1.12,0,2.03-.91,2.03-2.03v-2.03h4.06v22.34c0,1.12.91,2.03,2.03,2.03h2.03v4.06h-12.19ZM492.06,4.06V0h4.06v4.06h-4.06Z"/>
        <path d="M504.24,56.87v-2.03c0-1.12-.91-2.03-2.03-2.03h-2.03v-8.12h2.03c1.12,0,2.03-.91,2.03-2.03v-6.09h2.03c1.12,0,2.03-.91,2.03-2.03s-.91-2.03-2.03-2.03h-2.03v-12.19h2.03c1.12,0,2.03-.91,2.03-2.03v-2.03h20.31v4.06h-2.03c-1.12,0-2.03.91-2.03,2.03v10.16h-2.03c-1.12,0-2.03.91-2.03,2.03v2.03h-10.16c-1.12,0-2.03.91-2.03,2.03s.91,2.03,2.03,2.03h14.22v2.03c0,1.12.91,2.03,2.03,2.03h2.03v8.12h-2.03c-1.12,0-2.03.91-2.03,2.03v2.03h-20.31ZM506.27,44.68c-1.12,0-2.03.91-2.03,2.03v4.06c0,1.12.91,2.03,2.03,2.03h16.25c1.12,0,2.03-.91,2.03-2.03v-4.06c0-1.12-.91-2.03-2.03-2.03h-16.25ZM510.33,20.31c-1.12,0-2.03.91-2.03,2.03v8.13c0,1.12.91,2.03,2.03,2.03h8.13c1.12,0,2.03-.91,2.03-2.03v-8.13c0-1.12-.91-2.03-2.03-2.03h-8.13Z"/>
        <path d="M545.85,44.68v-4.06h2.03c1.12,0,2.03-.91,2.03-2.03v-16.25c0-1.12-.91-2.03-2.03-2.03h-4.06c-1.12,0-2.03.91-2.03,2.03v2.03h-2.03c-1.12,0-2.03.91-2.03,2.03v12.19c0,1.12.91,2.03,2.03,2.03h2.03v4.06h-12.19v-4.06h2.03c1.12,0,2.03-.91,2.03-2.03v-12.19c0-1.12-.91-2.03-2.03-2.03h-2.03v-4.06h2.03c1.12,0,2.03-.91,2.03-2.03v-2.03h4.06v2.03c0,1.12.91,2.03,2.03,2.03h0c1.12,0,2.03-.91,2.03-2.03v-2.03h8.12v2.03c0,1.12.91,2.03,2.03,2.03h2.03v18.28c0,1.12.91,2.03,2.03,2.03h2.03v4.06h-12.19Z"/>
        <path d="M563.36,44.68v-2.03c0-1.12-.91-2.03-2.03-2.03h-2.03v-20.31h2.03c1.12,0,2.03-.91,2.03-2.03v-2.03h12.19v2.03c0,1.12.91,2.03,2.03,2.03h2.03v8.12h-14.22c-1.12,0-2.03.91-2.03,2.03v8.13c0,1.12.91,2.03,2.03,2.03h8.13c1.12,0,2.03-.91,2.03-2.03v-2.03h4.06v4.06h-2.03c-1.12,0-2.03.91-2.03,2.03v2.03h-12.19ZM565.39,20.31c-1.12,0-2.03.91-2.03,2.03h0c0,1.12.91,2.03,2.03,2.03h8.13c1.12,0,2.03-.91,2.03-2.03s-.91-2.03-2.03-2.03h-8.13Z"/>
        <path d="M582.13,44.68v-4.06h2.03c1.12,0,2.03-.91,2.03-2.03v-12.19c0-1.12-.91-2.03-2.03-2.03h-2.03v-4.06h2.03c1.12,0,2.03-.91,2.03-2.03v-2.03h4.06v2.03c0,1.12.91,2.03,2.03,2.03s2.03-.91,2.03-2.03v-2.03h8.12v4.06h-6.09c-1.12,0-2.03.91-2.03,2.03v2.03h-2.03c-1.12,0-2.03.91-2.03,2.03v12.19c0,1.12.91,2.03,2.03,2.03h2.03v4.06h-12.19Z"/>
      </g>
      <g>
        <g>
          <path d="M190.9,106.13v-2.03c0-1.12-.91-2.03-2.03-2.03h-2.03v-30.47c0-1.12-.91-2.03-2.03-2.03h-2.03v-4.06h2.03c1.12,0,2.03-.91,2.03-2.03v-2.03h4.06v18.28c0,1.12.91,2.03,2.03,2.03s2.03-.91,2.03-2.03v-2.03h8.12v2.03c0,1.12.91,2.03,2.03,2.03h2.03v2.03c0,1.12.91,2.03,2.03,2.03h2.03v12.19h-2.03c-1.12,0-2.03.91-2.03,2.03v2.03h-2.03c-1.12,0-2.03.91-2.03,2.03v2.03h-12.19ZM192.93,85.82c-1.12,0-2.03.91-2.03,2.03v12.19c0,1.12.91,2.03,2.03,2.03h8.13c1.12,0,2.03-.91,2.03-2.03v-2.03h2.03c1.12,0,2.03-.91,2.03-2.03v-8.13c0-1.12-.91-2.03-2.03-2.03h-2.03v-2.03c0-1.12-.91-2.03-2.03-2.03h-4.06c-1.12,0-2.03.91-2.03,2.03v2.03h-2.03Z"/>
          <path d="M229.98,106.13v-2.03c0-1.12-.91-2.03-2.03-2.03s-2.03.91-2.03,2.03v2.03h-12.19v-12.19h2.03c1.12,0,2.03-.91,2.03-2.03v-2.03h6.09c1.12,0,2.03-.91,2.03-2.03v-2.03h2.03c1.12,0,2.03-.91,2.03-2.03s-.91-2.03-2.03-2.03h-8.13c-1.12,0-2.03.91-2.03,2.03v2.03h-4.06v-4.06h2.03c1.12,0,2.03-.91,2.03-2.03v-2.03h12.19v2.03c0,1.12.91,2.03,2.03,2.03h2.03v18.28c0,1.12.91,2.03,2.03,2.03h2.03v4.06h-8.12ZM219.82,93.94c-1.12,0-2.03.91-2.03,2.03v4.06c0,1.12.91,2.03,2.03,2.03h4.06c1.12,0,2.03-.91,2.03-2.03v-2.03h2.03c1.12,0,2.03-.91,2.03-2.03v-4.06c0-1.12-.91-2.03-2.03-2.03s-2.03.91-2.03,2.03v2.03h-6.09Z"/>
          <path d="M240.63,106.13v-8.12h4.06v2.03c0,1.12.91,2.03,2.03,2.03h4.06c1.12,0,2.03-.91,2.03-2.03v-4.06c0-1.12-.91-2.03-2.03-2.03h-6.09v-2.03c0-1.12-.91-2.03-2.03-2.03h-2.03v-8.12h2.03c1.12,0,2.03-.91,2.03-2.03v-2.03h12.19v8.12h-4.06v-2.03c0-1.12-.91-2.03-2.03-2.03h-4.06c-1.12,0-2.03.91-2.03,2.03v4.06c0,1.12.91,2.03,2.03,2.03h6.09v2.03c0,1.12.91,2.03,2.03,2.03h2.03v8.12h-2.03c-1.12,0-2.03.91-2.03,2.03v2.03h-12.19Z"/>
          <path d="M263.46,106.13v-2.03c0-1.12-.91-2.03-2.03-2.03h-2.03v-20.31h2.03c1.12,0,2.03-.91,2.03-2.03v-2.03h12.19v2.03c0,1.12.91,2.03,2.03,2.03h2.03v8.12h-14.22c-1.12,0-2.03.91-2.03,2.03v8.13c0,1.12.91,2.03,2.03,2.03h8.13c1.12,0,2.03-.91,2.03-2.03v-2.03h4.06v4.06h-2.03c-1.12,0-2.03.91-2.03,2.03v2.03h-12.19ZM265.49,81.75c-1.12,0-2.03.91-2.03,2.03h0c0,1.12.91,2.03,2.03,2.03h8.13c1.12,0,2.03-.91,2.03-2.03s-.91-2.03-2.03-2.03h-8.13Z"/>
          <path d="M302.54,106.13v-2.03c0-1.12-.91-2.03-2.03-2.03h0c-1.12,0-2.03.91-2.03,2.03v2.03h-8.12v-2.03c0-1.12-.91-2.03-2.03-2.03h-2.03v-2.03c0-1.12-.91-2.03-2.03-2.03h-2.03v-12.19h2.03c1.12,0,2.03-.91,2.03-2.03v-2.03h2.03c1.12,0,2.03-.91,2.03-2.03v-2.03h8.12v2.03c0,1.12.91,2.03,2.03,2.03h0c1.12,0,2.03-.91,2.03-2.03v-8.13c0-1.12-.91-2.03-2.03-2.03h-2.03v-4.06h2.03c1.12,0,2.03-.91,2.03-2.03v-2.03h4.06v34.53c0,1.12.91,2.03,2.03,2.03h2.03v4.06h-2.03c-1.12,0-2.03.91-2.03,2.03v2.03h-4.06ZM288.32,85.82c-1.12,0-2.03.91-2.03,2.03v8.13c0,1.12.91,2.03,2.03,2.03h2.03v2.03c0,1.12.91,2.03,2.03,2.03h4.06c1.12,0,2.03-.91,2.03-2.03v-2.03h2.03c1.12,0,2.03-.91,2.03-2.03v-8.13c0-1.12-.91-2.03-2.03-2.03h-2.03v-2.03c0-1.12-.91-2.03-2.03-2.03h-4.06c-1.12,0-2.03.91-2.03,2.03v2.03h-2.03Z"/>
        </g>
        <g>
          <path d="M331.75,106.13v-4.06h2.03c1.12,0,2.03-.91,2.03-2.03v-12.19c0-1.12-.91-2.03-2.03-2.03h-2.03v-4.06h2.03c1.12,0,2.03-.91,2.03-2.03v-2.03h4.06v22.34c0,1.12.91,2.03,2.03,2.03h2.03v4.06h-12.19ZM335.81,65.51v-4.06h4.06v4.06h-4.06Z"/>
          <path d="M362.7,106.13v-4.06h2.03c1.12,0,2.03-.91,2.03-2.03v-16.25c0-1.12-.91-2.03-2.03-2.03h-4.06c-1.12,0-2.03.91-2.03,2.03v2.03h-2.03c-1.12,0-2.03.91-2.03,2.03v12.19c0,1.12.91,2.03,2.03,2.03h2.03v4.06h-12.19v-4.06h2.03c1.12,0,2.03-.91,2.03-2.03v-12.19c0-1.12-.91-2.03-2.03-2.03h-2.03v-4.06h2.03c1.12,0,2.03-.91,2.03-2.03v-2.03h4.06v2.03c0,1.12.91,2.03,2.03,2.03h0c1.12,0,2.03-.91,2.03-2.03v-2.03h8.12v2.03c0,1.12.91,2.03,2.03,2.03h2.03v18.28c0,1.12.91,2.03,2.03,2.03h2.03v4.06h-12.19Z"/>
        </g>
        <g>
          <path d="M402.57,105.85v-2.03c0-1.12-.91-2.03-2.03-2.03s-2.03.91-2.03,2.03v2.03h-4.06v-12.19h4.06v2.03c0,1.12.91,2.03,2.03,2.03h2.03v2.03c0,1.12.91,2.03,2.03,2.03h8.13c1.12,0,2.03-.91,2.03-2.03v-2.03h2.03c1.12,0,2.03-.91,2.03-2.03v-4.06c0-1.12-.91-2.03-2.03-2.03h-2.03v-2.03c0-1.12-.91-2.03-2.03-2.03h-6.09v-2.03c0-1.12-.91-2.03-2.03-2.03h-6.09v-2.03c0-1.12-.91-2.03-2.03-2.03h-2.03v-8.12h2.03c1.12,0,2.03-.91,2.03-2.03v-2.03h2.03c1.12,0,2.03-.91,2.03-2.03v-2.03h12.19v2.03c0,1.12.91,2.03,2.03,2.03h0c1.12,0,2.03-.91,2.03-2.03v-2.03h4.06v12.19h-4.06v-2.03c0-1.12-.91-2.03-2.03-2.03h-2.03v-2.03c0-1.12-.91-2.03-2.03-2.03h-8.13c-1.12,0-2.03.91-2.03,2.03v2.03h-2.03c-1.12,0-2.03.91-2.03,2.03v4.06c0,1.12.91,2.03,2.03,2.03h6.09v2.03c0,1.12.91,2.03,2.03,2.03h6.09v2.03c0,1.12.91,2.03,2.03,2.03h2.03v2.03c0,1.12.91,2.03,2.03,2.03h2.03v8.12h-2.03c-1.12,0-2.03.91-2.03,2.03v2.03h-2.03c-1.12,0-2.03.91-2.03,2.03v2.03h-12.19Z"/>
          <path d="M441.65,105.85v-2.03c0-1.12-.91-2.03-2.03-2.03s-2.03.91-2.03,2.03v2.03h-12.19v-12.19h2.03c1.12,0,2.03-.91,2.03-2.03v-2.03h6.09c1.12,0,2.03-.91,2.03-2.03v-2.03h2.03c1.12,0,2.03-.91,2.03-2.03s-.91-2.03-2.03-2.03h-8.13c-1.12,0-2.03.91-2.03,2.03v2.03h-4.06v-4.06h2.03c1.12,0,2.03-.91,2.03-2.03v-2.03h12.19v2.03c0,1.12.91,2.03,2.03,2.03h2.03v18.28c0,1.12.91,2.03,2.03,2.03h2.03v4.06h-8.12ZM431.5,93.66c-1.12,0-2.03.91-2.03,2.03v4.06c0,1.12.91,2.03,2.03,2.03h4.06c1.12,0,2.03-.91,2.03-2.03v-2.03h2.03c1.12,0,2.03-.91,2.03-2.03v-4.06c0-1.12-.91-2.03-2.03-2.03s-2.03.91-2.03,2.03v2.03h-6.09Z"/>
          <path d="M468.55,105.85v-4.06h2.03c1.12,0,2.03-.91,2.03-2.03v-16.25c0-1.12-.91-2.03-2.03-2.03h-4.06c-1.12,0-2.03.91-2.03,2.03v2.03h-2.03c-1.12,0-2.03.91-2.03,2.03v12.19c0,1.12.91,2.03,2.03,2.03h2.03v4.06h-12.19v-4.06h2.03c1.12,0,2.03-.91,2.03-2.03v-12.19c0-1.12-.91-2.03-2.03-2.03h-2.03v-4.06h2.03c1.12,0,2.03-.91,2.03-2.03v-2.03h4.06v2.03c0,1.12.91,2.03,2.03,2.03h0c1.12,0,2.03-.91,2.03-2.03v-2.03h8.12v2.03c0,1.12.91,2.03,2.03,2.03h2.03v18.28c0,1.12.91,2.03,2.03,2.03h2.03v4.06h-12.19Z"/>
          <path d="M484.24,105.85v-22.34c0-1.12-.91-2.03-2.03-2.03h-2.03v-4.06h2.03c1.12,0,2.03-.91,2.03-2.03v-6.09h4.06v6.09c0,1.12.91,2.03,2.03,2.03h6.09v4.06h-6.09c-1.12,0-2.03.91-2.03,2.03v16.25c0,1.12.91,2.03,2.03,2.03s2.03-.91,2.03-2.03v-2.03h4.06v4.06h-2.03c-1.12,0-2.03.91-2.03,2.03v2.03h-8.12Z"/>
          <path d="M498.95,105.85v-4.06h2.03c1.12,0,2.03-.91,2.03-2.03v-12.19c0-1.12-.91-2.03-2.03-2.03h-2.03v-4.06h2.03c1.12,0,2.03-.91,2.03-2.03v-2.03h4.06v22.34c0,1.12.91,2.03,2.03,2.03h2.03v4.06h-12.19ZM503.01,65.23v-4.06h4.06v4.06h-4.06Z"/>
          <path d="M529.91,105.85v-2.03c0-1.12-.91-2.03-2.03-2.03s-2.03.91-2.03,2.03v2.03h-12.19v-12.19h2.03c1.12,0,2.03-.91,2.03-2.03v-2.03h6.09c1.12,0,2.03-.91,2.03-2.03v-2.03h2.03c1.12,0,2.03-.91,2.03-2.03s-.91-2.03-2.03-2.03h-8.13c-1.12,0-2.03.91-2.03,2.03v2.03h-4.06v-4.06h2.03c1.12,0,2.03-.91,2.03-2.03v-2.03h12.19v2.03c0,1.12.91,2.03,2.03,2.03h2.03v18.28c0,1.12.91,2.03,2.03,2.03h2.03v4.06h-8.12ZM519.75,93.66c-1.12,0-2.03.91-2.03,2.03v4.06c0,1.12.91,2.03,2.03,2.03h4.06c1.12,0,2.03-.91,2.03-2.03v-2.03h2.03c1.12,0,2.03-.91,2.03-2.03v-4.06c0-1.12-.91-2.03-2.03-2.03s-2.03.91-2.03,2.03v2.03h-6.09Z"/>
          <path d="M542.09,118.04v-2.03c0-1.12-.91-2.03-2.03-2.03h-2.03v-8.12h2.03c1.12,0,2.03-.91,2.03-2.03v-6.09h2.03c1.12,0,2.03-.91,2.03-2.03s-.91-2.03-2.03-2.03h-2.03v-12.19h2.03c1.12,0,2.03-.91,2.03-2.03v-2.03h20.31v4.06h-2.03c-1.12,0-2.03.91-2.03,2.03v10.16h-2.03c-1.12,0-2.03.91-2.03,2.03v2.03h-10.16c-1.12,0-2.03.91-2.03,2.03s.91,2.03,2.03,2.03h14.22v2.03c0,1.12.91,2.03,2.03,2.03h2.03v8.12h-2.03c-1.12,0-2.03.91-2.03,2.03v2.03h-20.31ZM544.12,105.85c-1.12,0-2.03.91-2.03,2.03v4.06c0,1.12.91,2.03,2.03,2.03h16.25c1.12,0,2.03-.91,2.03-2.03v-4.06c0-1.12-.91-2.03-2.03-2.03h-16.25ZM548.19,81.48c-1.12,0-2.03.91-2.03,2.03v8.13c0,1.12.91,2.03,2.03,2.03h8.13c1.12,0,2.03-.91,2.03-2.03v-8.13c0-1.12-.91-2.03-2.03-2.03h-8.13Z"/>
          <path d="M574.04,105.85v-2.03c0-1.12-.91-2.03-2.03-2.03h-2.03v-2.03c0-1.12-.91-2.03-2.03-2.03h-2.03v-12.19h2.03c1.12,0,2.03-.91,2.03-2.03v-2.03h2.03c1.12,0,2.03-.91,2.03-2.03v-2.03h8.12v2.03c0,1.12.91,2.03,2.03,2.03h2.03v2.03c0,1.12.91,2.03,2.03,2.03h2.03v12.19h-2.03c-1.12,0-2.03.91-2.03,2.03v2.03h-2.03c-1.12,0-2.03.91-2.03,2.03v2.03h-8.12ZM572,85.54c-1.12,0-2.03.91-2.03,2.03v8.13c0,1.12.91,2.03,2.03,2.03h2.03v2.03c0,1.12.91,2.03,2.03,2.03h4.06c1.12,0,2.03-.91,2.03-2.03v-2.03h2.03c1.12,0,2.03-.91,2.03-2.03v-8.13c0-1.12-.91-2.03-2.03-2.03h-2.03v-2.03c0-1.12-.91-2.03-2.03-2.03h-4.06c-1.12,0-2.03.91-2.03,2.03v2.03h-2.03Z"/>
          <path d="M594.35,113.97v-4.06h2.03c1.12,0,2.03-.91,2.03-2.03s-.91-2.03-2.03-2.03h-2.03v-4.06h8.12v8.12h-2.03c-1.12,0-2.03.91-2.03,2.03v2.03h-4.06Z"/>
        </g>
        <g>
          <path d="M631.13,105.85v-2.03c0-1.12-.91-2.03-2.03-2.03h-2.03v-2.03c0-1.12-.91-2.03-2.03-2.03h-2.03v-2.03c0-1.12-.91-2.03-2.03-2.03h-2.03v-20.31h2.03c1.12,0,2.03-.91,2.03-2.03v-2.03h2.03c1.12,0,2.03-.91,2.03-2.03v-2.03h2.03c1.12,0,2.03-.91,2.03-2.03v-2.03h16.25v2.03c0,1.12.91,2.03,2.03,2.03h0c1.12,0,2.03-.91,2.03-2.03v-2.03h4.06v16.25h-4.06v-6.09c0-1.12-.91-2.03-2.03-2.03h-2.03v-2.03c0-1.12-.91-2.03-2.03-2.03h-12.19c-1.12,0-2.03.91-2.03,2.03v2.03h-2.03c-1.12,0-2.03.91-2.03,2.03v2.03h-2.03c-1.12,0-2.03.91-2.03,2.03v16.25c0,1.12.91,2.03,2.03,2.03h2.03v2.03c0,1.12.91,2.03,2.03,2.03h2.03v2.03c0,1.12.91,2.03,2.03,2.03h12.19c1.12,0,2.03-.91,2.03-2.03v-2.03h2.03c1.12,0,2.03-.91,2.03-2.03v-2.03h4.06v4.06h-2.03c-1.12,0-2.03.91-2.03,2.03v2.03h-2.03c-1.12,0-2.03.91-2.03,2.03v2.03h-16.25Z"/>
          <path d="M658.03,105.85v-4.06h6.09c1.12,0,2.03-.91,2.03-2.03v-32.5c0-1.12-.91-2.03-2.03-2.03h-6.09v-4.06h20.31v4.06h-6.09c-1.12,0-2.03.91-2.03,2.03v32.5c0,1.12.91,2.03,2.03,2.03h12.19c1.12,0,2.03-.91,2.03-2.03v-2.03h2.03c1.12,0,2.03-.91,2.03-2.03v-2.03h4.06v4.06h-2.03c-1.12,0-2.03.91-2.03,2.03v6.09h-32.5Z"/>
        </g>
      </g>
    </g>
  </g>
</svg>