<?xml version="1.0" encoding="UTF-8"?>
<svg id="Layer_2" data-name="Layer 2" xmlns="http://www.w3.org/2000/svg" viewBox="0 0 137.02 138.74">
  <g id="Layer_1-2" data-name="Layer 1">
    <g>
      <path d="M14.33,23.32c-.04-1.57.61-3.04,1.92-4.42,1.28-1.34,2.63-2.03,4.05-2.09,1.42-.06,2.75.5,3.98,1.68l.25.24-1.5,1.57-.27-.26c-.77-.74-1.62-1.1-2.53-1.09-.91.01-1.77.44-2.58,1.29-.86.9-1.26,1.88-1.19,2.92.06,1.05.59,2.04,1.56,2.97l2.51,2.4c.98.93,1.99,1.41,3.04,1.42,1.05.02,2-.42,2.86-1.33.82-.86,1.22-1.74,1.18-2.64s-.43-1.72-1.21-2.46l-.37-.35,1.5-1.57.35.33c1.22,1.17,1.83,2.47,1.82,3.9,0,1.44-.63,2.81-1.89,4.13-1.33,1.39-2.77,2.1-4.33,2.13-1.56.03-3.06-.64-4.5-2.02l-2.45-2.34c-1.44-1.38-2.18-2.85-2.22-4.42Z"/>
      <path d="M27.33,18.4c-.11-.98.05-1.9.47-2.78.42-.87,1.08-1.62,1.97-2.23.89-.62,1.82-.97,2.79-1.06.96-.09,1.89.09,2.77.53.88.44,1.65,1.12,2.29,2.05.64.93,1.01,1.88,1.11,2.86.1.98-.07,1.9-.49,2.77-.42.87-1.08,1.62-1.97,2.23-.88.61-1.81.96-2.78,1.05-.97.09-1.89-.08-2.77-.52-.88-.44-1.63-1.12-2.28-2.05s-1.02-1.88-1.12-2.86ZM32.55,21.87c.92.21,1.82.01,2.68-.59.87-.6,1.37-1.37,1.5-2.32s-.14-1.9-.81-2.87c-.67-.96-1.47-1.56-2.4-1.77-.94-.22-1.84-.03-2.71.57-.86.59-1.34,1.37-1.47,2.33-.12.96.15,1.91.81,2.87.68.98,1.47,1.57,2.4,1.78Z"/>
      <path d="M39.38,10.05l.2-.09c.03-.62.25-1.22.64-1.79.39-.57,1.04-1.05,1.94-1.44.74-.32,1.48-.44,2.21-.37.73.07,1.4.35,2.01.82.6.47,1.09,1.13,1.46,1.98l2.59,5.98-1.88.81-2.54-5.88c-.38-.89-.89-1.46-1.53-1.7-.63-.24-1.36-.19-2.18.17-.9.39-1.49,1-1.77,1.84-.28.84-.17,1.81.3,2.91l2.19,5.05-1.9.82-4.29-9.91,1.86-.8.69,1.6Z"/>
      <path d="M50.5,4.08l-.89-3.59,2.01-.5.89,3.59,3.25-.8.41,1.65-3.25.8,1.62,6.56c.11.43.36.59.76.49l2.24-.55.41,1.64-2.9.72c-.58.14-1.1.08-1.54-.19-.44-.27-.74-.7-.89-1.3l-1.7-6.88-3.03.75-.41-1.64,3.03-.75Z"/>
      <path d="M59.35,2.86c.73-.66,1.74-1.04,3.03-1.15,1.39-.12,2.51.15,3.36.8.85.65,1.33,1.62,1.43,2.91l.58,6.99-1.97.16-.12-1.45-.26.02c-.55,1.22-1.6,1.9-3.16,2.03-1.16.1-2.13-.13-2.93-.67s-1.24-1.34-1.33-2.4c-.09-1.07.22-1.92.92-2.56.7-.64,1.66-1.01,2.88-1.11l3.42-.28-.06-.7c-.06-.69-.31-1.22-.76-1.59-.45-.37-1.08-.53-1.88-.46-.77.06-1.38.31-1.8.74-.43.43-.69.97-.78,1.62l-1.98-.45c.21-.97.69-1.79,1.42-2.45ZM60.74,11.13c.43.29.99.4,1.7.34.95-.08,1.69-.43,2.23-1.05.54-.62.77-1.41.68-2.38l-.02-.22-3.31.28c-.64.05-1.15.24-1.51.56-.36.32-.52.73-.48,1.24.04.53.28.93.71,1.22Z"/>
      <path d="M69.68,4.11c.58-.82,1.32-1.43,2.21-1.83.89-.4,1.86-.55,2.9-.44,1.4.14,2.52.64,3.36,1.5.84.86,1.3,1.9,1.41,3.12l-2.05.22c0-.81-.27-1.5-.77-2.05-.51-.56-1.2-.88-2.09-.97-.67-.07-1.29.04-1.85.3-.56.27-1.03.68-1.39,1.24-.37.56-.58,1.22-.66,1.98-.07.76.01,1.45.26,2.06.25.61.63,1.11,1.14,1.48.51.37,1.09.59,1.75.66.92.09,1.67-.08,2.26-.52.59-.44,1-1.07,1.23-1.9l1.95.66c-.4,1.2-1.08,2.13-2.05,2.79-.97.66-2.17.93-3.58.79-1.04-.1-1.95-.44-2.75-1-.8-.56-1.4-1.31-1.82-2.22-.41-.92-.56-1.92-.46-3,.11-1.09.45-2.05,1.03-2.87Z"/>
      <path d="M83.83,3.69l.95-3.57,2,.53-.95,3.57,3.23.86-.44,1.64-3.23-.86-1.74,6.53c-.11.42.03.69.42.8l2.23.6-.44,1.64-2.89-.77c-.58-.16-1-.46-1.26-.91-.26-.45-.31-.97-.15-1.57l1.83-6.84-3.02-.81.44-1.64,3.02.81Z"/>
      <path d="M98.22,10.32l.19.12c1.05-.58,2.18-.49,3.39.28.66.42,1.11.91,1.36,1.47.25.56.34,1.15.25,1.78l.19.12c1.21-.71,2.47-.65,3.77.18.9.57,1.46,1.32,1.67,2.25.21.93,0,1.88-.63,2.87l-3.88,6.11-1.73-1.1,3.81-6c.37-.58.49-1.14.37-1.67-.12-.53-.48-.98-1.06-1.35-.63-.4-1.27-.52-1.9-.35-.64.17-1.19.62-1.66,1.37l-3.49,5.5-1.75-1.11,3.81-6c.37-.58.5-1.14.38-1.66-.12-.53-.47-.97-1.05-1.34-.63-.4-1.27-.52-1.9-.35-.64.17-1.19.62-1.66,1.37l-3.49,5.5-1.75-1.11,5.8-9.12,1.71,1.09-.74,1.17Z"/>
      <path d="M111.04,20.54c.94-.26,1.86-.27,2.78,0,.91.26,1.73.76,2.46,1.51.71.74,1.19,1.54,1.42,2.41.23.87.2,1.75-.08,2.64s-.82,1.71-1.6,2.46l-.73.7-5.92-6.12c-.62.71-.93,1.49-.92,2.36s.35,1.65,1.03,2.34c.56.58,1.15.92,1.76,1.02.61.1,1.24.06,1.88-.14l.5,1.91c-.9.21-1.8.25-2.71.1s-1.82-.69-2.73-1.63c-.77-.79-1.26-1.66-1.49-2.62s-.19-1.9.12-2.85c.31-.94.86-1.8,1.65-2.56.78-.75,1.64-1.26,2.58-1.53ZM115.93,25.4c-.01-.76-.33-1.47-.95-2.11-.64-.66-1.35-1.02-2.13-1.06s-1.53.21-2.27.76l4.44,4.58c.62-.68.93-1.41.92-2.17Z"/>
      <path d="M122.59,33.16c.5,0,.96.12,1.4.35.44.23.79.56,1.04.99.26.43.38.89.38,1.39s-.12.96-.35,1.4c-.23.44-.56.79-.99,1.04-.43.26-.89.38-1.4.39-.5,0-.97-.12-1.4-.35s-.78-.57-1.03-1c-.25-.42-.37-.88-.38-1.38s.11-.97.35-1.41c.23-.44.56-.79.99-1.04.43-.26.89-.38,1.39-.38Z"/>
      <path d="M133.76,44.21c1.38.74,2.35,2.02,2.9,3.85.53,1.77.48,3.29-.17,4.56-.65,1.27-1.79,2.15-3.42,2.64l-.34.1-.63-2.08.36-.11c1.02-.31,1.76-.86,2.2-1.66.44-.8.49-1.76.15-2.88-.36-1.19-1.01-2.02-1.96-2.48-.94-.46-2.06-.49-3.35-.1l-3.33,1.01c-1.29.39-2.2,1.04-2.74,1.94-.53.9-.62,1.95-.26,3.15.34,1.14.92,1.91,1.72,2.33.8.42,1.71.47,2.74.16l.48-.15.63,2.08-.46.14c-1.62.49-3.05.38-4.29-.33-1.25-.71-2.14-1.94-2.66-3.68-.56-1.84-.46-3.45.28-4.82.74-1.37,2.07-2.35,3.98-2.93l3.24-.98c1.91-.58,3.55-.5,4.93.24Z"/>
      <path d="M131.63,57.96c.9.39,1.63.98,2.18,1.78s.87,1.74.97,2.82c.1,1.08-.05,2.06-.46,2.94-.4.88-1.01,1.6-1.83,2.15-.82.55-1.79.88-2.92.98-1.12.1-2.14-.05-3.03-.45-.9-.4-1.62-1-2.17-1.79-.55-.8-.87-1.74-.97-2.82-.1-1.07.06-2.04.46-2.93.4-.89,1-1.61,1.82-2.15.81-.54,1.78-.87,2.91-.97,1.12-.1,2.14.04,3.04.44ZM126.04,60.79c-.64.7-.91,1.57-.82,2.62.09,1.05.52,1.87,1.28,2.45.76.58,1.72.82,2.89.71,1.17-.1,2.08-.51,2.73-1.22s.93-1.58.84-2.64c-.09-1.04-.53-1.85-1.3-2.42s-1.74-.82-2.89-.71c-1.18.11-2.09.51-2.73,1.2Z"/>
      <path d="M132.96,72.53l-.02.22c.53.34.94.81,1.24,1.44.3.62.4,1.42.3,2.4-.08.8-.34,1.5-.76,2.11-.42.6-.99,1.05-1.7,1.35-.71.29-1.52.39-2.44.3l-6.48-.68.21-2.03,6.37.67c.96.1,1.71-.06,2.23-.49.53-.43.83-1.09.93-1.98.1-.98-.14-1.79-.74-2.44-.59-.65-1.49-1.04-2.69-1.17l-5.47-.58.22-2.06,10.74,1.13-.21,2.01-1.73-.18Z"/>
      <path d="M132.69,85.17l3.56.99-.55,1.99-3.56-.99-.9,3.22-1.63-.45.9-3.22-6.51-1.81c-.42-.12-.69.02-.8.42l-.62,2.23-1.63-.45.8-2.88c.16-.58.47-1,.92-1.25.45-.25.97-.3,1.57-.13l6.83,1.9.84-3.01,1.63.45-.84,3.01Z"/>
      <path d="M129.41,93.45c.21.96.05,2.03-.49,3.2-.58,1.27-1.36,2.11-2.35,2.53-.98.42-2.06.36-3.24-.18l-6.38-2.93.83-1.8,1.32.61.11-.24c-.8-1.08-.87-2.33-.21-3.75.48-1.05,1.16-1.79,2.02-2.22s1.78-.42,2.74.02c.97.45,1.56,1.13,1.78,2.06s.06,1.95-.45,3.05l-1.43,3.12.64.29c.63.29,1.21.33,1.76.12.55-.21.99-.68,1.33-1.41.33-.71.41-1.35.25-1.93-.16-.58-.5-1.08-1.03-1.48l1.37-1.5c.74.66,1.22,1.48,1.43,2.44ZM121.53,90.61c-.46.23-.84.67-1.13,1.31-.4.87-.46,1.69-.18,2.46.27.77.85,1.36,1.73,1.76l.2.09,1.39-3.02c.27-.59.36-1.12.26-1.59s-.38-.82-.85-1.03c-.48-.22-.95-.21-1.41.02Z"/>
      <path d="M123.24,101.86c.43.91.59,1.85.5,2.83-.09.97-.44,1.89-1.04,2.74-.81,1.15-1.8,1.88-2.96,2.18-1.16.3-2.3.19-3.41-.32l.83-1.9c.71.39,1.43.51,2.17.34.74-.16,1.36-.61,1.88-1.34.39-.55.61-1.14.65-1.76.04-.62-.09-1.23-.39-1.83s-.77-1.11-1.4-1.55-1.26-.7-1.92-.79c-.66-.09-1.27,0-1.85.26s-1.05.66-1.44,1.2c-.53.75-.75,1.5-.67,2.22.09.73.44,1.39,1.05,2l-1.53,1.37c-.85-.94-1.32-1.99-1.42-3.17-.1-1.17.26-2.34,1.08-3.5.6-.85,1.34-1.49,2.23-1.9.89-.42,1.83-.58,2.83-.48,1,.1,1.94.46,2.83,1.08.9.63,1.56,1.41,1.99,2.32Z"/>
      <path d="M116.63,114.36l2.64,2.59-1.45,1.48-2.64-2.59-2.34,2.39-1.21-1.19,2.34-2.39-4.82-4.73c-.31-.31-.62-.32-.9-.02l-1.62,1.65-1.21-1.19,2.09-2.14c.42-.43.89-.65,1.41-.65s1,.21,1.44.64l5.06,4.96,2.19-2.23,1.21,1.19-2.19,2.23Z"/>
      <path d="M103.77,123.63l-.19.1c0,1.2-.64,2.14-1.91,2.82-.69.37-1.33.52-1.95.47-.61-.05-1.17-.27-1.67-.65l-.19.1c.02,1.4-.65,2.47-2.01,3.2-.94.51-1.87.62-2.78.35-.91-.27-1.64-.92-2.2-1.96l-3.42-6.38,1.8-.97,3.35,6.26c.33.61.75.99,1.27,1.14.52.15,1.09.07,1.7-.26.66-.35,1.07-.85,1.24-1.49.17-.64.04-1.34-.37-2.12l-3.07-5.74,1.82-.98,3.35,6.26c.33.61.75.99,1.26,1.15.52.16,1.08.07,1.69-.25.66-.35,1.07-.85,1.24-1.49.17-.64.04-1.34-.37-2.12l-3.07-5.74,1.82-.98,5.1,9.52-1.79.96-.65-1.22Z"/>
      <path d="M88.58,129.78c-.23.95-.69,1.75-1.36,2.42-.67.67-1.52,1.13-2.52,1.39-.99.26-1.93.27-2.8.04-.87-.23-1.62-.69-2.25-1.37-.63-.68-1.08-1.55-1.36-2.6l-.25-.98,8.24-2.14c-.31-.89-.84-1.54-1.6-1.96-.76-.42-1.61-.5-2.54-.26-.78.2-1.37.54-1.76,1.02s-.66,1.05-.81,1.71l-1.9-.51c.26-.88.67-1.69,1.25-2.4.58-.72,1.5-1.24,2.76-1.57,1.06-.28,2.07-.28,3.01,0,.94.27,1.75.77,2.42,1.51.67.74,1.14,1.64,1.42,2.7.27,1.05.29,2.05.06,3ZM81.93,131.64c.67.36,1.44.43,2.3.21.89-.23,1.55-.67,1.97-1.33.42-.65.58-1.44.46-2.35l-6.18,1.6c.29.88.77,1.5,1.44,1.87Z"/>
      <path d="M71.89,133.61c-.25.43-.58.78-1,1.05s-.88.41-1.38.42c-.5.01-.96-.11-1.39-.35-.43-.25-.78-.58-1.05-1-.27-.42-.41-.88-.42-1.38s.11-.97.35-1.41.58-.79,1-1.05c.42-.26.88-.39,1.38-.41.48-.01.95.11,1.38.35.44.25.79.58,1.06,1,.27.42.41.88.42,1.38.01.5-.11.96-.35,1.39Z"/>
      <path d="M56.8,137.9c-1.32.84-2.91,1.05-4.77.63-1.8-.4-3.1-1.2-3.88-2.39-.79-1.19-.99-2.62-.62-4.28l.08-.34,2.13.48-.08.37c-.23,1.04-.11,1.96.37,2.73.48.78,1.29,1.29,2.44,1.55,1.22.27,2.26.11,3.12-.49.86-.6,1.44-1.55,1.73-2.87l.76-3.39c.29-1.32.18-2.43-.35-3.33-.53-.91-1.4-1.5-2.61-1.77-1.16-.26-2.12-.14-2.87.35-.76.49-1.25,1.26-1.48,2.31l-.11.49-2.12-.48.11-.47c.37-1.65,1.17-2.84,2.4-3.58,1.23-.74,2.74-.91,4.51-.51,1.88.42,3.23,1.29,4.06,2.61.83,1.32,1.03,2.95.6,4.9l-.74,3.31c-.44,1.95-1.31,3.34-2.64,4.18Z"/>
      <path d="M45.86,129.29c-.78.59-1.66.94-2.62,1.02-.96.09-1.94-.09-2.93-.54-.99-.45-1.77-1.06-2.34-1.84-.57-.78-.9-1.67-.97-2.65-.08-.99.12-1.99.58-3.02.47-1.03,1.09-1.84,1.88-2.42s1.66-.92,2.63-1.01c.96-.09,1.94.09,2.93.54.98.44,1.75,1.05,2.33,1.84.58.79.9,1.67.98,2.64.07.98-.12,1.98-.59,3.01s-1.09,1.84-1.88,2.44ZM46.14,123.03c-.29-.9-.92-1.56-1.88-2s-1.88-.47-2.76-.09c-.88.38-1.56,1.1-2.04,2.17-.48,1.07-.58,2.06-.28,2.97s.92,1.59,1.88,2.02c.95.43,1.87.45,2.75.06.88-.39,1.57-1.11,2.04-2.17.49-1.08.59-2.07.29-2.97Z"/>
      <path d="M32.49,123.25l-.18-.13c-.55.29-1.17.41-1.86.37s-1.43-.35-2.23-.92c-.66-.47-1.14-1.04-1.46-1.71-.31-.67-.42-1.38-.33-2.15.1-.76.41-1.52.95-2.27l3.79-5.29,1.66,1.19-3.73,5.2c-.56.79-.79,1.51-.67,2.18.12.67.54,1.26,1.26,1.79.8.57,1.63.76,2.49.57.86-.19,1.64-.78,2.34-1.76l3.2-4.47,1.68,1.21-6.29,8.78-1.65-1.18,1.01-1.41Z"/>
      <path d="M21.67,116.81l-2.61,2.61-1.46-1.46,2.62-2.61-2.36-2.37,1.2-1.2,2.36,2.37,4.78-4.77c.31-.31.32-.61.03-.9l-1.63-1.63,1.2-1.2,2.11,2.12c.42.43.64.9.64,1.42,0,.52-.22,1-.65,1.43l-5.01,5.01,2.21,2.21-1.2,1.2-2.21-2.21Z"/>
      <path d="M16.07,109.87c-.94-.29-1.79-.95-2.55-2-.82-1.13-1.17-2.22-1.05-3.29s.7-1.97,1.74-2.73l5.68-4.12,1.16,1.6-1.18.85.16.21c1.33-.17,2.45.39,3.37,1.66.68.94.99,1.89.94,2.85-.05.96-.51,1.75-1.36,2.37-.87.63-1.76.81-2.67.53-.91-.27-1.73-.9-2.44-1.89l-2.01-2.78-.57.41c-.56.4-.88.9-.97,1.48-.09.58.11,1.2.58,1.85.46.63.98,1.02,1.56,1.16.59.15,1.18.09,1.79-.17l.64,1.93c-.94.32-1.89.34-2.83.05ZM22.42,104.4c.02-.52-.17-1.06-.58-1.63-.56-.77-1.24-1.23-2.05-1.37-.81-.14-1.6.07-2.39.64l-.18.13,1.95,2.69c.38.52.8.86,1.26,1,.46.15.9.07,1.31-.23.43-.31.65-.72.68-1.24Z"/>
      <path d="M11.78,100.38c-1-.08-1.9-.39-2.71-.96-.8-.56-1.43-1.31-1.87-2.25-.6-1.27-.75-2.49-.44-3.65.31-1.16.96-2.1,1.95-2.81l1.25,1.65c-.69.43-1.15,1-1.36,1.72-.22.72-.14,1.48.25,2.29.29.61.69,1.09,1.22,1.43.52.35,1.12.53,1.78.55.67.02,1.35-.13,2.04-.46s1.23-.76,1.63-1.29c.4-.53.63-1.11.69-1.74.06-.63-.05-1.24-.34-1.84-.4-.83-.93-1.39-1.61-1.67s-1.43-.3-2.26-.07l-.44-2.01c1.23-.28,2.38-.17,3.45.32s1.91,1.38,2.52,2.66c.45.94.63,1.9.56,2.88-.07.98-.4,1.88-.97,2.7-.57.83-1.35,1.47-2.33,1.94-.99.47-1.99.67-2.99.59Z"/>
      <path d="M4.12,88.44l-3.55,1.02-.57-1.99,3.55-1.02-.92-3.21,1.63-.47.92,3.21,6.49-1.87c.42-.12.58-.38.46-.77l-.64-2.22,1.63-.47.83,2.88c.17.58.12,1.09-.13,1.55-.25.45-.67.77-1.27.94l-6.81,1.96.86,3-1.63.47-.86-3Z"/>
      <path d="M2.41,72.71v-.22c-1.04-.6-1.54-1.61-1.51-3.05.02-.78.2-1.42.55-1.92s.81-.88,1.39-1.13v-.22c-1.23-.67-1.82-1.78-1.79-3.32.02-1.07.38-1.94,1.06-2.59.68-.66,1.61-.97,2.78-.95l7.24.17-.05,2.05-7.1-.17c-.69-.02-1.23.17-1.62.54-.39.38-.59.91-.61,1.6-.02.75.21,1.35.68,1.81.47.46,1.15.7,2.03.72l6.51.15-.05,2.07-7.1-.17c-.69-.02-1.23.16-1.62.53-.39.37-.59.9-.61,1.59-.02.75.21,1.35.68,1.81.47.46,1.15.7,2.03.72l6.51.15-.05,2.07-10.8-.25.05-2.02,1.39.03Z"/>
      <path d="M4.53,56.45c-.71-.67-1.19-1.46-1.44-2.37-.25-.92-.24-1.88.03-2.88.26-.99.71-1.81,1.34-2.46.63-.65,1.39-1.08,2.3-1.29.91-.21,1.88-.18,2.93.1l.98.26-2.19,8.23c.93.17,1.76.03,2.49-.43s1.23-1.15,1.48-2.09c.21-.78.2-1.46-.03-2.03-.23-.58-.59-1.09-1.09-1.54l1.38-1.41c.64.66,1.14,1.41,1.48,2.27.34.86.34,1.92,0,3.18-.28,1.06-.77,1.94-1.47,2.63s-1.53,1.14-2.5,1.36c-.97.22-1.98.19-3.05-.09-1.05-.28-1.93-.75-2.64-1.42ZM6.17,49.75c-.65.41-1.08,1.04-1.31,1.9-.24.89-.17,1.68.19,2.37.36.69.97,1.21,1.82,1.55l1.64-6.17c-.91-.18-1.69-.07-2.33.34Z"/>
      <path d="M9.38,40.06c-.25-.43-.39-.89-.42-1.38-.03-.5.08-.96.31-1.4.24-.44.57-.79.99-1.04.43-.25.89-.39,1.38-.42.5-.03.96.08,1.4.31.44.24.79.57,1.05,1,.26.43.4.89.42,1.38.02.49-.09.96-.32,1.4-.23.43-.56.77-.99,1.03-.43.26-.89.4-1.39.43-.5.03-.96-.08-1.4-.31-.44-.23-.79-.57-1.04-.99Z"/>
    </g>
  </g>
</svg>