<?xml version="1.0" encoding="UTF-8"?>
<svg id="Layer_2" data-name="Layer 2" xmlns="http://www.w3.org/2000/svg" viewBox="0 0 97.68 97.68">
  <g id="Layer_1-2" data-name="Layer 1">
    <path d="M47.52,97.68v-3.96c0-.73-.59-1.32-1.32-1.32h-1.32v-3.96c0-.73-.59-1.32-1.32-1.32h-1.32v-1.32c0-.73-.59-1.32-1.32-1.32h-5.28c-.73,0-1.32.59-1.32,1.32v1.32h-7.92v-1.32c0-.73-.59-1.32-1.32-1.32h-1.32v-2.64h1.32c.73,0,1.32-.59,1.32-1.32v-5.28c0-.73-.59-1.32-1.32-1.32h-1.32v-1.32c0-.73-.59-1.32-1.32-1.32h-9.24v-1.32c0-.73-.59-1.32-1.32-1.32h-1.32v-1.32c0-.73-.59-1.32-1.32-1.32h-1.32v-1.32c0-.73-.59-1.32-1.32-1.32h-1.32v-2.64h6.6c.73,0,1.32-.59,1.32-1.32v-2.64c0-.73-.59-1.32-1.32-1.32h-1.32v-1.32c0-.73-.59-1.32-1.32-1.32h-3.96v-1.32c0-.73-.59-1.32-1.32-1.32H0v-2.64h3.96c.73,0,1.32-.59,1.32-1.32v-1.32h3.96c.73,0,1.32-.59,1.32-1.32v-1.32h1.32c.73,0,1.32-.59,1.32-1.32v-5.28c0-.73-.59-1.32-1.32-1.32h-1.32v-7.92h1.32c.73,0,1.32-.59,1.32-1.32v-1.32h2.64v1.32c0,.73.59,1.32,1.32,1.32h5.28c.73,0,1.32-.59,1.32-1.32v-1.32h1.32c.73,0,1.32-.59,1.32-1.32v-9.24h1.32c.73,0,1.32-.59,1.32-1.32v-1.32h1.32c.73,0,1.32-.59,1.32-1.32v-1.32h1.32c.73,0,1.32-.59,1.32-1.32v-1.32h2.64v6.6c0,.73.59,1.32,1.32,1.32h2.64c.73,0,1.32-.59,1.32-1.32v-1.32h1.32c.73,0,1.32-.59,1.32-1.32v-3.96h1.32c.73,0,1.32-.59,1.32-1.32V0h2.64v3.96c0,.73.59,1.32,1.32,1.32h1.32v3.96c0,.73.59,1.32,1.32,1.32h1.32v1.32c0,.73.59,1.32,1.32,1.32h5.28c.73,0,1.32-.59,1.32-1.32v-1.32h7.92v1.32c0,.73.59,1.32,1.32,1.32h1.32v2.64h-1.32c-.73,0-1.32.59-1.32,1.32v5.28c0,.73.59,1.32,1.32,1.32h1.32v1.32c0,.73.59,1.32,1.32,1.32h9.24v1.32c0,.73.59,1.32,1.32,1.32h1.32v1.32c0,.73.59,1.32,1.32,1.32h1.32v1.32c0,.73.59,1.32,1.32,1.32h1.32v2.64h-6.6c-.73,0-1.32.59-1.32,1.32v2.64c0,.73.59,1.32,1.32,1.32h1.32v1.32c0,.73.59,1.32,1.32,1.32h3.96v1.32c0,.73.59,1.32,1.32,1.32h3.96v2.64h-3.96c-.73,0-1.32.59-1.32,1.32v1.32h-3.96c-.73,0-1.32.59-1.32,1.32v1.32h-1.32c-.73,0-1.32.59-1.32,1.32v5.28c0,.73.59,1.32,1.32,1.32h1.32v7.92h-1.32c-.73,0-1.32.59-1.32,1.32v1.32h-2.64v-1.32c0-.73-.59-1.32-1.32-1.32h-5.28c-.73,0-1.32.59-1.32,1.32v1.32h-1.32c-.73,0-1.32.59-1.32,1.32v9.24h-1.32c-.73,0-1.32.59-1.32,1.32v1.32h-1.32c-.73,0-1.32.59-1.32,1.32v1.32h-1.32c-.73,0-1.32.59-1.32,1.32v1.32h-2.64v-6.6c0-.73-.59-1.32-1.32-1.32h-2.64c-.73,0-1.32.59-1.32,1.32v1.32h-1.32c-.73,0-1.32.59-1.32,1.32v3.96h-1.32c-.73,0-1.32.59-1.32,1.32v3.96h-2.64ZM46.2,76.56c-.73,0-1.32.59-1.32,1.32v7.92c0,.73.59,1.32,1.32,1.32h1.32v3.96c0,.73.59,1.32,1.32,1.32s1.32-.59,1.32-1.32v-3.96h1.32c.73,0,1.32-.59,1.32-1.32v-7.92c0-.73-.59-1.32-1.32-1.32h-5.28ZM59.4,73.92c-.73,0-1.32.59-1.32,1.32v2.64c0,.73.59,1.32,1.32,1.32h1.32v3.96c0,.73.59,1.32,1.32,1.32h1.32v1.32c0,.73.59,1.32,1.32,1.32s1.32-.59,1.32-1.32v-1.32h1.32c.73,0,1.32-.59,1.32-1.32v-7.92c0-.73-.59-1.32-1.32-1.32h-1.32v-1.32c0-.73-.59-1.32-1.32-1.32s-1.32.59-1.32,1.32v1.32h-3.96ZM27.72,81.84c-.73,0-1.32.59-1.32,1.32h0c0,.73.59,1.32,1.32,1.32h5.28c.73,0,1.32-.59,1.32-1.32v-1.32h3.96c.73,0,1.32-.59,1.32-1.32v-5.28c0-.73-.59-1.32-1.32-1.32h-3.96v-1.32c0-.73-.59-1.32-1.32-1.32s-1.32.59-1.32,1.32v3.96h-1.32c-.73,0-1.32.59-1.32,1.32v3.96h-1.32ZM25.08,39.6c-.73,0-1.32.59-1.32,1.32v15.84c0,.73.59,1.32,1.32,1.32h1.32v3.96c0,.73.59,1.32,1.32,1.32h1.32v1.32c0,.73.59,1.32,1.32,1.32h1.32v1.32c0,.73.59,1.32,1.32,1.32h1.32v1.32c0,.73.59,1.32,1.32,1.32h3.96v1.32c0,.73.59,1.32,1.32,1.32h15.84c.73,0,1.32-.59,1.32-1.32v-1.32h3.96c.73,0,1.32-.59,1.32-1.32v-1.32h1.32c.73,0,1.32-.59,1.32-1.32v-1.32h1.32c.73,0,1.32-.59,1.32-1.32v-1.32h1.32c.73,0,1.32-.59,1.32-1.32v-3.96h1.32c.73,0,1.32-.59,1.32-1.32v-15.84c0-.73-.59-1.32-1.32-1.32h-1.32v-3.96c0-.73-.59-1.32-1.32-1.32h-1.32v-1.32c0-.73-.59-1.32-1.32-1.32h-1.32v-1.32c0-.73-.59-1.32-1.32-1.32h-1.32v-1.32c0-.73-.59-1.32-1.32-1.32h-3.96v-1.32c0-.73-.59-1.32-1.32-1.32h-15.84c-.73,0-1.32.59-1.32,1.32v1.32h-3.96c-.73,0-1.32.59-1.32,1.32v1.32h-1.32c-.73,0-1.32.59-1.32,1.32v1.32h-1.32c-.73,0-1.32.59-1.32,1.32v1.32h-1.32c-.73,0-1.32.59-1.32,1.32v3.96h-1.32ZM72.6,63.36c-.73,0-1.32.59-1.32,1.32h0c0,.73.59,1.32,1.32,1.32h3.96v1.32c0,.73.59,1.32,1.32,1.32h3.96v1.32c0,.73.59,1.32,1.32,1.32s1.32-.59,1.32-1.32v-5.28c0-.73-.59-1.32-1.32-1.32h-1.32v-3.96c0-.73-.59-1.32-1.32-1.32h-5.28c-.73,0-1.32.59-1.32,1.32v3.96h-1.32ZM11.88,63.36c-.73,0-1.32.59-1.32,1.32h0c0,.73.59,1.32,1.32,1.32h1.32v1.32c0,.73.59,1.32,1.32,1.32h7.92c.73,0,1.32-.59,1.32-1.32v-1.32h1.32c.73,0,1.32-.59,1.32-1.32s-.59-1.32-1.32-1.32h-1.32v-3.96c0-.73-.59-1.32-1.32-1.32h-2.64c-.73,0-1.32.59-1.32,1.32v1.32h-3.96c-.73,0-1.32.59-1.32,1.32v1.32h-1.32ZM77.88,44.88c-.73,0-1.32.59-1.32,1.32v5.28c0,.73.59,1.32,1.32,1.32h7.92c.73,0,1.32-.59,1.32-1.32v-1.32h3.96c.73,0,1.32-.59,1.32-1.32s-.59-1.32-1.32-1.32h-3.96v-1.32c0-.73-.59-1.32-1.32-1.32h-7.92ZM6.6,47.52c-.73,0-1.32.59-1.32,1.32h0c0,.73.59,1.32,1.32,1.32h3.96v1.32c0,.73.59,1.32,1.32,1.32h7.92c.73,0,1.32-.59,1.32-1.32v-5.28c0-.73-.59-1.32-1.32-1.32h-7.92c-.73,0-1.32.59-1.32,1.32v1.32h-3.96ZM72.6,31.68c-.73,0-1.32.59-1.32,1.32h0c0,.73.59,1.32,1.32,1.32h1.32v3.96c0,.73.59,1.32,1.32,1.32h2.64c.73,0,1.32-.59,1.32-1.32v-1.32h3.96c.73,0,1.32-.59,1.32-1.32v-1.32h1.32c.73,0,1.32-.59,1.32-1.32s-.59-1.32-1.32-1.32h-1.32v-1.32c0-.73-.59-1.32-1.32-1.32h-7.92c-.73,0-1.32.59-1.32,1.32v1.32h-1.32ZM14.52,26.4c-.73,0-1.32.59-1.32,1.32v5.28c0,.73.59,1.32,1.32,1.32h1.32v3.96c0,.73.59,1.32,1.32,1.32h5.28c.73,0,1.32-.59,1.32-1.32v-3.96h1.32c.73,0,1.32-.59,1.32-1.32s-.59-1.32-1.32-1.32h-3.96v-1.32c0-.73-.59-1.32-1.32-1.32h-3.96v-1.32c0-.73-.59-1.32-1.32-1.32ZM59.4,15.84c-.73,0-1.32.59-1.32,1.32v5.28c0,.73.59,1.32,1.32,1.32h3.96v1.32c0,.73.59,1.32,1.32,1.32s1.32-.59,1.32-1.32v-3.96h1.32c.73,0,1.32-.59,1.32-1.32v-3.96h1.32c.73,0,1.32-.59,1.32-1.32s-.59-1.32-1.32-1.32h-5.28c-.73,0-1.32.59-1.32,1.32v1.32h-3.96ZM30.36,13.2c-.73,0-1.32.59-1.32,1.32v7.92c0,.73.59,1.32,1.32,1.32h1.32v1.32c0,.73.59,1.32,1.32,1.32s1.32-.59,1.32-1.32v-1.32h3.96c.73,0,1.32-.59,1.32-1.32v-2.64c0-.73-.59-1.32-1.32-1.32h-1.32v-3.96c0-.73-.59-1.32-1.32-1.32h-1.32v-1.32c0-.73-.59-1.32-1.32-1.32s-1.32.59-1.32,1.32v1.32h-1.32ZM46.2,10.56c-.73,0-1.32.59-1.32,1.32v7.92c0,.73.59,1.32,1.32,1.32h5.28c.73,0,1.32-.59,1.32-1.32v-7.92c0-.73-.59-1.32-1.32-1.32h-1.32v-3.96c0-.73-.59-1.32-1.32-1.32s-1.32.59-1.32,1.32v3.96h-1.32ZM44.88,68.64v-2.64h7.92v2.64h-7.92ZM55.44,63.36v-2.64h2.64v2.64h-2.64ZM44.88,63.36v-2.64h7.92v2.64h-7.92ZM39.6,63.36v-2.64h2.64v2.64h-2.64ZM52.8,58.08v-3.96c0-.73-.59-1.32-1.32-1.32h-1.32v-7.92h1.32c.73,0,1.32-.59,1.32-1.32v-1.32h1.32c.73,0,1.32-.59,1.32-1.32v-1.32h7.92v1.32c0,.73.59,1.32,1.32,1.32h1.32v2.64h-3.96c-.73,0-1.32.59-1.32,1.32v1.32h-3.96c-.73,0-1.32.59-1.32,1.32v9.24h-2.64ZM59.4,42.24c-.73,0-1.32.59-1.32,1.32h0c0,.73.59,1.32,1.32,1.32s1.32-.59,1.32-1.32-.59-1.32-1.32-1.32ZM44.88,58.08v-2.64h2.64v2.64h-2.64ZM36.96,47.52v-1.32c0-.73-.59-1.32-1.32-1.32h-3.96v-2.64h1.32c.73,0,1.32-.59,1.32-1.32v-1.32h7.92v1.32c0,.73.59,1.32,1.32,1.32h1.32v5.28h-7.92ZM40.92,42.24c-.73,0-1.32.59-1.32,1.32h0c0,.73.59,1.32,1.32,1.32s1.32-.59,1.32-1.32-.59-1.32-1.32-1.32Z"/>
  </g>
</svg>