<?xml version="1.0" encoding="UTF-8"?>
<svg id="Layer_2" data-name="Layer 2" xmlns="http://www.w3.org/2000/svg" viewBox="0 0 50.55 65.42">
  <g id="Layer_1-2" data-name="Layer 1">
    <path d="M14.87,65.42v-1.49c0-.82-.67-1.49-1.49-1.49h-4.46v-1.49c0-.82-.67-1.49-1.49-1.49h-1.49v-1.49c0-.82-.67-1.49-1.49-1.49h-1.49v-4.46c0-.82-.67-1.49-1.49-1.49H0v-14.87h1.49c.82,0,1.49-.67,1.49-1.49v-4.46h1.49c.82,0,1.49-.67,1.49-1.49v-1.49h1.49c.82,0,1.49-.67,1.49-1.49v-1.49h4.46c.82,0,1.49-.67,1.49-1.49v-4.46h4.46c.82,0,1.49-.67,1.49-1.49v-4.46h1.49c.82,0,1.49-.67,1.49-1.49v-1.49h1.49c.82,0,1.49-.67,1.49-1.49v-1.49h4.46c.82,0,1.49-.67,1.49-1.49v-1.49h2.97v1.49c0,.82.67,1.49,1.49,1.49s1.49-.67,1.49-1.49V0h2.97v4.46c0,.82.67,1.49,1.49,1.49s1.49-.67,1.49-1.49v-1.49h2.97v2.97h-1.49c-.82,0-1.49.67-1.49,1.49s.67,1.49,1.49,1.49h4.46v2.97h-4.46c-.82,0-1.49.67-1.49,1.49s.67,1.49,1.49,1.49h1.49v2.97h-2.97v-1.49c0-.82-.67-1.49-1.49-1.49s-1.49.67-1.49,1.49v4.46h-2.97v-4.46c0-.82-.67-1.49-1.49-1.49s-1.49.67-1.49,1.49v1.49h-2.97v-2.97h1.49c.82,0,1.49-.67,1.49-1.49s-.67-1.49-1.49-1.49h-1.49v-1.49c0-.82-.67-1.49-1.49-1.49h-2.98c-.82,0-1.49.67-1.49,1.49v1.49h-1.49c-.82,0-1.49.67-1.49,1.49v2.98c0,.82.67,1.49,1.49,1.49h4.46v4.46c0,.82.67,1.49,1.49,1.49h4.46v1.49c0,.82.67,1.49,1.49,1.49h1.49v1.49c0,.82.67,1.49,1.49,1.49h1.49v4.46c0,.82.67,1.49,1.49,1.49h1.49v14.87h-1.49c-.82,0-1.49.67-1.49,1.49v4.46h-1.49c-.82,0-1.49.67-1.49,1.49v1.49h-1.49c-.82,0-1.49.67-1.49,1.49v1.49h-4.46c-.82,0-1.49.67-1.49,1.49v1.49h-14.87ZM10.41,32.71c-.82,0-1.49.67-1.49,1.49v2.98c0,.82.67,1.49,1.49,1.49s1.49-.67,1.49-1.49v-1.49h1.49c.82,0,1.49-.67,1.49-1.49v-1.49h1.49c.82,0,1.49-.67,1.49-1.49s-.67-1.49-1.49-1.49h-2.98c-.82,0-1.49.67-1.49,1.49v1.49h-1.49ZM40.15,11.9c-.82,0-1.49.67-1.49,1.49h0c0,.82.67,1.49,1.49,1.49s1.49-.67,1.49-1.49-.67-1.49-1.49-1.49ZM43.12,8.92c-.82,0-1.49.67-1.49,1.49h0c0,.82.67,1.49,1.49,1.49s1.49-.67,1.49-1.49-.67-1.49-1.49-1.49ZM37.17,8.92c-.82,0-1.49.67-1.49,1.49h0c0,.82.67,1.49,1.49,1.49s1.49-.67,1.49-1.49-.67-1.49-1.49-1.49ZM40.15,5.95c-.82,0-1.49.67-1.49,1.49h0c0,.82.67,1.49,1.49,1.49s1.49-.67,1.49-1.49-.67-1.49-1.49-1.49ZM34.2,5.95c-.82,0-1.49.67-1.49,1.49h0c0,.82.67,1.49,1.49,1.49s1.49-.67,1.49-1.49-.67-1.49-1.49-1.49Z"/>
  </g>
</svg>