<?xml version="1.0" encoding="UTF-8"?>
<svg id="Layer_2" data-name="Layer 2" xmlns="http://www.w3.org/2000/svg" viewBox="0 0 55.43 55.43">
  <g id="Layer_1-2" data-name="Layer 1">
    <path d="M18.48,55.43v-1.32c0-.73-.59-1.32-1.32-1.32h-3.96v-1.32c0-.73-.59-1.32-1.32-1.32h-1.32v-1.32c0-.73-.59-1.32-1.32-1.32h-1.32v-1.32c0-.73-.59-1.32-1.32-1.32h-1.32v-1.32c0-.73-.59-1.32-1.32-1.32h-1.32v-3.96c0-.73-.59-1.32-1.32-1.32H0v-18.48h1.32c.73,0,1.32-.59,1.32-1.32v-3.96h1.32c.73,0,1.32-.59,1.32-1.32v-1.32h1.32c.73,0,1.32-.59,1.32-1.32v-1.32h1.32c.73,0,1.32-.59,1.32-1.32v-1.32h1.32c.73,0,1.32-.59,1.32-1.32v-1.32h3.96c.73,0,1.32-.59,1.32-1.32V0h18.48v1.32c0,.73.59,1.32,1.32,1.32h3.96v1.32c0,.73.59,1.32,1.32,1.32h1.32v1.32c0,.73.59,1.32,1.32,1.32h1.32v1.32c0,.73.59,1.32,1.32,1.32h1.32v1.32c0,.73.59,1.32,1.32,1.32h1.32v3.96c0,.73.59,1.32,1.32,1.32h1.32v18.48h-1.32c-.73,0-1.32.59-1.32,1.32v3.96h-1.32c-.73,0-1.32.59-1.32,1.32v1.32h-1.32c-.73,0-1.32.59-1.32,1.32v1.32h-1.32c-.73,0-1.32.59-1.32,1.32v1.32h-1.32c-.73,0-1.32.59-1.32,1.32v1.32h-3.96c-.73,0-1.32.59-1.32,1.32v1.32h-18.48ZM3.96,18.48c-.73,0-1.32.59-1.32,1.32v15.84c0,.73.59,1.32,1.32,1.32h1.32v3.96c0,.73.59,1.32,1.32,1.32h1.32v1.32c0,.73.59,1.32,1.32,1.32h1.32v1.32c0,.73.59,1.32,1.32,1.32h1.32v1.32c0,.73.59,1.32,1.32,1.32h3.96v1.32c0,.73.59,1.32,1.32,1.32h15.84c.73,0,1.32-.59,1.32-1.32v-1.32h3.96c.73,0,1.32-.59,1.32-1.32v-1.32h1.32c.73,0,1.32-.59,1.32-1.32v-1.32h1.32c.73,0,1.32-.59,1.32-1.32v-1.32h1.32c.73,0,1.32-.59,1.32-1.32v-3.96h1.32c.73,0,1.32-.59,1.32-1.32v-15.84c0-.73-.59-1.32-1.32-1.32h-1.32v-3.96c0-.73-.59-1.32-1.32-1.32h-1.32v-1.32c0-.73-.59-1.32-1.32-1.32h-1.32v-1.32c0-.73-.59-1.32-1.32-1.32h-1.32v-1.32c0-.73-.59-1.32-1.32-1.32h-3.96v-1.32c0-.73-.59-1.32-1.32-1.32h-15.84c-.73,0-1.32.59-1.32,1.32v1.32h-3.96c-.73,0-1.32.59-1.32,1.32v1.32h-1.32c-.73,0-1.32.59-1.32,1.32v1.32h-1.32c-.73,0-1.32.59-1.32,1.32v1.32h-1.32c-.73,0-1.32.59-1.32,1.32v3.96h-1.32ZM23.76,47.52v-2.64h7.92v2.64h-7.92ZM34.32,42.24v-2.64h2.64v2.64h-2.64ZM23.76,42.24v-2.64h7.92v2.64h-7.92ZM18.48,42.24v-2.64h2.64v2.64h-2.64ZM31.68,36.96v-3.96c0-.73-.59-1.32-1.32-1.32h-1.32v-7.92h1.32c.73,0,1.32-.59,1.32-1.32v-1.32h1.32c.73,0,1.32-.59,1.32-1.32v-1.32h7.92v1.32c0,.73.59,1.32,1.32,1.32h1.32v2.64h-3.96c-.73,0-1.32.59-1.32,1.32v1.32h-3.96c-.73,0-1.32.59-1.32,1.32v2.64c0,.73.59,1.32,1.32,1.32h1.32v2.64h-1.32c-.73,0-1.32.59-1.32,1.32v1.32h-2.64ZM38.28,21.12c-.53,0-1.02.32-1.22.81-.2.49-.09,1.06.29,1.44h0c.25.25.59.39.93.39.17,0,.34-.03.5-.1.49-.2.81-.69.81-1.22,0-.73-.59-1.32-1.32-1.32ZM23.76,36.96v-2.64h2.64v2.64h-2.64ZM15.84,26.4v-1.32c0-.73-.59-1.32-1.32-1.32h-3.96v-2.64h1.32c.73,0,1.32-.59,1.32-1.32v-1.32h7.92v1.32c0,.73.59,1.32,1.32,1.32h1.32v5.28h-7.92ZM17.16,21.12c-.53,0-1.02.32-1.22.81-.2.49-.09,1.06.29,1.44h0c.25.25.59.39.93.39.17,0,.34-.03.5-.1.49-.2.81-.69.81-1.22,0-.73-.59-1.32-1.32-1.32Z"/>
  </g>
</svg>