<?xml version="1.0" encoding="UTF-8"?>
<svg id="Layer_2" xmlns="http://www.w3.org/2000/svg" version="1.1" viewBox="0 0 215.6 44.5">
  <!-- Generator: Adobe Illustrator 29.4.0, SVG Export Plug-In . SVG Version: 2.1.0 Build 152)  -->
  <defs>
    <style>
      .st0 {
        fill: #fff;
      }
    </style>
  </defs>
  <g id="Layer_1-2">
    <g>
      <path class="st0" d="M81.6,12.2v-4.1h2c1.1,0,2-.9,2-2s-.9-2-2-2h-2V0h8.1v8.1h-2c-1.1,0-2,.9-2,2v2h-4.1Z"/>
      <path class="st0" d="M207.5,44.5v-2c0-1.1-.9-2-2-2h-2v-6.1c0-1.1-.9-2-2-2h-4.1c-1.1,0-2,.9-2,2v4c0,1.1.9,2,2,2h2v4h-12.1v-4h2c1.1,0,2-.9,2-2V10.1c0-1.1-.9-2-2-2h-2v-4h2c1.1,0,2-.9,2-2V0h4v26.3c0,1.1.9,2,2,2s2-.9,2-2v-2h2c1.1,0,2-.9,2-2v-6.1h12.1v4h-6.1c-1.1,0-2,.9-2,2v2h-2c-1.1,0-2,.9-2,2v4c0,1.1.9,2,2,2h2v6.1c0,1.1.9,2,2,2h6.1v4h-8.1,0Z"/>
      <path class="st0" d="M173.1,44.5v-4h2c1.1,0,2-.9,2-2V10.1c0-1.1-.9-2-2-2h-2v-4h2c1.1,0,2-.9,2-2V0h4v38.4c0,1.1.9,2,2,2h2v4h-12.1,0Z"/>
      <path class="st0" d="M169.1,40.4c-1.1,0-2-.9-2-2v-18.2h-2c-1.1,0-2-.9-2-2v-2h-12.1v2c0,1.1-.9,2-2,2h-2v4h4v-2c0-1.1.9-2,2-2h8.1c1.1,0,2,.9,2,2s-.9,2-2,2h-2v2c0,1.1-.9,2-2,2h-6.1v2c0,1.1-.9,2-2,2h-2v12.1h12.1v-2c0-1.1.9-2,2-2s2,.9,2,2v2h8.1v-4h-2,0ZM163,34.4c0,1.1-.9,2-2,2h-2v2c0,1.1-.9,2-2,2h-4.1c-1.1,0-2-.9-2-2v-4c0-1.1.9-2,2-2h6.1v-2c0-1.1.9-2,2-2s2,.9,2,2c0,0,0,4.1,0,4Z"/>
      <path class="st0" d="M132.7,44.5v-22.2c0-1.1-.9-2-2-2h-2v-4h2c1.1,0,2-.9,2-2v-6.1h4v6.1c0,1.1.9,2,2,2h6.1v4h-6.1c-1.1,0-2,.9-2,2v16.2c0,1.1.9,2,2,2s2-.9,2-2v-2h4v4h-2c-1.1,0-2,.9-2,2v2h-8.1,0Z"/>
      <path class="st0" d="M89.2,44.5v-8.1h4v2c0,1.1.9,2,2,2h4.1c1.1,0,2-.9,2-2v-4c0-1.1-.9-2-2-2h-6.1v-2c0-1.1-.9-2-2-2h-2v-8.1h2c1.1,0,2-.9,2-2v-2h12.1v8.1h-4v-2c0-1.1-.9-2-2-2h-4.1c-1.1,0-2,.9-2,2v4c0,1.1.9,2,2,2h6.1v2c0,1.1.9,2,2,2h2v8.1h-2c-1.1,0-2,.9-2,2v2h-12.1Z"/>
      <path class="st0" d="M66.1,44.5v-22.2c0-1.1-.9-2-2-2h-2v-4h2c1.1,0,2-.9,2-2v-6.1h4v6.1c0,1.1.9,2,2,2h6.1v4h-6.1c-1.1,0-2,.9-2,2v16.2c0,1.1.9,2,2,2s2-.9,2-2v-2h4v4h-2c-1.1,0-2,.9-2,2v2s-8.1,0-8.1,0Z"/>
      <path class="st0" d="M44.9,28.3h14.1v-8.1h-2c-1.1,0-2-.9-2-2v-2h-12.1v2c0,1.1-.9,2-2,2h-2v20.2h2c1.1,0,2,.9,2,2v2h12.1v-2c0-1.1.9-2,2-2h2v-4h-4v2c0,1.1-.9,2-2,2h-8.1c-1.1,0-2-.9-2-2v-8.1c0-1.1.9-2,2-2ZM42.9,22.2c0-1.1.9-2,2-2h8.1c1.1,0,2,.9,2,2s-.9,2-2,2h-8.1c-1.1,0-2-.9-2-2h0Z"/>
      <path class="st0" d="M0,44.5v-4h6.1c1.1,0,2-.9,2-2V6.1c0-1.1-.9-2-2-2H0V0h20.2v4h-6.1c-1.1,0-2,.9-2,2v32.3c0,1.1.9,2,2,2h12.1c1.1,0,2-.9,2-2v-2h2c1.1,0,2-.9,2-2v-2h4v4h-2c-1.1,0-2,.9-2,2v6.1H0Z"/>
    </g>
  </g>
</svg>